<ttFont>
<head>
    <!-- Most of this table will be recalculated by the compiler -->
    <tableVersion value="1.0"/>
    <fontRevision value="1.0"/>
    <checkSumAdjustment value="0x20c36128"/>
    <magicNumber value="0x5f0f3cf5"/>
    <flags value="00000000 00001011"/>
    <unitsPerEm value="1000"/>
    <created value="Tue Nov 29 23:30:23 2022"/>
    <modified value="Wed Oct 25 10:37:21 2023"/>
    <xMin value="-328"/>
    <yMin value="-307"/>
    <xMax value="904"/>
    <yMax value="1108"/>
    <macStyle value="00000000 00000000"/>
    <lowestRecPPEM value="6"/>
    <fontDirectionHint value="2"/>
    <indexToLocFormat value="0"/>
    <glyphDataFormat value="0"/>
  </head>
    <TTGlyph name=".notdef" xMin="57" yMin="-240" xMax="557" yMax="960">
      <contour>
        <pt x="557" y="-240" on="1"/>
        <pt x="57" y="-240" on="1"/>
        <pt x="57" y="960" on="1"/>
        <pt x="557" y="960" on="1"/>
      </contour>
      <contour>
        <pt x="464" y="910" on="1"/>
        <pt x="149" y="910" on="1"/>
        <pt x="307" y="429" on="1"/>
      </contour>
      <contour>
        <pt x="507" y="874" on="1"/>
        <pt x="335" y="360" on="1"/>
        <pt x="507" y="-154" on="1"/>
      </contour>
      <contour>
        <pt x="107" y="-154" on="1"/>
        <pt x="278" y="360" on="1"/>
        <pt x="107" y="874" on="1"/>
      </contour>
      <contour>
        <pt x="464" y="-190" on="1"/>
        <pt x="307" y="291" on="1"/>
        <pt x="149" y="-190" on="1"/>
      </contour>
    </TTGlyph>
    <TTGlyph name="A" xMin="-32" yMin="0" xMax="513" yMax="655">
      <contour>
        <pt x="178" y="155" on="1"/>
        <pt x="87" y="0" on="1"/>
        <pt x="-32" y="0" on="1"/>
        <pt x="358" y="655" on="1"/>
        <pt x="496" y="655" on="1"/>
        <pt x="513" y="0" on="1"/>
        <pt x="404" y="0" on="1"/>
        <pt x="402" y="155" on="1"/>
      </contour>
      <contour>
        <pt x="400" y="545" on="1"/>
        <pt x="228" y="244" on="1"/>
        <pt x="404" y="244" on="1"/>
      </contour>
    </TTGlyph>
    <TTGlyph name="AE" xMin="-71" yMin="0" xMax="701" yMax="655">
      <contour>
        <pt x="127" y="164" on="1"/>
        <pt x="31" y="0" on="1"/>
        <pt x="-71" y="0" on="1"/>
        <pt x="325" y="655" on="1"/>
        <pt x="701" y="655" on="1"/>
        <pt x="676" y="566" on="1"/>
        <pt x="496" y="566" on="1"/>
        <pt x="441" y="374" on="1"/>
        <pt x="601" y="374" on="1"/>
        <pt x="576" y="287" on="1"/>
        <pt x="416" y="287" on="1"/>
        <pt x="359" y="89" on="1"/>
        <pt x="539" y="89" on="1"/>
        <pt x="513" y="0" on="1"/>
        <pt x="227" y="0" on="1"/>
        <pt x="274" y="164" on="1"/>
      </contour>
      <contour>
        <pt x="364" y="566" on="1"/>
        <pt x="176" y="247" on="1"/>
        <pt x="298" y="247" on="1"/>
        <pt x="389" y="566" on="1"/>
      </contour>
    </TTGlyph>
    <TTGlyph name="Aacute" xMin="-32" yMin="0" xMax="652" yMax="924">
      <component glyphName="A" x="0" y="0" flags="0x204"/>
      <component glyphName="uni0301.cap" x="295" y="0" flags="0x4"/>
    </TTGlyph>
    <TTGlyph name="Abreve" xMin="-32" yMin="0" xMax="673" yMax="918">
      <component glyphName="A" x="0" y="0" flags="0x204"/>
      <component glyphName="uni0306.cap" x="295" y="0" flags="0x4"/>
    </TTGlyph>
    <TTGlyph name="Acircumflex" xMin="-32" yMin="0" xMax="636" yMax="910">
      <component glyphName="A" x="0" y="0" flags="0x204"/>
      <component glyphName="uni0302.cap" x="292" y="-10" flags="0x4"/>
    </TTGlyph>
    <TTGlyph name="Adieresis" xMin="-32" yMin="0" xMax="660" yMax="880">
      <component glyphName="A" x="0" y="0" flags="0x204"/>
      <component glyphName="uni0308.cap" x="295" y="0" flags="0x4"/>
    </TTGlyph>
    <TTGlyph name="Agrave" xMin="-32" yMin="0" xMax="533" yMax="919">
      <component glyphName="A" x="0" y="0" flags="0x204"/>
      <component glyphName="uni0300.cap" x="295" y="0" flags="0x4"/>
    </TTGlyph>
    <TTGlyph name="Amacron" xMin="-32" yMin="0" xMax="639" yMax="853">
      <component glyphName="A" x="0" y="0" flags="0x204"/>
      <component glyphName="uni0304.cap" x="295" y="0" flags="0x4"/>
    </TTGlyph>
    <TTGlyph name="Aogonek" xMin="-32" yMin="-234" xMax="513" yMax="655">
      <contour>
        <pt x="178" y="155" on="1"/>
        <pt x="87" y="0" on="1"/>
        <pt x="-32" y="0" on="1"/>
        <pt x="358" y="655" on="1"/>
        <pt x="496" y="655" on="1"/>
        <pt x="513" y="0" on="1"/>
        <pt x="487" y="0" on="1"/>
        <pt x="435" y="-54" on="0"/>
        <pt x="390" y="-113" on="0"/>
        <pt x="390" y="-133" on="1"/>
        <pt x="390" y="-145" on="0"/>
        <pt x="409" y="-155" on="0"/>
        <pt x="433" y="-156" on="1"/>
        <pt x="491" y="-160" on="1"/>
        <pt x="462" y="-234" on="1"/>
        <pt x="389" y="-231" on="1"/>
        <pt x="337" y="-229" on="0"/>
        <pt x="291" y="-200" on="0"/>
        <pt x="291" y="-168" on="1"/>
        <pt x="291" y="-136" on="0"/>
        <pt x="351" y="-64" on="0"/>
        <pt x="428" y="0" on="1"/>
        <pt x="404" y="0" on="1"/>
        <pt x="402" y="155" on="1"/>
      </contour>
      <contour>
        <pt x="400" y="545" on="1"/>
        <pt x="228" y="244" on="1"/>
        <pt x="404" y="244" on="1"/>
      </contour>
    </TTGlyph>
    <TTGlyph name="Aring" xMin="-32" yMin="0" xMax="606" yMax="824">
      <contour>
        <pt x="178" y="155" on="1"/>
        <pt x="87" y="0" on="1"/>
        <pt x="-32" y="0" on="1"/>
        <pt x="321" y="593" on="1"/>
        <pt x="296" y="607" on="0"/>
        <pt x="271" y="651" on="0"/>
        <pt x="271" y="679" on="1"/>
        <pt x="271" y="744" on="0"/>
        <pt x="370" y="824" on="0"/>
        <pt x="454" y="824" on="1"/>
        <pt x="525" y="824" on="0"/>
        <pt x="606" y="765" on="0"/>
        <pt x="606" y="715" on="1"/>
        <pt x="606" y="667" on="0"/>
        <pt x="549" y="595" on="0"/>
        <pt x="498" y="579" on="1"/>
        <pt x="513" y="0" on="1"/>
        <pt x="404" y="0" on="1"/>
        <pt x="402" y="155" on="1"/>
      </contour>
      <contour>
        <pt x="525" y="711" on="1"/>
        <pt x="525" y="734" on="0"/>
        <pt x="483" y="759" on="0"/>
        <pt x="444" y="759" on="1"/>
        <pt x="402" y="759" on="0"/>
        <pt x="351" y="717" on="0"/>
        <pt x="351" y="683" on="1"/>
        <pt x="351" y="659" on="0"/>
        <pt x="393" y="634" on="0"/>
        <pt x="432" y="634" on="1"/>
        <pt x="475" y="634" on="0"/>
        <pt x="525" y="677" on="0"/>
      </contour>
      <contour>
        <pt x="400" y="545" on="1"/>
        <pt x="228" y="244" on="1"/>
        <pt x="404" y="244" on="1"/>
      </contour>
    </TTGlyph>
    <TTGlyph name="Atilde" xMin="-32" yMin="0" xMax="678" yMax="914">
      <component glyphName="A" x="0" y="0" flags="0x204"/>
      <component glyphName="uni0303.cap" x="295" y="0" flags="0x4"/>
    </TTGlyph>
    <TTGlyph name="B" xMin="18" yMin="0" xMax="631" yMax="655">
      <contour>
        <pt x="18" y="0" on="1"/>
        <pt x="206" y="655" on="1"/>
        <pt x="458" y="655" on="1"/>
        <pt x="540" y="655" on="0"/>
        <pt x="631" y="586" on="0"/>
        <pt x="631" y="525" on="1"/>
        <pt x="631" y="452" on="0"/>
        <pt x="529" y="355" on="0"/>
        <pt x="431" y="335" on="1"/>
        <pt x="431" y="331" on="1"/>
        <pt x="491" y="318" on="0"/>
        <pt x="556" y="248" on="0"/>
        <pt x="556" y="196" on="1"/>
        <pt x="556" y="101" on="0"/>
        <pt x="410" y="0" on="0"/>
        <pt x="270" y="0" on="1"/>
      </contour>
      <contour>
        <pt x="510" y="501" on="1"/>
        <pt x="510" y="534" on="0"/>
        <pt x="465" y="568" on="0"/>
        <pt x="420" y="568" on="1"/>
        <pt x="292" y="568" on="1"/>
        <pt x="236" y="374" on="1"/>
        <pt x="334" y="379" on="1"/>
        <pt x="418" y="384" on="0"/>
        <pt x="510" y="448" on="0"/>
      </contour>
      <contour>
        <pt x="443" y="202" on="1"/>
        <pt x="443" y="243" on="0"/>
        <pt x="379" y="288" on="0"/>
        <pt x="313" y="291" on="1"/>
        <pt x="214" y="296" on="1"/>
        <pt x="154" y="86" on="1"/>
        <pt x="290" y="86" on="1"/>
        <pt x="362" y="86" on="0"/>
        <pt x="443" y="149" on="0"/>
      </contour>
    </TTGlyph>
    <TTGlyph name="C" xMin="63" yMin="-15" xMax="662" yMax="670">
      <contour>
        <pt x="276" y="-15" on="1"/>
        <pt x="172" y="-15" on="0"/>
        <pt x="63" y="99" on="0"/>
        <pt x="63" y="209" on="1"/>
        <pt x="63" y="294" on="0"/>
        <pt x="117" y="457" on="0"/>
        <pt x="166" y="522" on="1"/>
        <pt x="220" y="594" on="0"/>
        <pt x="367" y="670" on="0"/>
        <pt x="452" y="670" on="1"/>
        <pt x="515" y="670" on="0"/>
        <pt x="610" y="632" on="0"/>
        <pt x="662" y="587" on="1"/>
        <pt x="599" y="505" on="1"/>
        <pt x="554" y="545" on="0"/>
        <pt x="489" y="576" on="0"/>
        <pt x="445" y="576" on="1"/>
        <pt x="389" y="576" on="0"/>
        <pt x="285" y="509" on="0"/>
        <pt x="246" y="448" on="1"/>
        <pt x="214" y="398" on="0"/>
        <pt x="179" y="277" on="0"/>
        <pt x="179" y="214" on="1"/>
        <pt x="179" y="151" on="0"/>
        <pt x="236" y="79" on="0"/>
        <pt x="285" y="79" on="1"/>
        <pt x="326" y="79" on="0"/>
        <pt x="414" y="111" on="0"/>
        <pt x="480" y="150" on="1"/>
        <pt x="528" y="68" on="1"/>
        <pt x="457" y="24" on="0"/>
        <pt x="338" y="-15" on="0"/>
      </contour>
    </TTGlyph>
    <TTGlyph name="Cacute" xMin="63" yMin="-15" xMax="694" yMax="927">
      <component glyphName="C" x="0" y="0" flags="0x204"/>
      <component glyphName="uni0301.cap" x="337" y="3" flags="0x4"/>
    </TTGlyph>
    <TTGlyph name="Ccaron" xMin="63" yMin="-15" xMax="707" yMax="923">
      <component glyphName="C" x="0" y="0" flags="0x204"/>
      <component glyphName="uni030C.cap" x="337" y="3" flags="0x4"/>
    </TTGlyph>
    <TTGlyph name="Ccedilla" xMin="63" yMin="-270" xMax="662" yMax="670">
      <contour>
        <pt x="387" y="-144" on="1"/>
        <pt x="387" y="-188" on="0"/>
        <pt x="332" y="-232" on="0"/>
        <pt x="268" y="-246" on="1"/>
        <pt x="236" y="-253" on="0"/>
        <pt x="150" y="-265" on="0"/>
        <pt x="95" y="-270" on="1"/>
        <pt x="94" y="-212" on="1"/>
        <pt x="130" y="-209" on="0"/>
        <pt x="187" y="-203" on="0"/>
        <pt x="208" y="-200" on="1"/>
        <pt x="261" y="-192" on="0"/>
        <pt x="303" y="-174" on="0"/>
        <pt x="303" y="-155" on="1"/>
        <pt x="303" y="-139" on="0"/>
        <pt x="247" y="-122" on="0"/>
        <pt x="179" y="-117" on="1"/>
        <pt x="176" y="-107" on="1"/>
        <pt x="234" y="-12" on="1"/>
        <pt x="150" y="-1" on="0"/>
        <pt x="63" y="111" on="0"/>
        <pt x="63" y="209" on="1"/>
        <pt x="63" y="294" on="0"/>
        <pt x="117" y="457" on="0"/>
        <pt x="166" y="522" on="1"/>
        <pt x="220" y="594" on="0"/>
        <pt x="367" y="670" on="0"/>
        <pt x="452" y="670" on="1"/>
        <pt x="515" y="670" on="0"/>
        <pt x="610" y="632" on="0"/>
        <pt x="662" y="587" on="1"/>
        <pt x="599" y="505" on="1"/>
        <pt x="554" y="545" on="0"/>
        <pt x="489" y="576" on="0"/>
        <pt x="445" y="576" on="1"/>
        <pt x="389" y="576" on="0"/>
        <pt x="285" y="509" on="0"/>
        <pt x="246" y="448" on="1"/>
        <pt x="214" y="398" on="0"/>
        <pt x="179" y="277" on="0"/>
        <pt x="179" y="214" on="1"/>
        <pt x="179" y="151" on="0"/>
        <pt x="236" y="79" on="0"/>
        <pt x="285" y="79" on="1"/>
        <pt x="326" y="79" on="0"/>
        <pt x="414" y="111" on="0"/>
        <pt x="480" y="150" on="1"/>
        <pt x="528" y="68" on="1"/>
        <pt x="460" y="26" on="0"/>
        <pt x="346" y="-13" on="0"/>
        <pt x="289" y="-15" on="1"/>
        <pt x="259" y="-64" on="1"/>
        <pt x="327" y="-73" on="0"/>
        <pt x="387" y="-109" on="0"/>
      </contour>
    </TTGlyph>
    <TTGlyph name="Ccircumflex" xMin="63" yMin="-15" xMax="680" yMax="918">
      <component glyphName="C" x="0" y="0" flags="0x204"/>
      <component glyphName="uni0302.cap" x="336" y="-2" flags="0x4"/>
    </TTGlyph>
    <TTGlyph name="Cdotaccent" xMin="63" yMin="-15" xMax="662" yMax="889">
      <component glyphName="C" x="0" y="0" flags="0x204"/>
      <component glyphName="uni0307.cap" x="337" y="3" flags="0x4"/>
    </TTGlyph>
    <TTGlyph name="D" xMin="17" yMin="0" xMax="611" yMax="655">
      <contour>
        <pt x="17" y="0" on="1"/>
        <pt x="205" y="655" on="1"/>
        <pt x="298" y="655" on="1"/>
        <pt x="392" y="655" on="0"/>
        <pt x="516" y="620" on="0"/>
        <pt x="553" y="583" on="1"/>
        <pt x="582" y="554" on="0"/>
        <pt x="611" y="475" on="0"/>
        <pt x="611" y="425" on="1"/>
        <pt x="611" y="339" on="0"/>
        <pt x="553" y="192" on="0"/>
        <pt x="496" y="136" on="1"/>
        <pt x="428" y="68" on="0"/>
        <pt x="225" y="0" on="0"/>
        <pt x="92" y="0" on="1"/>
      </contour>
      <contour>
        <pt x="495" y="423" on="1"/>
        <pt x="495" y="499" on="0"/>
        <pt x="404" y="563" on="0"/>
        <pt x="297" y="563" on="1"/>
        <pt x="291" y="563" on="1"/>
        <pt x="157" y="95" on="1"/>
        <pt x="309" y="104" on="0"/>
        <pt x="495" y="287" on="0"/>
      </contour>
    </TTGlyph>
    <TTGlyph name="Dcaron" xMin="17" yMin="0" xMax="648" yMax="920">
      <component glyphName="D" x="0" y="0" flags="0x204"/>
      <component glyphName="uni030C.cap" x="278" y="0" flags="0x4"/>
    </TTGlyph>
    <TTGlyph name="Dcroat" xMin="39" yMin="0" xMax="610" yMax="655">
      <component glyphName="Eth" x="0" y="0" flags="0x204"/>
    </TTGlyph>
    <TTGlyph name="E" xMin="26" yMin="0" xMax="659" yMax="655">
      <contour>
        <pt x="26" y="0" on="1"/>
        <pt x="214" y="655" on="1"/>
        <pt x="659" y="655" on="1"/>
        <pt x="632" y="561" on="1"/>
        <pt x="300" y="561" on="1"/>
        <pt x="247" y="377" on="1"/>
        <pt x="535" y="377" on="1"/>
        <pt x="508" y="284" on="1"/>
        <pt x="221" y="284" on="1"/>
        <pt x="166" y="94" on="1"/>
        <pt x="502" y="94" on="1"/>
        <pt x="475" y="0" on="1"/>
      </contour>
    </TTGlyph>
    <TTGlyph name="Eacute" xMin="26" yMin="0" xMax="678" yMax="924">
      <component glyphName="E" x="0" y="0" flags="0x204"/>
      <component glyphName="uni0301.cap" x="321" y="0" flags="0x4"/>
    </TTGlyph>
    <TTGlyph name="Ebreve" xMin="26" yMin="0" xMax="699" yMax="918">
      <component glyphName="E" x="0" y="0" flags="0x204"/>
      <component glyphName="uni0306.cap" x="321" y="0" flags="0x4"/>
    </TTGlyph>
    <TTGlyph name="Ecaron" xMin="26" yMin="0" xMax="691" yMax="920">
      <component glyphName="E" x="0" y="0" flags="0x204"/>
      <component glyphName="uni030C.cap" x="321" y="0" flags="0x4"/>
    </TTGlyph>
    <TTGlyph name="Ecircumflex" xMin="26" yMin="0" xMax="665" yMax="920">
      <component glyphName="E" x="0" y="0" flags="0x204"/>
      <component glyphName="uni0302.cap" x="321" y="0" flags="0x4"/>
    </TTGlyph>
    <TTGlyph name="Edieresis" xMin="26" yMin="0" xMax="686" yMax="880">
      <component glyphName="E" x="0" y="0" flags="0x204"/>
      <component glyphName="uni0308.cap" x="321" y="0" flags="0x4"/>
    </TTGlyph>
    <TTGlyph name="Edotaccent" xMin="26" yMin="0" xMax="659" yMax="886">
      <component glyphName="E" x="0" y="0" flags="0x204"/>
      <component glyphName="uni0307.cap" x="321" y="0" flags="0x4"/>
    </TTGlyph>
    <TTGlyph name="Egrave" xMin="26" yMin="0" xMax="659" yMax="919">
      <component glyphName="E" x="0" y="0" flags="0x204"/>
      <component glyphName="uni0300.cap" x="321" y="0" flags="0x4"/>
    </TTGlyph>
    <TTGlyph name="Emacron" xMin="26" yMin="0" xMax="665" yMax="853">
      <component glyphName="E" x="0" y="0" flags="0x204"/>
      <component glyphName="uni0304.cap" x="321" y="0" flags="0x4"/>
    </TTGlyph>
    <TTGlyph name="Eng" xMin="16" yMin="-237" xMax="652" yMax="655">
      <contour>
        <pt x="256" y="495" on="1"/>
        <pt x="119" y="0" on="1"/>
        <pt x="16" y="0" on="1"/>
        <pt x="204" y="655" on="1"/>
        <pt x="324" y="655" on="1"/>
        <pt x="414" y="170" on="1"/>
        <pt x="548" y="655" on="1"/>
        <pt x="652" y="655" on="1"/>
        <pt x="457" y="-24" on="1"/>
        <pt x="425" y="-137" on="0"/>
        <pt x="319" y="-223" on="0"/>
        <pt x="206" y="-230" on="1"/>
        <pt x="89" y="-237" on="1"/>
        <pt x="89" y="-150" on="1"/>
        <pt x="212" y="-141" on="1"/>
        <pt x="273" y="-136" on="0"/>
        <pt x="338" y="-90" on="0"/>
        <pt x="355" y="-40" on="1"/>
      </contour>
    </TTGlyph>
    <TTGlyph name="Eogonek" xMin="26" yMin="-234" xMax="659" yMax="655">
      <contour>
        <pt x="233" y="-168" on="1"/>
        <pt x="233" y="-136" on="0"/>
        <pt x="293" y="-64" on="0"/>
        <pt x="370" y="0" on="1"/>
        <pt x="26" y="0" on="1"/>
        <pt x="214" y="655" on="1"/>
        <pt x="659" y="655" on="1"/>
        <pt x="632" y="561" on="1"/>
        <pt x="300" y="561" on="1"/>
        <pt x="247" y="377" on="1"/>
        <pt x="535" y="377" on="1"/>
        <pt x="508" y="284" on="1"/>
        <pt x="221" y="284" on="1"/>
        <pt x="166" y="94" on="1"/>
        <pt x="502" y="94" on="1"/>
        <pt x="475" y="0" on="1"/>
        <pt x="428" y="0" on="1"/>
        <pt x="376" y="-54" on="0"/>
        <pt x="332" y="-113" on="0"/>
        <pt x="332" y="-133" on="1"/>
        <pt x="332" y="-145" on="0"/>
        <pt x="350" y="-155" on="0"/>
        <pt x="374" y="-156" on="1"/>
        <pt x="433" y="-160" on="1"/>
        <pt x="404" y="-234" on="1"/>
        <pt x="330" y="-231" on="1"/>
        <pt x="279" y="-229" on="0"/>
        <pt x="233" y="-200" on="0"/>
      </contour>
    </TTGlyph>
    <TTGlyph name="Eth" xMin="39" yMin="0" xMax="610" yMax="655">
      <contour>
        <pt x="125" y="298" on="1"/>
        <pt x="44" y="298" on="1"/>
        <pt x="63" y="362" on="1"/>
        <pt x="143" y="362" on="1"/>
        <pt x="227" y="655" on="1"/>
        <pt x="316" y="655" on="1"/>
        <pt x="401" y="655" on="0"/>
        <pt x="516" y="620" on="0"/>
        <pt x="553" y="583" on="1"/>
        <pt x="581" y="554" on="0"/>
        <pt x="610" y="474" on="0"/>
        <pt x="610" y="425" on="1"/>
        <pt x="610" y="339" on="0"/>
        <pt x="552" y="192" on="0"/>
        <pt x="495" y="136" on="1"/>
        <pt x="427" y="68" on="0"/>
        <pt x="237" y="0" on="0"/>
        <pt x="114" y="0" on="1"/>
        <pt x="39" y="0" on="1"/>
      </contour>
      <contour>
        <pt x="360" y="362" on="1"/>
        <pt x="342" y="298" on="1"/>
        <pt x="237" y="298" on="1"/>
        <pt x="179" y="95" on="1"/>
        <pt x="321" y="106" on="0"/>
        <pt x="494" y="288" on="0"/>
        <pt x="494" y="423" on="1"/>
        <pt x="494" y="497" on="0"/>
        <pt x="416" y="563" on="0"/>
        <pt x="330" y="563" on="1"/>
        <pt x="313" y="563" on="1"/>
        <pt x="255" y="362" on="1"/>
      </contour>
    </TTGlyph>
    <TTGlyph name="Euro" xMin="32" yMin="-15" xMax="659" yMax="668">
      <contour>
        <pt x="123" y="216" on="1"/>
        <pt x="32" y="216" on="1"/>
        <pt x="52" y="283" on="1"/>
        <pt x="139" y="283" on="1"/>
        <pt x="164" y="372" on="1"/>
        <pt x="76" y="372" on="1"/>
        <pt x="96" y="439" on="1"/>
        <pt x="183" y="439" on="1"/>
        <pt x="217" y="549" on="0"/>
        <pt x="366" y="668" on="0"/>
        <pt x="469" y="668" on="1"/>
        <pt x="521" y="668" on="0"/>
        <pt x="607" y="652" on="0"/>
        <pt x="659" y="633" on="1"/>
        <pt x="628" y="539" on="1"/>
        <pt x="577" y="558" on="0"/>
        <pt x="501" y="575" on="0"/>
        <pt x="466" y="575" on="1"/>
        <pt x="405" y="575" on="0"/>
        <pt x="321" y="507" on="0"/>
        <pt x="295" y="436" on="1"/>
        <pt x="484" y="436" on="1"/>
        <pt x="466" y="372" on="1"/>
        <pt x="276" y="372" on="1"/>
        <pt x="251" y="283" on="1"/>
        <pt x="440" y="283" on="1"/>
        <pt x="422" y="219" on="1"/>
        <pt x="234" y="219" on="1"/>
        <pt x="231" y="203" on="0"/>
        <pt x="228" y="179" on="0"/>
        <pt x="228" y="168" on="1"/>
        <pt x="228" y="123" on="0"/>
        <pt x="279" y="78" on="0"/>
        <pt x="330" y="78" on="1"/>
        <pt x="366" y="78" on="0"/>
        <pt x="453" y="96" on="0"/>
        <pt x="509" y="115" on="1"/>
        <pt x="497" y="19" on="1"/>
        <pt x="448" y="1" on="0"/>
        <pt x="357" y="-15" on="0"/>
        <pt x="309" y="-15" on="1"/>
        <pt x="218" y="-15" on="0"/>
        <pt x="119" y="80" on="0"/>
        <pt x="119" y="166" on="1"/>
        <pt x="119" y="179" on="0"/>
        <pt x="121" y="204" on="0"/>
      </contour>
    </TTGlyph>
    <TTGlyph name="F" xMin="31" yMin="0" xMax="656" yMax="655">
      <contour>
        <pt x="31" y="0" on="1"/>
        <pt x="219" y="655" on="1"/>
        <pt x="656" y="655" on="1"/>
        <pt x="630" y="561" on="1"/>
        <pt x="305" y="561" on="1"/>
        <pt x="243" y="345" on="1"/>
        <pt x="536" y="345" on="1"/>
        <pt x="509" y="251" on="1"/>
        <pt x="216" y="251" on="1"/>
        <pt x="144" y="0" on="1"/>
      </contour>
    </TTGlyph>
    <TTGlyph name="G" xMin="57" yMin="-15" xMax="634" yMax="665">
      <contour>
        <pt x="634" y="653" on="1"/>
        <pt x="614" y="559" on="1"/>
        <pt x="586" y="565" on="0"/>
        <pt x="534" y="570" on="0"/>
        <pt x="505" y="570" on="1"/>
        <pt x="429" y="570" on="0"/>
        <pt x="306" y="521" on="0"/>
        <pt x="263" y="476" on="1"/>
        <pt x="220" y="430" on="0"/>
        <pt x="173" y="302" on="0"/>
        <pt x="173" y="223" on="1"/>
        <pt x="173" y="149" on="0"/>
        <pt x="248" y="79" on="0"/>
        <pt x="328" y="79" on="1"/>
        <pt x="345" y="79" on="0"/>
        <pt x="384" y="83" on="0"/>
        <pt x="403" y="86" on="1"/>
        <pt x="460" y="274" on="1"/>
        <pt x="323" y="274" on="1"/>
        <pt x="348" y="362" on="1"/>
        <pt x="593" y="362" on="1"/>
        <pt x="487" y="9" on="1"/>
        <pt x="440" y="-3" on="0"/>
        <pt x="355" y="-15" on="0"/>
        <pt x="309" y="-15" on="1"/>
        <pt x="184" y="-15" on="0"/>
        <pt x="57" y="105" on="0"/>
        <pt x="57" y="223" on="1"/>
        <pt x="57" y="317" on="0"/>
        <pt x="122" y="483" on="0"/>
        <pt x="182" y="543" on="1"/>
        <pt x="242" y="603" on="0"/>
        <pt x="405" y="665" on="0"/>
        <pt x="503" y="665" on="1"/>
        <pt x="532" y="665" on="0"/>
        <pt x="593" y="659" on="0"/>
      </contour>
    </TTGlyph>
    <TTGlyph name="Gbreve" xMin="57" yMin="-15" xMax="717" yMax="920">
      <component glyphName="G" x="0" y="0" flags="0x204"/>
      <component glyphName="uni0306.cap" x="339" y="2" flags="0x4"/>
    </TTGlyph>
    <TTGlyph name="Gcaron" xMin="57" yMin="-15" xMax="709" yMax="922">
      <component glyphName="G" x="0" y="0" flags="0x204"/>
      <component glyphName="uni030C.cap" x="339" y="2" flags="0x4"/>
    </TTGlyph>
    <TTGlyph name="Gcircumflex" xMin="57" yMin="-15" xMax="681" yMax="917">
      <component glyphName="G" x="0" y="0" flags="0x204"/>
      <component glyphName="uni0302.cap" x="337" y="-3" flags="0x4"/>
    </TTGlyph>
    <TTGlyph name="Gdotaccent" xMin="57" yMin="-15" xMax="634" yMax="888">
      <component glyphName="G" x="0" y="0" flags="0x204"/>
      <component glyphName="uni0307.cap" x="339" y="2" flags="0x4"/>
    </TTGlyph>
    <TTGlyph name="H" xMin="17" yMin="0" xMax="650" yMax="655">
      <contour>
        <pt x="17" y="0" on="1"/>
        <pt x="205" y="655" on="1"/>
        <pt x="317" y="655" on="1"/>
        <pt x="238" y="377" on="1"/>
        <pt x="458" y="377" on="1"/>
        <pt x="538" y="655" on="1"/>
        <pt x="650" y="655" on="1"/>
        <pt x="462" y="0" on="1"/>
        <pt x="350" y="0" on="1"/>
        <pt x="431" y="283" on="1"/>
        <pt x="211" y="283" on="1"/>
        <pt x="130" y="0" on="1"/>
      </contour>
    </TTGlyph>
    <TTGlyph name="Hbar" xMin="39" yMin="0" xMax="673" yMax="655">
      <contour>
        <pt x="173" y="468" on="1"/>
        <pt x="93" y="468" on="1"/>
        <pt x="111" y="530" on="1"/>
        <pt x="191" y="530" on="1"/>
        <pt x="227" y="655" on="1"/>
        <pt x="336" y="655" on="1"/>
        <pt x="299" y="527" on="1"/>
        <pt x="482" y="527" on="1"/>
        <pt x="519" y="655" on="1"/>
        <pt x="628" y="655" on="1"/>
        <pt x="592" y="530" on="1"/>
        <pt x="673" y="530" on="1"/>
        <pt x="655" y="468" on="1"/>
        <pt x="574" y="468" on="1"/>
        <pt x="440" y="0" on="1"/>
        <pt x="331" y="0" on="1"/>
        <pt x="402" y="248" on="1"/>
        <pt x="219" y="248" on="1"/>
        <pt x="148" y="0" on="1"/>
        <pt x="39" y="0" on="1"/>
      </contour>
      <contour>
        <pt x="283" y="471" on="1"/>
        <pt x="244" y="335" on="1"/>
        <pt x="427" y="335" on="1"/>
        <pt x="466" y="471" on="1"/>
      </contour>
    </TTGlyph>
    <TTGlyph name="Hcircumflex" xMin="17" yMin="0" xMax="650" yMax="920">
      <component glyphName="H" x="0" y="0" flags="0x204"/>
      <component glyphName="uni0302.cap" x="306" y="0" flags="0x4"/>
    </TTGlyph>
    <TTGlyph name="I" xMin="58" yMin="0" xMax="610" yMax="655">
      <contour>
        <pt x="58" y="0" on="1"/>
        <pt x="75" y="59" on="1"/>
        <pt x="203" y="85" on="1"/>
        <pt x="354" y="573" on="1"/>
        <pt x="225" y="596" on="1"/>
        <pt x="242" y="655" on="1"/>
        <pt x="610" y="655" on="1"/>
        <pt x="593" y="596" on="1"/>
        <pt x="465" y="570" on="1"/>
        <pt x="314" y="82" on="1"/>
        <pt x="443" y="59" on="1"/>
        <pt x="426" y="0" on="1"/>
      </contour>
    </TTGlyph>
    <TTGlyph name="Iacute" xMin="58" yMin="0" xMax="664" yMax="924">
      <component glyphName="I" x="0" y="0" flags="0x204"/>
      <component glyphName="uni0301.cap" x="307" y="0" flags="0x4"/>
    </TTGlyph>
    <TTGlyph name="Ibreve" xMin="58" yMin="0" xMax="685" yMax="918">
      <component glyphName="I" x="0" y="0" flags="0x204"/>
      <component glyphName="uni0306.cap" x="307" y="0" flags="0x4"/>
    </TTGlyph>
    <TTGlyph name="Icircumflex" xMin="58" yMin="0" xMax="650" yMax="920">
      <component glyphName="I" x="0" y="0" flags="0x204"/>
      <component glyphName="uni0302.cap" x="306" y="0" flags="0x4"/>
    </TTGlyph>
    <TTGlyph name="Idieresis" xMin="58" yMin="0" xMax="672" yMax="880">
      <component glyphName="I" x="0" y="0" flags="0x204"/>
      <component glyphName="uni0308.cap" x="307" y="0" flags="0x4"/>
    </TTGlyph>
    <TTGlyph name="Idotaccent" xMin="58" yMin="0" xMax="610" yMax="886">
      <component glyphName="I" x="0" y="0" flags="0x204"/>
      <component glyphName="uni0307.cap" x="307" y="0" flags="0x4"/>
    </TTGlyph>
    <TTGlyph name="Igrave" xMin="58" yMin="0" xMax="610" yMax="919">
      <component glyphName="I" x="0" y="0" flags="0x204"/>
      <component glyphName="uni0300.cap" x="307" y="0" flags="0x4"/>
    </TTGlyph>
    <TTGlyph name="Imacron" xMin="58" yMin="0" xMax="651" yMax="853">
      <component glyphName="I" x="0" y="0" flags="0x204"/>
      <component glyphName="uni0304.cap" x="307" y="0" flags="0x4"/>
    </TTGlyph>
    <TTGlyph name="Iogonek" xMin="58" yMin="-234" xMax="610" yMax="655">
      <contour>
        <pt x="58" y="0" on="1"/>
        <pt x="75" y="59" on="1"/>
        <pt x="203" y="85" on="1"/>
        <pt x="354" y="573" on="1"/>
        <pt x="225" y="596" on="1"/>
        <pt x="242" y="655" on="1"/>
        <pt x="610" y="655" on="1"/>
        <pt x="593" y="596" on="1"/>
        <pt x="465" y="570" on="1"/>
        <pt x="314" y="82" on="1"/>
        <pt x="443" y="59" on="1"/>
        <pt x="426" y="0" on="1"/>
        <pt x="271" y="0" on="1"/>
        <pt x="220" y="-53" on="0"/>
        <pt x="175" y="-113" on="0"/>
        <pt x="175" y="-133" on="1"/>
        <pt x="175" y="-144" on="0"/>
        <pt x="195" y="-155" on="0"/>
        <pt x="218" y="-156" on="1"/>
        <pt x="276" y="-160" on="1"/>
        <pt x="247" y="-234" on="1"/>
        <pt x="174" y="-231" on="1"/>
        <pt x="122" y="-228" on="0"/>
        <pt x="76" y="-199" on="0"/>
        <pt x="76" y="-168" on="1"/>
        <pt x="76" y="-136" on="0"/>
        <pt x="136" y="-64" on="0"/>
        <pt x="213" y="0" on="1"/>
      </contour>
    </TTGlyph>
    <TTGlyph name="Itilde" xMin="58" yMin="0" xMax="690" yMax="914">
      <component glyphName="I" x="0" y="0" flags="0x204"/>
      <component glyphName="uni0303.cap" x="307" y="0" flags="0x4"/>
    </TTGlyph>
    <TTGlyph name="J" xMin="22" yMin="-14" xMax="648" yMax="655">
      <contour>
        <pt x="280" y="-14" on="1"/>
        <pt x="207" y="-14" on="0"/>
        <pt x="96" y="53" on="0"/>
        <pt x="22" y="139" on="1"/>
        <pt x="98" y="209" on="1"/>
        <pt x="158" y="142" on="0"/>
        <pt x="236" y="88" on="0"/>
        <pt x="278" y="88" on="1"/>
        <pt x="327" y="88" on="0"/>
        <pt x="389" y="147" on="0"/>
        <pt x="407" y="208" on="1"/>
        <pt x="535" y="655" on="1"/>
        <pt x="648" y="655" on="1"/>
        <pt x="517" y="195" on="1"/>
        <pt x="486" y="86" on="0"/>
        <pt x="371" y="-14" on="0"/>
      </contour>
    </TTGlyph>
    <TTGlyph name="Jcircumflex" xMin="22" yMin="-14" xMax="811" yMax="910">
      <component glyphName="J" x="0" y="0" flags="0x204"/>
      <component glyphName="uni0302.cap" x="467" y="-10" flags="0x4"/>
    </TTGlyph>
    <TTGlyph name="K" xMin="20" yMin="0" xMax="711" yMax="655">
      <contour>
        <pt x="208" y="655" on="1"/>
        <pt x="321" y="655" on="1"/>
        <pt x="231" y="340" on="1"/>
        <pt x="567" y="655" on="1"/>
        <pt x="711" y="655" on="1"/>
        <pt x="711" y="653" on="1"/>
        <pt x="351" y="325" on="1"/>
        <pt x="529" y="2" on="1"/>
        <pt x="529" y="0" on="1"/>
        <pt x="400" y="0" on="1"/>
        <pt x="224" y="318" on="1"/>
        <pt x="133" y="0" on="1"/>
        <pt x="20" y="0" on="1"/>
      </contour>
    </TTGlyph>
    <TTGlyph name="L" xMin="26" yMin="0" xMax="507" yMax="655">
      <contour>
        <pt x="26" y="0" on="1"/>
        <pt x="214" y="655" on="1"/>
        <pt x="327" y="655" on="1"/>
        <pt x="166" y="93" on="1"/>
        <pt x="507" y="93" on="1"/>
        <pt x="480" y="0" on="1"/>
      </contour>
    </TTGlyph>
    <TTGlyph name="Lacute" xMin="26" yMin="0" xMax="510" yMax="924">
      <component glyphName="L" x="0" y="0" flags="0x204"/>
      <component glyphName="uni0301.cap" x="153" y="0" flags="0x4"/>
    </TTGlyph>
    <TTGlyph name="Lcaron" xMin="26" yMin="0" xMax="573" yMax="655">
      <component glyphName="L" x="0" y="0" flags="0x204"/>
      <component glyphName="uni0315" x="336" y="-55" flags="0x4"/>
    </TTGlyph>
    <TTGlyph name="Ldot" xMin="26" yMin="0" xMax="580" yMax="655">
      <component glyphName="middotcat.cap" x="213" y="0" flags="0x4"/>
      <component glyphName="L" x="0" y="0" flags="0x204"/>
    </TTGlyph>
    <TTGlyph name="Lslash" xMin="24" yMin="0" xMax="507" yMax="655">
      <contour>
        <pt x="121" y="246" on="1"/>
        <pt x="24" y="190" on="1"/>
        <pt x="48" y="271" on="1"/>
        <pt x="144" y="327" on="1"/>
        <pt x="238" y="655" on="1"/>
        <pt x="351" y="655" on="1"/>
        <pt x="276" y="395" on="1"/>
        <pt x="504" y="528" on="1"/>
        <pt x="481" y="446" on="1"/>
        <pt x="253" y="313" on="1"/>
        <pt x="190" y="93" on="1"/>
        <pt x="507" y="93" on="1"/>
        <pt x="480" y="0" on="1"/>
        <pt x="50" y="0" on="1"/>
      </contour>
    </TTGlyph>
    <TTGlyph name="M" xMin="-10" yMin="0" xMax="650" yMax="655">
      <contour>
        <pt x="531" y="655" on="1"/>
        <pt x="650" y="655" on="1"/>
        <pt x="489" y="0" on="1"/>
        <pt x="384" y="0" on="1"/>
        <pt x="516" y="513" on="1"/>
        <pt x="299" y="173" on="1"/>
        <pt x="278" y="173" on="1"/>
        <pt x="257" y="511" on="1"/>
        <pt x="94" y="0" on="1"/>
        <pt x="-10" y="0" on="1"/>
        <pt x="208" y="655" on="1"/>
        <pt x="320" y="655" on="1"/>
        <pt x="338" y="357" on="1"/>
      </contour>
    </TTGlyph>
    <TTGlyph name="N" xMin="16" yMin="0" xMax="652" yMax="655">
      <contour>
        <pt x="256" y="495" on="1"/>
        <pt x="119" y="0" on="1"/>
        <pt x="16" y="0" on="1"/>
        <pt x="203" y="655" on="1"/>
        <pt x="324" y="655" on="1"/>
        <pt x="414" y="168" on="1"/>
        <pt x="548" y="655" on="1"/>
        <pt x="652" y="655" on="1"/>
        <pt x="464" y="0" on="1"/>
        <pt x="347" y="0" on="1"/>
      </contour>
    </TTGlyph>
    <TTGlyph name="Nacute" xMin="16" yMin="0" xMax="667" yMax="919">
      <component glyphName="N" x="0" y="0" flags="0x204"/>
      <component glyphName="uni0301.cap" x="310" y="-5" flags="0x4"/>
    </TTGlyph>
    <TTGlyph name="Ncaron" xMin="16" yMin="0" xMax="680" yMax="915">
      <component glyphName="N" x="0" y="0" flags="0x204"/>
      <component glyphName="uni030C.cap" x="310" y="-5" flags="0x4"/>
    </TTGlyph>
    <TTGlyph name="Ntilde" xMin="16" yMin="0" xMax="694" yMax="914">
      <component glyphName="N" x="0" y="0" flags="0x204"/>
      <component glyphName="uni0303.cap" x="311" y="0" flags="0x4"/>
    </TTGlyph>
    <TTGlyph name="O" xMin="57" yMin="-15" xMax="617" yMax="670">
      <contour>
        <pt x="80" y="364" on="1"/>
        <pt x="122" y="509" on="0"/>
        <pt x="294" y="670" on="0"/>
        <pt x="407" y="670" on="1"/>
        <pt x="509" y="670" on="0"/>
        <pt x="617" y="561" on="0"/>
        <pt x="617" y="458" on="1"/>
        <pt x="617" y="412" on="0"/>
        <pt x="606" y="339" on="0"/>
        <pt x="593" y="291" on="1"/>
        <pt x="551" y="146" on="0"/>
        <pt x="379" y="-15" on="0"/>
        <pt x="266" y="-15" on="1"/>
        <pt x="164" y="-15" on="0"/>
        <pt x="57" y="94" on="0"/>
        <pt x="57" y="197" on="1"/>
        <pt x="57" y="245" on="0"/>
        <pt x="67" y="318" on="0"/>
      </contour>
      <contour>
        <pt x="172" y="200" on="1"/>
        <pt x="172" y="141" on="0"/>
        <pt x="223" y="79" on="0"/>
        <pt x="273" y="79" on="1"/>
        <pt x="340" y="79" on="0"/>
        <pt x="446" y="194" on="0"/>
        <pt x="477" y="302" on="1"/>
        <pt x="490" y="346" on="0"/>
        <pt x="502" y="422" on="0"/>
        <pt x="502" y="455" on="1"/>
        <pt x="502" y="514" on="0"/>
        <pt x="450" y="576" on="0"/>
        <pt x="400" y="576" on="1"/>
        <pt x="333" y="576" on="0"/>
        <pt x="228" y="461" on="0"/>
        <pt x="196" y="353" on="1"/>
        <pt x="184" y="311" on="0"/>
        <pt x="172" y="235" on="0"/>
      </contour>
    </TTGlyph>
    <TTGlyph name="OE" xMin="30" yMin="0" xMax="702" yMax="655">
      <contour>
        <pt x="514" y="0" on="1"/>
        <pt x="233" y="0" on="1"/>
        <pt x="133" y="0" on="0"/>
        <pt x="30" y="102" on="0"/>
        <pt x="30" y="200" on="1"/>
        <pt x="30" y="289" on="0"/>
        <pt x="104" y="505" on="0"/>
        <pt x="157" y="558" on="1"/>
        <pt x="209" y="610" on="0"/>
        <pt x="341" y="655" on="0"/>
        <pt x="444" y="655" on="1"/>
        <pt x="702" y="655" on="1"/>
        <pt x="676" y="566" on="1"/>
        <pt x="496" y="566" on="1"/>
        <pt x="441" y="374" on="1"/>
        <pt x="602" y="374" on="1"/>
        <pt x="577" y="287" on="1"/>
        <pt x="416" y="287" on="1"/>
        <pt x="360" y="89" on="1"/>
        <pt x="540" y="89" on="1"/>
      </contour>
      <contour>
        <pt x="250" y="511" on="1"/>
        <pt x="206" y="467" on="0"/>
        <pt x="138" y="269" on="0"/>
        <pt x="138" y="198" on="1"/>
        <pt x="138" y="137" on="0"/>
        <pt x="190" y="84" on="0"/>
        <pt x="251" y="84" on="1"/>
        <pt x="251" y="84" on="1"/>
        <pt x="391" y="570" on="1"/>
        <pt x="345" y="567" on="0"/>
        <pt x="278" y="539" on="0"/>
      </contour>
    </TTGlyph>
    <TTGlyph name="Oacute" xMin="57" yMin="-15" xMax="661" yMax="929">
      <component glyphName="O" x="0" y="0" flags="0x204"/>
      <component glyphName="uni0301.cap" x="304" y="5" flags="0x4"/>
    </TTGlyph>
    <TTGlyph name="Obreve" xMin="57" yMin="-15" xMax="682" yMax="923">
      <component glyphName="O" x="0" y="0" flags="0x204"/>
      <component glyphName="uni0306.cap" x="304" y="5" flags="0x4"/>
    </TTGlyph>
    <TTGlyph name="Ocircumflex" xMin="57" yMin="-15" xMax="646" yMax="920">
      <component glyphName="O" x="0" y="0" flags="0x204"/>
      <component glyphName="uni0302.cap" x="302" y="0" flags="0x4"/>
    </TTGlyph>
    <TTGlyph name="Odieresis" xMin="57" yMin="-15" xMax="669" yMax="885">
      <component glyphName="O" x="0" y="0" flags="0x204"/>
      <component glyphName="uni0308.cap" x="304" y="5" flags="0x4"/>
    </TTGlyph>
    <TTGlyph name="Ograve" xMin="57" yMin="-15" xMax="617" yMax="924">
      <component glyphName="O" x="0" y="0" flags="0x204"/>
      <component glyphName="uni0300.cap" x="304" y="5" flags="0x4"/>
    </TTGlyph>
    <TTGlyph name="Ohorn" xMin="57" yMin="-15" xMax="771" yMax="768">
      <contour>
        <pt x="80" y="357" on="1"/>
        <pt x="120" y="498" on="0"/>
        <pt x="292" y="655" on="0"/>
        <pt x="405" y="655" on="1"/>
        <pt x="527" y="655" on="1"/>
        <pt x="591" y="655" on="0"/>
        <pt x="646" y="697" on="0"/>
        <pt x="669" y="768" on="1"/>
        <pt x="771" y="768" on="1"/>
        <pt x="740" y="661" on="0"/>
        <pt x="666" y="590" on="0"/>
        <pt x="588" y="590" on="1"/>
        <pt x="578" y="590" on="0"/>
        <pt x="559" y="592" on="0"/>
        <pt x="549" y="594" on="1"/>
        <pt x="544" y="589" on="1"/>
        <pt x="582" y="563" on="0"/>
        <pt x="617" y="490" on="0"/>
        <pt x="617" y="440" on="1"/>
        <pt x="617" y="398" on="0"/>
        <pt x="607" y="336" on="0"/>
        <pt x="593" y="284" on="1"/>
        <pt x="552" y="143" on="0"/>
        <pt x="379" y="-15" on="0"/>
        <pt x="266" y="-15" on="1"/>
        <pt x="165" y="-15" on="0"/>
        <pt x="57" y="91" on="0"/>
        <pt x="57" y="192" on="1"/>
        <pt x="57" y="240" on="0"/>
        <pt x="68" y="312" on="0"/>
      </contour>
      <contour>
        <pt x="172" y="195" on="1"/>
        <pt x="172" y="138" on="0"/>
        <pt x="223" y="79" on="0"/>
        <pt x="273" y="79" on="1"/>
        <pt x="341" y="79" on="0"/>
        <pt x="447" y="191" on="0"/>
        <pt x="477" y="295" on="1"/>
        <pt x="490" y="338" on="0"/>
        <pt x="502" y="414" on="0"/>
        <pt x="502" y="450" on="1"/>
        <pt x="502" y="505" on="0"/>
        <pt x="449" y="561" on="0"/>
        <pt x="398" y="561" on="1"/>
        <pt x="331" y="561" on="0"/>
        <pt x="226" y="450" on="0"/>
        <pt x="196" y="346" on="1"/>
        <pt x="184" y="302" on="0"/>
        <pt x="172" y="227" on="0"/>
      </contour>
    </TTGlyph>
    <TTGlyph name="Ohungarumlaut" xMin="57" yMin="-15" xMax="742" yMax="927">
      <component glyphName="O" x="0" y="0" flags="0x204"/>
      <component glyphName="uni030B.cap" x="304" y="5" flags="0x4"/>
    </TTGlyph>
    <TTGlyph name="Omacron" xMin="57" yMin="-15" xMax="648" yMax="858">
      <component glyphName="O" x="0" y="0" flags="0x204"/>
      <component glyphName="uni0304.cap" x="304" y="5" flags="0x4"/>
    </TTGlyph>
    <TTGlyph name="Oslash" xMin="-55" yMin="-71" xMax="723" yMax="726">
      <contour>
        <pt x="80" y="364" on="1"/>
        <pt x="122" y="509" on="0"/>
        <pt x="294" y="670" on="0"/>
        <pt x="407" y="670" on="1"/>
        <pt x="448" y="670" on="0"/>
        <pt x="517" y="649" on="0"/>
        <pt x="543" y="629" on="1"/>
        <pt x="622" y="726" on="1"/>
        <pt x="723" y="726" on="1"/>
        <pt x="588" y="578" on="1"/>
        <pt x="602" y="553" on="0"/>
        <pt x="617" y="493" on="0"/>
        <pt x="617" y="458" on="1"/>
        <pt x="617" y="412" on="0"/>
        <pt x="606" y="339" on="0"/>
        <pt x="593" y="291" on="1"/>
        <pt x="551" y="146" on="0"/>
        <pt x="379" y="-15" on="0"/>
        <pt x="266" y="-15" on="1"/>
        <pt x="225" y="-15" on="0"/>
        <pt x="154" y="8" on="0"/>
        <pt x="127" y="30" on="1"/>
        <pt x="44" y="-71" on="1"/>
        <pt x="-55" y="-71" on="1"/>
        <pt x="83" y="83" on="1"/>
        <pt x="70" y="106" on="0"/>
        <pt x="57" y="164" on="0"/>
        <pt x="57" y="197" on="1"/>
        <pt x="57" y="245" on="0"/>
        <pt x="67" y="318" on="0"/>
      </contour>
      <contour>
        <pt x="172" y="200" on="1"/>
        <pt x="172" y="141" on="0"/>
        <pt x="223" y="79" on="0"/>
        <pt x="273" y="79" on="1"/>
        <pt x="340" y="79" on="0"/>
        <pt x="446" y="194" on="0"/>
        <pt x="477" y="302" on="1"/>
        <pt x="490" y="346" on="0"/>
        <pt x="502" y="422" on="0"/>
        <pt x="502" y="455" on="1"/>
        <pt x="502" y="514" on="0"/>
        <pt x="450" y="576" on="0"/>
        <pt x="400" y="576" on="1"/>
        <pt x="333" y="576" on="0"/>
        <pt x="228" y="461" on="0"/>
        <pt x="196" y="353" on="1"/>
        <pt x="184" y="311" on="0"/>
        <pt x="172" y="235" on="0"/>
      </contour>
    </TTGlyph>
    <TTGlyph name="Otilde" xMin="57" yMin="-15" xMax="687" yMax="919">
      <component glyphName="O" x="0" y="0" flags="0x204"/>
      <component glyphName="uni0303.cap" x="304" y="5" flags="0x4"/>
    </TTGlyph>
    <TTGlyph name="P" xMin="20" yMin="0" xMax="639" yMax="655">
      <contour>
        <pt x="20" y="0" on="1"/>
        <pt x="208" y="655" on="1"/>
        <pt x="438" y="655" on="1"/>
        <pt x="534" y="655" on="0"/>
        <pt x="639" y="562" on="0"/>
        <pt x="639" y="479" on="1"/>
        <pt x="639" y="426" on="0"/>
        <pt x="604" y="339" on="0"/>
        <pt x="571" y="306" on="1"/>
        <pt x="529" y="263" on="0"/>
        <pt x="403" y="222" on="0"/>
        <pt x="313" y="222" on="1"/>
        <pt x="197" y="222" on="1"/>
        <pt x="133" y="0" on="1"/>
      </contour>
      <contour>
        <pt x="519" y="474" on="1"/>
        <pt x="519" y="519" on="0"/>
        <pt x="468" y="561" on="0"/>
        <pt x="413" y="561" on="1"/>
        <pt x="294" y="561" on="1"/>
        <pt x="223" y="313" on="1"/>
        <pt x="319" y="313" on="1"/>
        <pt x="413" y="313" on="0"/>
        <pt x="519" y="399" on="0"/>
      </contour>
    </TTGlyph>
    <TTGlyph name="Q" xMin="57" yMin="-173" xMax="617" yMax="670">
      <contour>
        <pt x="435" y="45" on="1"/>
        <pt x="535" y="-121" on="1"/>
        <pt x="413" y="-173" on="1"/>
        <pt x="348" y="2" on="1"/>
        <pt x="328" y="-3" on="0"/>
        <pt x="286" y="-9" on="0"/>
        <pt x="266" y="-9" on="1"/>
        <pt x="165" y="-9" on="0"/>
        <pt x="57" y="97" on="0"/>
        <pt x="57" y="197" on="1"/>
        <pt x="57" y="245" on="0"/>
        <pt x="67" y="318" on="0"/>
        <pt x="80" y="364" on="1"/>
        <pt x="122" y="509" on="0"/>
        <pt x="294" y="670" on="0"/>
        <pt x="407" y="670" on="1"/>
        <pt x="509" y="670" on="0"/>
        <pt x="617" y="561" on="0"/>
        <pt x="617" y="458" on="1"/>
        <pt x="617" y="412" on="0"/>
        <pt x="606" y="339" on="0"/>
        <pt x="593" y="291" on="1"/>
        <pt x="569" y="208" on="0"/>
        <pt x="489" y="83" on="0"/>
      </contour>
      <contour>
        <pt x="172" y="200" on="1"/>
        <pt x="172" y="141" on="0"/>
        <pt x="223" y="79" on="0"/>
        <pt x="273" y="79" on="1"/>
        <pt x="340" y="79" on="0"/>
        <pt x="446" y="194" on="0"/>
        <pt x="477" y="302" on="1"/>
        <pt x="490" y="346" on="0"/>
        <pt x="502" y="422" on="0"/>
        <pt x="502" y="455" on="1"/>
        <pt x="502" y="514" on="0"/>
        <pt x="450" y="576" on="0"/>
        <pt x="400" y="576" on="1"/>
        <pt x="333" y="576" on="0"/>
        <pt x="228" y="461" on="0"/>
        <pt x="196" y="353" on="1"/>
        <pt x="184" y="311" on="0"/>
        <pt x="172" y="235" on="0"/>
      </contour>
    </TTGlyph>
    <TTGlyph name="R" xMin="20" yMin="0" xMax="625" yMax="655">
      <contour>
        <pt x="447" y="145" on="1"/>
        <pt x="524" y="4" on="1"/>
        <pt x="523" y="0" on="1"/>
        <pt x="396" y="0" on="1"/>
        <pt x="311" y="168" on="1"/>
        <pt x="287" y="216" on="0"/>
        <pt x="244" y="249" on="0"/>
        <pt x="205" y="253" on="1"/>
        <pt x="133" y="0" on="1"/>
        <pt x="20" y="0" on="1"/>
        <pt x="208" y="655" on="1"/>
        <pt x="435" y="655" on="1"/>
        <pt x="526" y="655" on="0"/>
        <pt x="625" y="578" on="0"/>
        <pt x="625" y="508" on="1"/>
        <pt x="625" y="402" on="0"/>
        <pt x="486" y="285" on="0"/>
        <pt x="348" y="275" on="1"/>
        <pt x="348" y="269" on="1"/>
        <pt x="381" y="246" on="0"/>
        <pt x="422" y="193" on="0"/>
      </contour>
      <contour>
        <pt x="505" y="494" on="1"/>
        <pt x="505" y="530" on="0"/>
        <pt x="459" y="565" on="0"/>
        <pt x="412" y="565" on="1"/>
        <pt x="294" y="565" on="1"/>
        <pt x="229" y="336" on="1"/>
        <pt x="296" y="340" on="1"/>
        <pt x="401" y="347" on="0"/>
        <pt x="505" y="423" on="0"/>
      </contour>
    </TTGlyph>
    <TTGlyph name="Racute" xMin="20" yMin="0" xMax="666" yMax="924">
      <component glyphName="R" x="0" y="0" flags="0x204"/>
      <component glyphName="uni0301.cap" x="309" y="0" flags="0x4"/>
    </TTGlyph>
    <TTGlyph name="Rcaron" xMin="20" yMin="0" xMax="679" yMax="920">
      <component glyphName="R" x="0" y="0" flags="0x204"/>
      <component glyphName="uni030C.cap" x="309" y="0" flags="0x4"/>
    </TTGlyph>
    <TTGlyph name="S" xMin="19" yMin="-13" xMax="625" yMax="666">
      <contour>
        <pt x="301" y="83" on="1"/>
        <pt x="363" y="83" on="0"/>
        <pt x="428" y="128" on="0"/>
        <pt x="428" y="172" on="1"/>
        <pt x="428" y="203" on="0"/>
        <pt x="389" y="246" on="0"/>
        <pt x="341" y="273" on="1"/>
        <pt x="274" y="309" on="1"/>
        <pt x="209" y="344" on="0"/>
        <pt x="154" y="423" on="0"/>
        <pt x="154" y="480" on="1"/>
        <pt x="154" y="563" on="0"/>
        <pt x="285" y="666" on="0"/>
        <pt x="395" y="666" on="1"/>
        <pt x="449" y="666" on="0"/>
        <pt x="552" y="647" on="0"/>
        <pt x="625" y="623" on="1"/>
        <pt x="596" y="527" on="1"/>
        <pt x="533" y="549" on="0"/>
        <pt x="436" y="570" on="0"/>
        <pt x="392" y="570" on="1"/>
        <pt x="331" y="570" on="0"/>
        <pt x="267" y="526" on="0"/>
        <pt x="267" y="486" on="1"/>
        <pt x="267" y="459" on="0"/>
        <pt x="300" y="419" on="0"/>
        <pt x="338" y="398" on="1"/>
        <pt x="405" y="361" on="1"/>
        <pt x="483" y="318" on="0"/>
        <pt x="541" y="244" on="0"/>
        <pt x="541" y="183" on="1"/>
        <pt x="541" y="92" on="0"/>
        <pt x="413" y="-13" on="0"/>
        <pt x="301" y="-13" on="1"/>
        <pt x="232" y="-13" on="0"/>
        <pt x="97" y="17" on="0"/>
        <pt x="19" y="50" on="1"/>
        <pt x="54" y="147" on="1"/>
        <pt x="132" y="114" on="0"/>
        <pt x="251" y="83" on="0"/>
      </contour>
    </TTGlyph>
    <TTGlyph name="Sacute" xMin="19" yMin="-13" xMax="676" yMax="929">
      <component glyphName="S" x="0" y="0" flags="0x204"/>
      <component glyphName="uni0301.cap" x="319" y="5" flags="0x4"/>
    </TTGlyph>
    <TTGlyph name="Scaron" xMin="19" yMin="-13" xMax="689" yMax="925">
      <component glyphName="S" x="0" y="0" flags="0x204"/>
      <component glyphName="uni030C.cap" x="319" y="5" flags="0x4"/>
    </TTGlyph>
    <TTGlyph name="Scircumflex" xMin="19" yMin="-13" xMax="661" yMax="920">
      <component glyphName="S" x="0" y="0" flags="0x204"/>
      <component glyphName="uni0302.cap" x="317" y="0" flags="0x4"/>
    </TTGlyph>
    <TTGlyph name="T" xMin="135" yMin="0" xMax="686" yMax="655">
      <contour>
        <pt x="341" y="561" on="1"/>
        <pt x="135" y="561" on="1"/>
        <pt x="163" y="655" on="1"/>
        <pt x="686" y="655" on="1"/>
        <pt x="658" y="561" on="1"/>
        <pt x="454" y="561" on="1"/>
        <pt x="293" y="0" on="1"/>
        <pt x="180" y="0" on="1"/>
      </contour>
    </TTGlyph>
    <TTGlyph name="Tbar" xMin="123" yMin="0" xMax="686" yMax="655">
      <contour>
        <pt x="260" y="279" on="1"/>
        <pt x="123" y="279" on="1"/>
        <pt x="141" y="343" on="1"/>
        <pt x="278" y="343" on="1"/>
        <pt x="341" y="561" on="1"/>
        <pt x="135" y="561" on="1"/>
        <pt x="163" y="655" on="1"/>
        <pt x="686" y="655" on="1"/>
        <pt x="658" y="561" on="1"/>
        <pt x="454" y="561" on="1"/>
        <pt x="391" y="343" on="1"/>
        <pt x="534" y="343" on="1"/>
        <pt x="516" y="279" on="1"/>
        <pt x="373" y="279" on="1"/>
        <pt x="293" y="0" on="1"/>
        <pt x="180" y="0" on="1"/>
      </contour>
    </TTGlyph>
    <TTGlyph name="Tcaron" xMin="135" yMin="0" xMax="686" yMax="920">
      <component glyphName="T" x="0" y="0" flags="0x204"/>
      <component glyphName="uni030C.cap" x="302" y="0" flags="0x4"/>
    </TTGlyph>
    <TTGlyph name="Thorn" xMin="20" yMin="0" xMax="606" yMax="655">
      <contour>
        <pt x="20" y="0" on="1"/>
        <pt x="208" y="655" on="1"/>
        <pt x="321" y="655" on="1"/>
        <pt x="281" y="516" on="1"/>
        <pt x="420" y="516" on="1"/>
        <pt x="508" y="516" on="0"/>
        <pt x="606" y="433" on="0"/>
        <pt x="606" y="359" on="1"/>
        <pt x="606" y="316" on="0"/>
        <pt x="576" y="239" on="0"/>
        <pt x="548" y="211" on="1"/>
        <pt x="510" y="173" on="0"/>
        <pt x="392" y="138" on="0"/>
        <pt x="305" y="138" on="1"/>
        <pt x="173" y="138" on="1"/>
        <pt x="133" y="0" on="1"/>
      </contour>
      <contour>
        <pt x="489" y="355" on="1"/>
        <pt x="489" y="389" on="0"/>
        <pt x="444" y="422" on="0"/>
        <pt x="399" y="422" on="1"/>
        <pt x="254" y="422" on="1"/>
        <pt x="199" y="230" on="1"/>
        <pt x="336" y="230" on="1"/>
        <pt x="408" y="230" on="0"/>
        <pt x="489" y="298" on="0"/>
      </contour>
    </TTGlyph>
    <TTGlyph name="U" xMin="64" yMin="-15" xMax="662" yMax="655">
      <contour>
        <pt x="282" y="87" on="1"/>
        <pt x="336" y="87" on="0"/>
        <pt x="405" y="150" on="0"/>
        <pt x="423" y="215" on="1"/>
        <pt x="550" y="655" on="1"/>
        <pt x="662" y="655" on="1"/>
        <pt x="533" y="206" on="1"/>
        <pt x="500" y="91" on="0"/>
        <pt x="372" y="-15" on="0"/>
        <pt x="268" y="-15" on="1"/>
        <pt x="169" y="-15" on="0"/>
        <pt x="64" y="78" on="0"/>
        <pt x="64" y="167" on="1"/>
        <pt x="64" y="190" on="0"/>
        <pt x="75" y="247" on="0"/>
        <pt x="88" y="290" on="1"/>
        <pt x="193" y="655" on="1"/>
        <pt x="306" y="655" on="1"/>
        <pt x="190" y="249" on="1"/>
        <pt x="184" y="229" on="0"/>
        <pt x="178" y="195" on="0"/>
        <pt x="178" y="178" on="1"/>
        <pt x="178" y="134" on="0"/>
        <pt x="232" y="87" on="0"/>
      </contour>
    </TTGlyph>
    <TTGlyph name="Uacute" xMin="64" yMin="-15" xMax="662" yMax="919">
      <component glyphName="U" x="0" y="0" flags="0x204"/>
      <component glyphName="uni0301.cap" x="305" y="-5" flags="0x4"/>
    </TTGlyph>
    <TTGlyph name="Ubreve" xMin="64" yMin="-15" xMax="683" yMax="913">
      <component glyphName="U" x="0" y="0" flags="0x204"/>
      <component glyphName="uni0306.cap" x="305" y="-5" flags="0x4"/>
    </TTGlyph>
    <TTGlyph name="Ucircumflex" xMin="64" yMin="-15" xMax="662" yMax="920">
      <component glyphName="U" x="0" y="0" flags="0x204"/>
      <component glyphName="uni0302.cap" x="306" y="0" flags="0x4"/>
    </TTGlyph>
    <TTGlyph name="Udieresis" xMin="64" yMin="-15" xMax="671" yMax="880">
      <component glyphName="U" x="0" y="0" flags="0x204"/>
      <component glyphName="uni0308.cap" x="306" y="0" flags="0x4"/>
    </TTGlyph>
    <TTGlyph name="Ugrave" xMin="64" yMin="-15" xMax="662" yMax="914">
      <component glyphName="U" x="0" y="0" flags="0x204"/>
      <component glyphName="uni0300.cap" x="305" y="-5" flags="0x4"/>
    </TTGlyph>
    <TTGlyph name="Uhorn" xMin="64" yMin="-15" xMax="833" yMax="768">
      <contour>
        <pt x="282" y="87" on="1"/>
        <pt x="336" y="87" on="0"/>
        <pt x="405" y="150" on="0"/>
        <pt x="423" y="215" on="1"/>
        <pt x="550" y="655" on="1"/>
        <pt x="596" y="655" on="1"/>
        <pt x="659" y="655" on="0"/>
        <pt x="707" y="692" on="0"/>
        <pt x="731" y="768" on="1"/>
        <pt x="833" y="768" on="1"/>
        <pt x="803" y="664" on="0"/>
        <pt x="724" y="588" on="0"/>
        <pt x="643" y="588" on="1"/>
        <pt x="533" y="206" on="1"/>
        <pt x="500" y="91" on="0"/>
        <pt x="372" y="-15" on="0"/>
        <pt x="268" y="-15" on="1"/>
        <pt x="169" y="-15" on="0"/>
        <pt x="64" y="78" on="0"/>
        <pt x="64" y="167" on="1"/>
        <pt x="64" y="190" on="0"/>
        <pt x="75" y="247" on="0"/>
        <pt x="88" y="290" on="1"/>
        <pt x="193" y="655" on="1"/>
        <pt x="306" y="655" on="1"/>
        <pt x="190" y="249" on="1"/>
        <pt x="184" y="226" on="0"/>
        <pt x="178" y="192" on="0"/>
        <pt x="178" y="178" on="1"/>
        <pt x="178" y="134" on="0"/>
        <pt x="232" y="87" on="0"/>
      </contour>
    </TTGlyph>
    <TTGlyph name="Uhungarumlaut" xMin="64" yMin="-15" xMax="744" yMax="922">
      <component glyphName="U" x="0" y="0" flags="0x204"/>
      <component glyphName="uni030B.cap" x="306" y="0" flags="0x4"/>
    </TTGlyph>
    <TTGlyph name="Umacron" xMin="64" yMin="-15" xMax="662" yMax="853">
      <component glyphName="U" x="0" y="0" flags="0x204"/>
      <component glyphName="uni0304.cap" x="306" y="0" flags="0x4"/>
    </TTGlyph>
    <TTGlyph name="Uogonek" xMin="64" yMin="-239" xMax="662" yMax="655">
      <contour>
        <pt x="84" y="-173" on="1"/>
        <pt x="84" y="-142" on="0"/>
        <pt x="142" y="-72" on="0"/>
        <pt x="214" y="-11" on="1"/>
        <pt x="141" y="0" on="0"/>
        <pt x="64" y="91" on="0"/>
        <pt x="64" y="167" on="1"/>
        <pt x="64" y="190" on="0"/>
        <pt x="75" y="247" on="0"/>
        <pt x="88" y="290" on="1"/>
        <pt x="193" y="655" on="1"/>
        <pt x="306" y="655" on="1"/>
        <pt x="190" y="249" on="1"/>
        <pt x="184" y="229" on="0"/>
        <pt x="178" y="195" on="0"/>
        <pt x="178" y="178" on="1"/>
        <pt x="178" y="134" on="0"/>
        <pt x="232" y="87" on="0"/>
        <pt x="282" y="87" on="1"/>
        <pt x="336" y="87" on="0"/>
        <pt x="405" y="150" on="0"/>
        <pt x="423" y="215" on="1"/>
        <pt x="550" y="655" on="1"/>
        <pt x="662" y="655" on="1"/>
        <pt x="533" y="206" on="1"/>
        <pt x="500" y="92" on="0"/>
        <pt x="373" y="-15" on="0"/>
        <pt x="271" y="-15" on="1"/>
        <pt x="224" y="-65" on="0"/>
        <pt x="184" y="-119" on="0"/>
        <pt x="184" y="-138" on="1"/>
        <pt x="184" y="-150" on="0"/>
        <pt x="202" y="-160" on="0"/>
        <pt x="226" y="-161" on="1"/>
        <pt x="284" y="-165" on="1"/>
        <pt x="255" y="-239" on="1"/>
        <pt x="182" y="-236" on="1"/>
        <pt x="130" y="-234" on="0"/>
        <pt x="84" y="-205" on="0"/>
      </contour>
    </TTGlyph>
    <TTGlyph name="Uring" xMin="64" yMin="-15" xMax="662" yMax="981">
      <component glyphName="U" x="0" y="0" flags="0x204"/>
      <component glyphName="uni030A.cap" x="305" y="-5" flags="0x4"/>
    </TTGlyph>
    <TTGlyph name="Utilde" xMin="64" yMin="-15" xMax="689" yMax="914">
      <component glyphName="U" x="0" y="0" flags="0x204"/>
      <component glyphName="uni0303.cap" x="306" y="0" flags="0x4"/>
    </TTGlyph>
    <TTGlyph name="V" xMin="155" yMin="0" xMax="700" yMax="655">
      <contour>
        <pt x="172" y="0" on="1"/>
        <pt x="155" y="655" on="1"/>
        <pt x="266" y="655" on="1"/>
        <pt x="272" y="128" on="1"/>
        <pt x="581" y="655" on="1"/>
        <pt x="700" y="655" on="1"/>
        <pt x="309" y="0" on="1"/>
      </contour>
    </TTGlyph>
    <TTGlyph name="W" xMin="58" yMin="0" xMax="693" yMax="655">
      <contour>
        <pt x="693" y="655" on="1"/>
        <pt x="420" y="0" on="1"/>
        <pt x="316" y="0" on="1"/>
        <pt x="330" y="322" on="1"/>
        <pt x="159" y="0" on="1"/>
        <pt x="58" y="0" on="1"/>
        <pt x="162" y="655" on="1"/>
        <pt x="268" y="655" on="1"/>
        <pt x="188" y="195" on="1"/>
        <pt x="375" y="531" on="1"/>
        <pt x="400" y="531" on="1"/>
        <pt x="395" y="180" on="1"/>
        <pt x="579" y="655" on="1"/>
      </contour>
    </TTGlyph>
    <TTGlyph name="Wacute" xMin="58" yMin="0" xMax="693" yMax="914">
      <component glyphName="W" x="0" y="0" flags="0x204"/>
      <component glyphName="uni0301.cap" x="303" y="-10" flags="0x4"/>
    </TTGlyph>
    <TTGlyph name="Wcircumflex" xMin="58" yMin="0" xMax="693" yMax="920">
      <component glyphName="W" x="0" y="0" flags="0x204"/>
      <component glyphName="uni0302.cap" x="306" y="0" flags="0x4"/>
    </TTGlyph>
    <TTGlyph name="Wdieresis" xMin="58" yMin="0" xMax="693" yMax="880">
      <component glyphName="W" x="0" y="0" flags="0x204"/>
      <component glyphName="uni0308.cap" x="306" y="0" flags="0x4"/>
    </TTGlyph>
    <TTGlyph name="Wgrave" xMin="58" yMin="0" xMax="693" yMax="909">
      <component glyphName="W" x="0" y="0" flags="0x204"/>
      <component glyphName="uni0300.cap" x="303" y="-10" flags="0x4"/>
    </TTGlyph>
    <TTGlyph name="X" xMin="-32" yMin="0" xMax="682" yMax="655">
      <contour>
        <pt x="92" y="0" on="1"/>
        <pt x="-32" y="0" on="1"/>
        <pt x="273" y="342" on="1"/>
        <pt x="170" y="655" on="1"/>
        <pt x="288" y="655" on="1"/>
        <pt x="355" y="422" on="1"/>
        <pt x="548" y="655" on="1"/>
        <pt x="682" y="655" on="1"/>
        <pt x="393" y="332" on="1"/>
        <pt x="510" y="0" on="1"/>
        <pt x="383" y="0" on="1"/>
        <pt x="310" y="252" on="1"/>
      </contour>
    </TTGlyph>
    <TTGlyph name="Y" xMin="150" yMin="0" xMax="705" yMax="655">
      <contour>
        <pt x="572" y="655" on="1"/>
        <pt x="705" y="655" on="1"/>
        <pt x="375" y="274" on="1"/>
        <pt x="296" y="0" on="1"/>
        <pt x="184" y="0" on="1"/>
        <pt x="264" y="280" on="1"/>
        <pt x="150" y="655" on="1"/>
        <pt x="268" y="655" on="1"/>
        <pt x="344" y="384" on="1"/>
      </contour>
    </TTGlyph>
    <TTGlyph name="Yacute" xMin="150" yMin="0" xMax="705" yMax="919">
      <component glyphName="Y" x="0" y="0" flags="0x204"/>
      <component glyphName="uni0301.cap" x="289" y="-5" flags="0x4"/>
    </TTGlyph>
    <TTGlyph name="Ycircumflex" xMin="150" yMin="0" xMax="705" yMax="920">
      <component glyphName="Y" x="0" y="0" flags="0x204"/>
      <component glyphName="uni0302.cap" x="290" y="0" flags="0x4"/>
    </TTGlyph>
    <TTGlyph name="Ydieresis" xMin="150" yMin="0" xMax="705" yMax="880">
      <component glyphName="Y" x="0" y="0" flags="0x204"/>
      <component glyphName="uni0308.cap" x="290" y="0" flags="0x4"/>
    </TTGlyph>
    <TTGlyph name="Ygrave" xMin="150" yMin="0" xMax="705" yMax="914">
      <component glyphName="Y" x="0" y="0" flags="0x204"/>
      <component glyphName="uni0300.cap" x="289" y="-5" flags="0x4"/>
    </TTGlyph>
    <TTGlyph name="Z" xMin="12" yMin="0" xMax="643" yMax="655">
      <contour>
        <pt x="491" y="0" on="1"/>
        <pt x="12" y="0" on="1"/>
        <pt x="12" y="54" on="1"/>
        <pt x="469" y="559" on="1"/>
        <pt x="469" y="561" on="1"/>
        <pt x="157" y="561" on="1"/>
        <pt x="184" y="655" on="1"/>
        <pt x="643" y="655" on="1"/>
        <pt x="643" y="601" on="1"/>
        <pt x="180" y="95" on="1"/>
        <pt x="180" y="93" on="1"/>
        <pt x="518" y="93" on="1"/>
      </contour>
    </TTGlyph>
    <TTGlyph name="Zacute" xMin="12" yMin="0" xMax="654" yMax="924">
      <component glyphName="Z" x="0" y="0" flags="0x204"/>
      <component glyphName="uni0301.cap" x="297" y="0" flags="0x4"/>
    </TTGlyph>
    <TTGlyph name="Zcaron" xMin="12" yMin="0" xMax="667" yMax="920">
      <component glyphName="Z" x="0" y="0" flags="0x204"/>
      <component glyphName="uni030C.cap" x="297" y="0" flags="0x4"/>
    </TTGlyph>
    <TTGlyph name="Zdotaccent" xMin="12" yMin="0" xMax="643" yMax="886">
      <component glyphName="Z" x="0" y="0" flags="0x204"/>
      <component glyphName="uni0307.cap" x="297" y="0" flags="0x4"/>
    </TTGlyph>
    <TTGlyph name="a" xMin="25" yMin="-7" xMax="548" yMax="480">
      <contour>
        <pt x="535" y="310" on="1"/>
        <pt x="478" y="150" on="1"/>
        <pt x="473" y="137" on="0"/>
        <pt x="469" y="118" on="0"/>
        <pt x="469" y="111" on="1"/>
        <pt x="469" y="100" on="0"/>
        <pt x="484" y="88" on="0"/>
        <pt x="503" y="85" on="1"/>
        <pt x="539" y="79" on="1"/>
        <pt x="514" y="-7" on="1"/>
        <pt x="468" y="-2" on="1"/>
        <pt x="423" y="2" on="0"/>
        <pt x="369" y="31" on="0"/>
        <pt x="358" y="57" on="1"/>
        <pt x="352" y="57" on="1"/>
        <pt x="297" y="23" on="0"/>
        <pt x="197" y="-7" on="0"/>
        <pt x="138" y="-7" on="1"/>
        <pt x="84" y="-7" on="0"/>
        <pt x="25" y="46" on="0"/>
        <pt x="25" y="93" on="1"/>
        <pt x="25" y="129" on="0"/>
        <pt x="51" y="200" on="0"/>
        <pt x="73" y="222" on="1"/>
        <pt x="100" y="249" on="0"/>
        <pt x="192" y="274" on="0"/>
        <pt x="283" y="280" on="1"/>
        <pt x="422" y="290" on="1"/>
        <pt x="432" y="322" on="0"/>
        <pt x="435" y="338" on="0"/>
        <pt x="435" y="345" on="1"/>
        <pt x="435" y="369" on="0"/>
        <pt x="387" y="391" on="0"/>
        <pt x="333" y="391" on="1"/>
        <pt x="303" y="391" on="0"/>
        <pt x="203" y="382" on="0"/>
        <pt x="144" y="374" on="1"/>
        <pt x="169" y="465" on="1"/>
        <pt x="228" y="473" on="0"/>
        <pt x="324" y="480" on="0"/>
        <pt x="364" y="480" on="1"/>
        <pt x="458" y="480" on="0"/>
        <pt x="548" y="429" on="0"/>
        <pt x="548" y="376" on="1"/>
        <pt x="548" y="361" on="0"/>
        <pt x="542" y="328" on="0"/>
      </contour>
      <contour>
        <pt x="140" y="114" on="1"/>
        <pt x="140" y="95" on="0"/>
        <pt x="163" y="75" on="0"/>
        <pt x="186" y="75" on="1"/>
        <pt x="228" y="75" on="0"/>
        <pt x="328" y="111" on="0"/>
        <pt x="371" y="143" on="1"/>
        <pt x="398" y="221" on="1"/>
        <pt x="298" y="212" on="1"/>
        <pt x="239" y="207" on="0"/>
        <pt x="180" y="192" on="0"/>
        <pt x="165" y="177" on="1"/>
        <pt x="152" y="164" on="0"/>
        <pt x="140" y="133" on="0"/>
      </contour>
    </TTGlyph>
    <TTGlyph name="aacute" xMin="25" yMin="-7" xMax="595" yMax="755">
      <component glyphName="a" x="0" y="0" flags="0x204"/>
      <component glyphName="uni0301" x="297" y="5" flags="0x4"/>
    </TTGlyph>
    <TTGlyph name="abreve" xMin="25" yMin="-7" xMax="627" yMax="750">
      <component glyphName="a" x="0" y="0" flags="0x204"/>
      <component glyphName="uni0306" x="297" y="5" flags="0x4"/>
    </TTGlyph>
    <TTGlyph name="acircumflex" xMin="25" yMin="-7" xMax="580" yMax="752">
      <component glyphName="a" x="0" y="0" flags="0x204"/>
      <component glyphName="uni0302" x="296" y="0" flags="0x4"/>
    </TTGlyph>
    <TTGlyph name="acute" xMin="309" yMin="547" xMax="605" yMax="750">
      <component glyphName="uni0301" x="307" y="0" flags="0x4"/>
    </TTGlyph>
    <TTGlyph name="adieresis" xMin="25" yMin="-7" xMax="596" yMax="697">
      <component glyphName="a" x="0" y="0" flags="0x204"/>
      <component glyphName="uni0308" x="297" y="5" flags="0x4"/>
    </TTGlyph>
    <TTGlyph name="ae" xMin="-16" yMin="-5" xMax="615" yMax="480">
      <contour>
        <pt x="339" y="201" on="1"/>
        <pt x="336" y="178" on="0"/>
        <pt x="335" y="160" on="0"/>
        <pt x="335" y="152" on="1"/>
        <pt x="335" y="108" on="0"/>
        <pt x="398" y="74" on="0"/>
        <pt x="483" y="74" on="1"/>
        <pt x="458" y="-5" on="1"/>
        <pt x="374" y="-5" on="0"/>
        <pt x="277" y="22" on="0"/>
        <pt x="255" y="52" on="1"/>
        <pt x="248" y="52" on="1"/>
        <pt x="198" y="20" on="0"/>
        <pt x="135" y="-5" on="0"/>
        <pt x="97" y="-5" on="1"/>
        <pt x="41" y="-5" on="0"/>
        <pt x="-16" y="48" on="0"/>
        <pt x="-16" y="99" on="1"/>
        <pt x="-16" y="134" on="0"/>
        <pt x="7" y="196" on="0"/>
        <pt x="28" y="217" on="1"/>
        <pt x="51" y="241" on="0"/>
        <pt x="147" y="263" on="0"/>
        <pt x="259" y="271" on="1"/>
        <pt x="270" y="309" on="0"/>
        <pt x="278" y="345" on="0"/>
        <pt x="278" y="354" on="1"/>
        <pt x="278" y="378" on="0"/>
        <pt x="254" y="400" on="0"/>
        <pt x="227" y="400" on="1"/>
        <pt x="201" y="400" on="0"/>
        <pt x="143" y="393" on="0"/>
        <pt x="97" y="384" on="1"/>
        <pt x="125" y="466" on="1"/>
        <pt x="159" y="473" on="0"/>
        <pt x="224" y="480" on="0"/>
        <pt x="255" y="480" on="1"/>
        <pt x="311" y="480" on="0"/>
        <pt x="364" y="452" on="0"/>
        <pt x="371" y="418" on="1"/>
        <pt x="402" y="448" on="0"/>
        <pt x="472" y="480" on="0"/>
        <pt x="507" y="480" on="1"/>
        <pt x="558" y="480" on="0"/>
        <pt x="615" y="427" on="0"/>
        <pt x="615" y="379" on="1"/>
        <pt x="615" y="292" on="0"/>
        <pt x="486" y="215" on="0"/>
      </contour>
      <contour>
        <pt x="514" y="361" on="1"/>
        <pt x="514" y="380" on="0"/>
        <pt x="495" y="399" on="0"/>
        <pt x="475" y="399" on="1"/>
        <pt x="443" y="399" on="0"/>
        <pt x="377" y="324" on="0"/>
        <pt x="356" y="264" on="1"/>
        <pt x="436" y="273" on="0"/>
        <pt x="514" y="320" on="0"/>
      </contour>
      <contour>
        <pt x="83" y="114" on="1"/>
        <pt x="83" y="93" on="0"/>
        <pt x="105" y="75" on="0"/>
        <pt x="130" y="75" on="1"/>
        <pt x="150" y="75" on="0"/>
        <pt x="197" y="94" on="0"/>
        <pt x="233" y="117" on="1"/>
        <pt x="232" y="128" on="0"/>
        <pt x="231" y="143" on="0"/>
        <pt x="231" y="150" on="1"/>
        <pt x="231" y="162" on="0"/>
        <pt x="235" y="190" on="0"/>
        <pt x="240" y="206" on="1"/>
        <pt x="176" y="199" on="0"/>
        <pt x="119" y="186" on="0"/>
        <pt x="104" y="172" on="1"/>
        <pt x="93" y="161" on="0"/>
        <pt x="83" y="132" on="0"/>
      </contour>
    </TTGlyph>
    <TTGlyph name="agrave" xMin="25" yMin="-7" xMax="548" yMax="751">
      <component glyphName="a" x="0" y="0" flags="0x204"/>
      <component glyphName="uni0300" x="297" y="5" flags="0x4"/>
    </TTGlyph>
    <TTGlyph name="amacron" xMin="25" yMin="-7" xMax="589" yMax="671">
      <component glyphName="a" x="0" y="0" flags="0x204"/>
      <component glyphName="uni0304" x="297" y="5" flags="0x4"/>
    </TTGlyph>
    <TTGlyph name="ampersand" xMin="23" yMin="-11" xMax="595" yMax="669">
      <contour>
        <pt x="284" y="297" on="1"/>
        <pt x="228" y="279" on="0"/>
        <pt x="178" y="255" on="0"/>
        <pt x="161" y="238" on="1"/>
        <pt x="146" y="223" on="0"/>
        <pt x="132" y="180" on="0"/>
        <pt x="132" y="150" on="1"/>
        <pt x="132" y="117" on="0"/>
        <pt x="166" y="83" on="0"/>
        <pt x="199" y="83" on="1"/>
        <pt x="237" y="83" on="0"/>
        <pt x="291" y="122" on="0"/>
        <pt x="332" y="176" on="1"/>
      </contour>
      <contour>
        <pt x="23" y="132" on="1"/>
        <pt x="23" y="186" on="0"/>
        <pt x="48" y="258" on="0"/>
        <pt x="76" y="286" on="1"/>
        <pt x="101" y="311" on="0"/>
        <pt x="184" y="348" on="0"/>
        <pt x="256" y="367" on="1"/>
        <pt x="237" y="415" on="0"/>
        <pt x="222" y="473" on="0"/>
        <pt x="222" y="498" on="1"/>
        <pt x="222" y="573" on="0"/>
        <pt x="331" y="669" on="0"/>
        <pt x="418" y="669" on="1"/>
        <pt x="455" y="669" on="0"/>
        <pt x="531" y="661" on="0"/>
        <pt x="581" y="652" on="1"/>
        <pt x="560" y="566" on="1"/>
        <pt x="519" y="574" on="0"/>
        <pt x="458" y="581" on="0"/>
        <pt x="430" y="581" on="1"/>
        <pt x="385" y="581" on="0"/>
        <pt x="330" y="534" on="0"/>
        <pt x="330" y="495" on="1"/>
        <pt x="330" y="481" on="0"/>
        <pt x="337" y="453" on="0"/>
        <pt x="344" y="435" on="1"/>
        <pt x="407" y="269" on="1"/>
        <pt x="523" y="428" on="1"/>
        <pt x="595" y="376" on="1"/>
        <pt x="446" y="183" on="1"/>
        <pt x="519" y="-1" on="1"/>
        <pt x="406" y="-1" on="1"/>
        <pt x="369" y="99" on="1"/>
        <pt x="315" y="37" on="0"/>
        <pt x="230" y="-11" on="0"/>
        <pt x="172" y="-11" on="1"/>
        <pt x="101" y="-11" on="0"/>
        <pt x="23" y="65" on="0"/>
      </contour>
    </TTGlyph>
    <TTGlyph name="aogonek" xMin="25" yMin="-234" xMax="548" yMax="480">
      <contour>
        <pt x="235" y="-168" on="1"/>
        <pt x="235" y="-135" on="0"/>
        <pt x="304" y="-56" on="0"/>
        <pt x="393" y="18" on="1"/>
        <pt x="381" y="25" on="0"/>
        <pt x="363" y="44" on="0"/>
        <pt x="358" y="57" on="1"/>
        <pt x="352" y="57" on="1"/>
        <pt x="297" y="23" on="0"/>
        <pt x="197" y="-7" on="0"/>
        <pt x="138" y="-7" on="1"/>
        <pt x="84" y="-7" on="0"/>
        <pt x="25" y="46" on="0"/>
        <pt x="25" y="93" on="1"/>
        <pt x="25" y="129" on="0"/>
        <pt x="51" y="200" on="0"/>
        <pt x="73" y="222" on="1"/>
        <pt x="100" y="249" on="0"/>
        <pt x="192" y="274" on="0"/>
        <pt x="283" y="280" on="1"/>
        <pt x="422" y="290" on="1"/>
        <pt x="426" y="302" on="1"/>
        <pt x="432" y="322" on="0"/>
        <pt x="435" y="338" on="0"/>
        <pt x="435" y="345" on="1"/>
        <pt x="435" y="369" on="0"/>
        <pt x="387" y="391" on="0"/>
        <pt x="333" y="391" on="1"/>
        <pt x="303" y="391" on="0"/>
        <pt x="203" y="382" on="0"/>
        <pt x="144" y="374" on="1"/>
        <pt x="169" y="465" on="1"/>
        <pt x="228" y="473" on="0"/>
        <pt x="324" y="480" on="0"/>
        <pt x="364" y="480" on="1"/>
        <pt x="458" y="480" on="0"/>
        <pt x="548" y="429" on="0"/>
        <pt x="548" y="376" on="1"/>
        <pt x="548" y="361" on="0"/>
        <pt x="542" y="328" on="0"/>
        <pt x="535" y="310" on="1"/>
        <pt x="478" y="150" on="1"/>
        <pt x="473" y="137" on="0"/>
        <pt x="469" y="118" on="0"/>
        <pt x="469" y="111" on="1"/>
        <pt x="469" y="100" on="0"/>
        <pt x="484" y="88" on="0"/>
        <pt x="503" y="85" on="1"/>
        <pt x="539" y="79" on="1"/>
        <pt x="514" y="-7" on="1"/>
        <pt x="484" y="-4" on="0"/>
        <pt x="441" y="2" on="0"/>
        <pt x="434" y="3" on="1"/>
        <pt x="380" y="-54" on="0"/>
        <pt x="335" y="-113" on="0"/>
        <pt x="335" y="-133" on="1"/>
        <pt x="335" y="-145" on="0"/>
        <pt x="353" y="-155" on="0"/>
        <pt x="377" y="-156" on="1"/>
        <pt x="435" y="-160" on="1"/>
        <pt x="406" y="-234" on="1"/>
        <pt x="333" y="-231" on="1"/>
        <pt x="281" y="-229" on="0"/>
        <pt x="235" y="-200" on="0"/>
      </contour>
      <contour>
        <pt x="140" y="114" on="1"/>
        <pt x="140" y="95" on="0"/>
        <pt x="163" y="75" on="0"/>
        <pt x="186" y="75" on="1"/>
        <pt x="228" y="75" on="0"/>
        <pt x="328" y="111" on="0"/>
        <pt x="371" y="143" on="1"/>
        <pt x="398" y="221" on="1"/>
        <pt x="298" y="212" on="1"/>
        <pt x="239" y="207" on="0"/>
        <pt x="180" y="192" on="0"/>
        <pt x="165" y="177" on="1"/>
        <pt x="152" y="164" on="0"/>
        <pt x="140" y="133" on="0"/>
      </contour>
    </TTGlyph>
    <TTGlyph name="approxequal" xMin="21" yMin="70" xMax="635" yMax="590">
      <contour>
        <pt x="251" y="581" on="1"/>
        <pt x="276" y="581" on="0"/>
        <pt x="318" y="556" on="0"/>
        <pt x="368" y="512" on="1"/>
        <pt x="412" y="474" on="0"/>
        <pt x="440" y="453" on="0"/>
        <pt x="451" y="453" on="1"/>
        <pt x="464" y="453" on="0"/>
        <pt x="497" y="496" on="0"/>
        <pt x="554" y="590" on="1"/>
        <pt x="635" y="542" on="1"/>
        <pt x="570" y="430" on="0"/>
        <pt x="493" y="347" on="0"/>
        <pt x="447" y="347" on="1"/>
        <pt x="422" y="347" on="0"/>
        <pt x="380" y="372" on="0"/>
        <pt x="330" y="416" on="1"/>
        <pt x="283" y="457" on="0"/>
        <pt x="257" y="475" on="0"/>
        <pt x="247" y="475" on="1"/>
        <pt x="234" y="475" on="0"/>
        <pt x="200" y="433" on="0"/>
        <pt x="154" y="358" on="1"/>
        <pt x="74" y="406" on="1"/>
        <pt x="130" y="504" on="0"/>
        <pt x="205" y="581" on="0"/>
      </contour>
      <contour>
        <pt x="209" y="312" on="1"/>
        <pt x="234" y="312" on="0"/>
        <pt x="276" y="287" on="0"/>
        <pt x="325" y="243" on="1"/>
        <pt x="366" y="207" on="0"/>
        <pt x="397" y="185" on="0"/>
        <pt x="408" y="185" on="1"/>
        <pt x="422" y="185" on="0"/>
        <pt x="456" y="228" on="0"/>
        <pt x="501" y="301" on="1"/>
        <pt x="581" y="254" on="1"/>
        <pt x="524" y="156" on="0"/>
        <pt x="450" y="78" on="0"/>
        <pt x="404" y="78" on="1"/>
        <pt x="380" y="78" on="0"/>
        <pt x="339" y="102" on="0"/>
        <pt x="287" y="147" on="1"/>
        <pt x="246" y="184" on="0"/>
        <pt x="216" y="206" on="0"/>
        <pt x="204" y="206" on="1"/>
        <pt x="191" y="206" on="0"/>
        <pt x="158" y="164" on="0"/>
        <pt x="101" y="70" on="1"/>
        <pt x="21" y="117" on="1"/>
        <pt x="85" y="229" on="0"/>
        <pt x="162" y="312" on="0"/>
      </contour>
    </TTGlyph>
    <TTGlyph name="aring" xMin="25" yMin="-7" xMax="580" yMax="812">
      <component glyphName="a" x="0" y="0" flags="0x204"/>
      <component glyphName="uni030A" x="297" y="5" flags="0x4"/>
    </TTGlyph>
    <TTGlyph name="asciicircum" xMin="55" yMin="271" xMax="578" yMax="655">
      <contour>
        <pt x="174" y="271" on="1"/>
        <pt x="55" y="271" on="1"/>
        <pt x="360" y="655" on="1"/>
        <pt x="495" y="655" on="1"/>
        <pt x="578" y="271" on="1"/>
        <pt x="468" y="271" on="1"/>
        <pt x="411" y="581" on="1"/>
      </contour>
    </TTGlyph>
    <TTGlyph name="asciitilde" xMin="41" yMin="207" xMax="613" yMax="458">
      <contour>
        <pt x="229" y="449" on="1"/>
        <pt x="255" y="449" on="0"/>
        <pt x="298" y="423" on="0"/>
        <pt x="346" y="380" on="1"/>
        <pt x="390" y="342" on="0"/>
        <pt x="418" y="322" on="0"/>
        <pt x="429" y="322" on="1"/>
        <pt x="442" y="322" on="0"/>
        <pt x="474" y="363" on="0"/>
        <pt x="533" y="458" on="1"/>
        <pt x="613" y="410" on="1"/>
        <pt x="548" y="298" on="0"/>
        <pt x="471" y="215" on="0"/>
        <pt x="425" y="215" on="1"/>
        <pt x="400" y="215" on="0"/>
        <pt x="358" y="240" on="0"/>
        <pt x="308" y="284" on="1"/>
        <pt x="267" y="321" on="0"/>
        <pt x="237" y="343" on="0"/>
        <pt x="225" y="343" on="1"/>
        <pt x="212" y="343" on="0"/>
        <pt x="179" y="301" on="0"/>
        <pt x="122" y="207" on="1"/>
        <pt x="41" y="254" on="1"/>
        <pt x="106" y="366" on="0"/>
        <pt x="183" y="449" on="0"/>
      </contour>
    </TTGlyph>
    <TTGlyph name="asterisk" xMin="103" yMin="157" xMax="608" yMax="630">
      <contour>
        <pt x="168" y="157" on="1"/>
        <pt x="103" y="231" on="1"/>
        <pt x="118" y="244" on="0"/>
        <pt x="158" y="272" on="0"/>
        <pt x="203" y="299" on="1"/>
        <pt x="250" y="327" on="0"/>
        <pt x="298" y="360" on="0"/>
        <pt x="318" y="376" on="1"/>
        <pt x="300" y="382" on="0"/>
        <pt x="254" y="390" on="0"/>
        <pt x="208" y="394" on="1"/>
        <pt x="163" y="398" on="0"/>
        <pt x="123" y="405" on="0"/>
        <pt x="108" y="411" on="1"/>
        <pt x="175" y="516" on="1"/>
        <pt x="190" y="510" on="0"/>
        <pt x="221" y="490" on="0"/>
        <pt x="252" y="464" on="1"/>
        <pt x="284" y="438" on="0"/>
        <pt x="320" y="414" on="0"/>
        <pt x="337" y="406" on="1"/>
        <pt x="343" y="429" on="0"/>
        <pt x="350" y="480" on="0"/>
        <pt x="352" y="528" on="1"/>
        <pt x="354" y="572" on="0"/>
        <pt x="359" y="613" on="0"/>
        <pt x="364" y="630" on="1"/>
        <pt x="477" y="630" on="1"/>
        <pt x="472" y="613" on="0"/>
        <pt x="453" y="570" on="0"/>
        <pt x="430" y="526" on="1"/>
        <pt x="405" y="478" on="0"/>
        <pt x="383" y="429" on="0"/>
        <pt x="376" y="407" on="1"/>
        <pt x="397" y="415" on="0"/>
        <pt x="445" y="439" on="0"/>
        <pt x="490" y="465" on="1"/>
        <pt x="534" y="489" on="0"/>
        <pt x="575" y="509" on="0"/>
        <pt x="592" y="515" on="1"/>
        <pt x="608" y="409" on="1"/>
        <pt x="590" y="403" on="0"/>
        <pt x="545" y="395" on="0"/>
        <pt x="497" y="390" on="1"/>
        <pt x="449" y="385" on="0"/>
        <pt x="399" y="376" on="0"/>
        <pt x="377" y="370" on="1"/>
        <pt x="387" y="355" on="0"/>
        <pt x="416" y="323" on="0"/>
        <pt x="446" y="295" on="1"/>
        <pt x="477" y="268" on="0"/>
        <pt x="501" y="239" on="0"/>
        <pt x="509" y="226" on="1"/>
        <pt x="402" y="157" on="1"/>
        <pt x="394" y="170" on="0"/>
        <pt x="383" y="207" on="0"/>
        <pt x="374" y="248" on="1"/>
        <pt x="366" y="291" on="0"/>
        <pt x="352" y="333" on="0"/>
        <pt x="344" y="350" on="1"/>
        <pt x="325" y="333" on="0"/>
        <pt x="286" y="291" on="0"/>
        <pt x="251" y="247" on="1"/>
        <pt x="217" y="207" on="0"/>
        <pt x="184" y="170" on="0"/>
      </contour>
    </TTGlyph>
    <TTGlyph name="at" xMin="48" yMin="-79" xMax="633" yMax="725">
      <contour>
        <pt x="405" y="-11" on="1"/>
        <pt x="413" y="-62" on="1"/>
        <pt x="366" y="-71" on="0"/>
        <pt x="297" y="-79" on="0"/>
        <pt x="262" y="-79" on="1"/>
        <pt x="152" y="-79" on="0"/>
        <pt x="48" y="18" on="0"/>
        <pt x="48" y="120" on="1"/>
        <pt x="48" y="239" on="0"/>
        <pt x="167" y="566" on="0"/>
        <pt x="241" y="641" on="1"/>
        <pt x="284" y="684" on="0"/>
        <pt x="389" y="725" on="0"/>
        <pt x="454" y="725" on="1"/>
        <pt x="553" y="725" on="0"/>
        <pt x="633" y="655" on="0"/>
        <pt x="633" y="574" on="1"/>
        <pt x="633" y="486" on="0"/>
        <pt x="559" y="229" on="0"/>
        <pt x="514" y="184" on="1"/>
        <pt x="485" y="155" on="0"/>
        <pt x="417" y="129" on="0"/>
        <pt x="370" y="129" on="1"/>
        <pt x="297" y="129" on="0"/>
        <pt x="225" y="188" on="0"/>
        <pt x="225" y="248" on="1"/>
        <pt x="225" y="302" on="0"/>
        <pt x="270" y="424" on="0"/>
        <pt x="303" y="457" on="1"/>
        <pt x="332" y="487" on="0"/>
        <pt x="414" y="515" on="0"/>
        <pt x="472" y="515" on="1"/>
        <pt x="574" y="515" on="1"/>
        <pt x="576" y="527" on="0"/>
        <pt x="578" y="552" on="0"/>
        <pt x="578" y="564" on="1"/>
        <pt x="578" y="623" on="0"/>
        <pt x="520" y="674" on="0"/>
        <pt x="451" y="674" on="1"/>
        <pt x="398" y="674" on="0"/>
        <pt x="313" y="637" on="0"/>
        <pt x="274" y="598" on="1"/>
        <pt x="213" y="537" on="0"/>
        <pt x="105" y="234" on="0"/>
        <pt x="105" y="133" on="1"/>
        <pt x="105" y="50" on="0"/>
        <pt x="185" y="-28" on="0"/>
        <pt x="271" y="-28" on="1"/>
        <pt x="300" y="-28" on="0"/>
        <pt x="366" y="-20" on="0"/>
      </contour>
      <contour>
        <pt x="360" y="410" on="1"/>
        <pt x="336" y="386" on="0"/>
        <pt x="304" y="299" on="0"/>
        <pt x="304" y="260" on="1"/>
        <pt x="304" y="228" on="0"/>
        <pt x="337" y="200" on="0"/>
        <pt x="375" y="200" on="1"/>
        <pt x="409" y="200" on="0"/>
        <pt x="458" y="217" on="0"/>
        <pt x="477" y="236" on="1"/>
        <pt x="499" y="259" on="0"/>
        <pt x="544" y="372" on="0"/>
        <pt x="561" y="444" on="1"/>
        <pt x="447" y="444" on="1"/>
        <pt x="420" y="444" on="0"/>
        <pt x="377" y="427" on="0"/>
      </contour>
    </TTGlyph>
    <TTGlyph name="atilde" xMin="25" yMin="-7" xMax="633" yMax="751">
      <component glyphName="a" x="0" y="0" flags="0x204"/>
      <component glyphName="uni0303" x="297" y="5" flags="0x4"/>
    </TTGlyph>
    <TTGlyph name="b" xMin="29" yMin="-8" xMax="575" yMax="710">
      <contour>
        <pt x="221" y="710" on="1"/>
        <pt x="333" y="710" on="1"/>
        <pt x="248" y="414" on="1"/>
        <pt x="291" y="449" on="0"/>
        <pt x="370" y="482" on="0"/>
        <pt x="412" y="482" on="1"/>
        <pt x="484" y="482" on="0"/>
        <pt x="575" y="382" on="0"/>
        <pt x="575" y="300" on="1"/>
        <pt x="575" y="166" on="0"/>
        <pt x="386" y="-8" on="0"/>
        <pt x="237" y="-8" on="1"/>
        <pt x="182" y="-8" on="0"/>
        <pt x="75" y="17" on="0"/>
        <pt x="29" y="41" on="1"/>
      </contour>
      <contour>
        <pt x="458" y="286" on="1"/>
        <pt x="458" y="334" on="0"/>
        <pt x="409" y="389" on="0"/>
        <pt x="366" y="389" on="1"/>
        <pt x="333" y="389" on="0"/>
        <pt x="267" y="355" on="0"/>
        <pt x="220" y="316" on="1"/>
        <pt x="158" y="99" on="1"/>
        <pt x="177" y="92" on="0"/>
        <pt x="218" y="85" on="0"/>
        <pt x="241" y="85" on="1"/>
        <pt x="337" y="85" on="0"/>
        <pt x="458" y="202" on="0"/>
      </contour>
    </TTGlyph>
    <TTGlyph name="backslash" xMin="193" yMin="-100" xMax="474" yMax="755">
      <contour>
        <pt x="371" y="-100" on="1"/>
        <pt x="193" y="755" on="1"/>
        <pt x="294" y="755" on="1"/>
        <pt x="474" y="-100" on="1"/>
      </contour>
    </TTGlyph>
    <TTGlyph name="bar" xMin="160" yMin="-100" xMax="508" yMax="755">
      <contour>
        <pt x="405" y="755" on="1"/>
        <pt x="508" y="755" on="1"/>
        <pt x="262" y="-100" on="1"/>
        <pt x="160" y="-100" on="1"/>
      </contour>
    </TTGlyph>
    <TTGlyph name="braceleft" xMin="82" yMin="-143" xMax="729" yMax="805">
      <contour>
        <pt x="119" y="-27" on="1"/>
        <pt x="119" y="3" on="0"/>
        <pt x="152" y="51" on="0"/>
        <pt x="195" y="88" on="1"/>
        <pt x="255" y="140" on="1"/>
        <pt x="282" y="163" on="0"/>
        <pt x="299" y="183" on="0"/>
        <pt x="299" y="193" on="1"/>
        <pt x="299" y="212" on="0"/>
        <pt x="200" y="251" on="0"/>
        <pt x="82" y="282" on="1"/>
        <pt x="110" y="380" on="1"/>
        <pt x="157" y="392" on="0"/>
        <pt x="230" y="411" on="0"/>
        <pt x="257" y="419" on="1"/>
        <pt x="330" y="439" on="0"/>
        <pt x="386" y="466" on="0"/>
        <pt x="386" y="484" on="1"/>
        <pt x="386" y="491" on="0"/>
        <pt x="378" y="511" on="0"/>
        <pt x="368" y="526" on="1"/>
        <pt x="335" y="580" on="1"/>
        <pt x="320" y="605" on="0"/>
        <pt x="307" y="639" on="0"/>
        <pt x="307" y="655" on="1"/>
        <pt x="307" y="702" on="0"/>
        <pt x="375" y="757" on="0"/>
        <pt x="445" y="767" on="1"/>
        <pt x="729" y="805" on="1"/>
        <pt x="702" y="711" on="1"/>
        <pt x="474" y="680" on="1"/>
        <pt x="449" y="677" on="0"/>
        <pt x="426" y="662" on="0"/>
        <pt x="426" y="649" on="1"/>
        <pt x="426" y="641" on="0"/>
        <pt x="433" y="624" on="0"/>
        <pt x="442" y="610" on="1"/>
        <pt x="476" y="556" on="1"/>
        <pt x="497" y="523" on="0"/>
        <pt x="511" y="490" on="0"/>
        <pt x="511" y="476" on="1"/>
        <pt x="511" y="442" on="0"/>
        <pt x="446" y="399" on="0"/>
        <pt x="370" y="377" on="1"/>
        <pt x="335" y="366" on="0"/>
        <pt x="245" y="345" on="0"/>
        <pt x="189" y="333" on="1"/>
        <pt x="185" y="319" on="1"/>
        <pt x="228" y="308" on="0"/>
        <pt x="295" y="289" on="0"/>
        <pt x="321" y="281" on="1"/>
        <pt x="376" y="262" on="0"/>
        <pt x="423" y="227" on="0"/>
        <pt x="423" y="200" on="1"/>
        <pt x="423" y="179" on="0"/>
        <pt x="390" y="137" on="0"/>
        <pt x="345" y="99" on="1"/>
        <pt x="286" y="50" on="1"/>
        <pt x="263" y="32" on="0"/>
        <pt x="247" y="13" on="0"/>
        <pt x="247" y="2" on="1"/>
        <pt x="247" y="-7" on="0"/>
        <pt x="260" y="-17" on="0"/>
        <pt x="273" y="-19" on="1"/>
        <pt x="483" y="-50" on="1"/>
        <pt x="457" y="-143" on="1"/>
        <pt x="239" y="-111" on="1"/>
        <pt x="176" y="-102" on="0"/>
        <pt x="119" y="-63" on="0"/>
      </contour>
    </TTGlyph>
    <TTGlyph name="braceright" xMin="-50" yMin="-143" xMax="596" yMax="805">
      <contour>
        <pt x="371" y="7" on="1"/>
        <pt x="371" y="-41" on="0"/>
        <pt x="303" y="-95" on="0"/>
        <pt x="233" y="-105" on="1"/>
        <pt x="-50" y="-143" on="1"/>
        <pt x="-23" y="-49" on="1"/>
        <pt x="205" y="-18" on="1"/>
        <pt x="230" y="-15" on="0"/>
        <pt x="252" y="0" on="0"/>
        <pt x="252" y="13" on="1"/>
        <pt x="252" y="21" on="0"/>
        <pt x="245" y="38" on="0"/>
        <pt x="236" y="52" on="1"/>
        <pt x="202" y="106" on="1"/>
        <pt x="183" y="137" on="0"/>
        <pt x="168" y="172" on="0"/>
        <pt x="168" y="186" on="1"/>
        <pt x="168" y="220" on="0"/>
        <pt x="233" y="263" on="0"/>
        <pt x="308" y="285" on="1"/>
        <pt x="343" y="296" on="0"/>
        <pt x="433" y="317" on="0"/>
        <pt x="489" y="329" on="1"/>
        <pt x="493" y="343" on="1"/>
        <pt x="450" y="354" on="0"/>
        <pt x="383" y="373" on="0"/>
        <pt x="357" y="381" on="1"/>
        <pt x="302" y="400" on="0"/>
        <pt x="255" y="435" on="0"/>
        <pt x="255" y="462" on="1"/>
        <pt x="255" y="483" on="0"/>
        <pt x="289" y="525" on="0"/>
        <pt x="334" y="563" on="1"/>
        <pt x="392" y="612" on="1"/>
        <pt x="415" y="630" on="0"/>
        <pt x="431" y="649" on="0"/>
        <pt x="431" y="660" on="1"/>
        <pt x="431" y="669" on="0"/>
        <pt x="419" y="679" on="0"/>
        <pt x="406" y="681" on="1"/>
        <pt x="195" y="712" on="1"/>
        <pt x="222" y="805" on="1"/>
        <pt x="440" y="773" on="1"/>
        <pt x="502" y="764" on="0"/>
        <pt x="559" y="725" on="0"/>
        <pt x="559" y="689" on="1"/>
        <pt x="559" y="659" on="0"/>
        <pt x="526" y="611" on="0"/>
        <pt x="483" y="574" on="1"/>
        <pt x="423" y="522" on="1"/>
        <pt x="396" y="499" on="0"/>
        <pt x="379" y="479" on="0"/>
        <pt x="379" y="469" on="1"/>
        <pt x="379" y="450" on="0"/>
        <pt x="478" y="411" on="0"/>
        <pt x="596" y="380" on="1"/>
        <pt x="568" y="282" on="1"/>
        <pt x="521" y="270" on="0"/>
        <pt x="448" y="251" on="0"/>
        <pt x="421" y="243" on="1"/>
        <pt x="348" y="223" on="0"/>
        <pt x="292" y="196" on="0"/>
        <pt x="292" y="178" on="1"/>
        <pt x="292" y="171" on="0"/>
        <pt x="300" y="151" on="0"/>
        <pt x="310" y="136" on="1"/>
        <pt x="343" y="82" on="1"/>
        <pt x="358" y="57" on="0"/>
        <pt x="371" y="23" on="0"/>
      </contour>
    </TTGlyph>
    <TTGlyph name="bracketleft" xMin="66" yMin="-141" xMax="693" yMax="792">
      <contour>
        <pt x="426" y="-141" on="1"/>
        <pt x="66" y="-141" on="1"/>
        <pt x="334" y="792" on="1"/>
        <pt x="693" y="792" on="1"/>
        <pt x="666" y="699" on="1"/>
        <pt x="420" y="699" on="1"/>
        <pt x="206" y="-47" on="1"/>
        <pt x="453" y="-47" on="1"/>
      </contour>
    </TTGlyph>
    <TTGlyph name="bracketright" xMin="-27" yMin="-141" xMax="601" yMax="792">
      <contour>
        <pt x="461" y="699" on="1"/>
        <pt x="214" y="699" on="1"/>
        <pt x="241" y="792" on="1"/>
        <pt x="601" y="792" on="1"/>
        <pt x="333" y="-141" on="1"/>
        <pt x="-27" y="-141" on="1"/>
        <pt x="0" y="-47" on="1"/>
        <pt x="247" y="-47" on="1"/>
      </contour>
    </TTGlyph>
    <TTGlyph name="breve" xMin="257" yMin="547" xMax="637" yMax="745">
      <component glyphName="uni0306" x="307" y="0" flags="0x4"/>
    </TTGlyph>
    <TTGlyph name="bullet" xMin="181" yMin="189" xMax="491" yMax="476">
      <contour>
        <pt x="181" y="291" on="1"/>
        <pt x="181" y="369" on="0"/>
        <pt x="284" y="476" on="0"/>
        <pt x="363" y="476" on="1"/>
        <pt x="425" y="476" on="0"/>
        <pt x="491" y="423" on="0"/>
        <pt x="491" y="373" on="1"/>
        <pt x="491" y="295" on="0"/>
        <pt x="388" y="189" on="0"/>
        <pt x="309" y="189" on="1"/>
        <pt x="247" y="189" on="0"/>
        <pt x="181" y="241" on="0"/>
      </contour>
    </TTGlyph>
    <TTGlyph name="c" xMin="51" yMin="-14" xMax="590" yMax="484">
      <contour>
        <pt x="376" y="390" on="1"/>
        <pt x="337" y="390" on="0"/>
        <pt x="266" y="360" on="0"/>
        <pt x="238" y="332" on="1"/>
        <pt x="209" y="303" on="0"/>
        <pt x="174" y="222" on="0"/>
        <pt x="174" y="183" on="1"/>
        <pt x="174" y="135" on="0"/>
        <pt x="232" y="80" on="0"/>
        <pt x="281" y="80" on="1"/>
        <pt x="320" y="80" on="0"/>
        <pt x="407" y="105" on="0"/>
        <pt x="475" y="135" on="1"/>
        <pt x="509" y="48" on="1"/>
        <pt x="447" y="16" on="0"/>
        <pt x="331" y="-14" on="0"/>
        <pt x="264" y="-14" on="1"/>
        <pt x="164" y="-14" on="0"/>
        <pt x="51" y="84" on="0"/>
        <pt x="51" y="172" on="1"/>
        <pt x="51" y="233" on="0"/>
        <pt x="99" y="348" on="0"/>
        <pt x="143" y="392" on="1"/>
        <pt x="188" y="437" on="0"/>
        <pt x="302" y="484" on="0"/>
        <pt x="366" y="484" on="1"/>
        <pt x="429" y="484" on="0"/>
        <pt x="531" y="455" on="0"/>
        <pt x="590" y="422" on="1"/>
        <pt x="543" y="333" on="1"/>
        <pt x="483" y="366" on="0"/>
        <pt x="412" y="390" on="0"/>
      </contour>
    </TTGlyph>
    <TTGlyph name="cacute" xMin="51" yMin="-14" xMax="618" yMax="755">
      <component glyphName="c" x="0" y="0" flags="0x204"/>
      <component glyphName="uni0301" x="320" y="5" flags="0x4"/>
    </TTGlyph>
    <TTGlyph name="caron" xMin="252" yMin="547" xMax="624" yMax="752">
      <component glyphName="uni030C" x="307" y="0" flags="0x4"/>
    </TTGlyph>
    <TTGlyph name="ccaron" xMin="51" yMin="-14" xMax="637" yMax="757">
      <component glyphName="c" x="0" y="0" flags="0x204"/>
      <component glyphName="uni030C" x="320" y="5" flags="0x4"/>
    </TTGlyph>
    <TTGlyph name="ccedilla" xMin="51" yMin="-270" xMax="590" yMax="484">
      <contour>
        <pt x="376" y="390" on="1"/>
        <pt x="337" y="390" on="0"/>
        <pt x="266" y="360" on="0"/>
        <pt x="238" y="332" on="1"/>
        <pt x="209" y="303" on="0"/>
        <pt x="174" y="222" on="0"/>
        <pt x="174" y="183" on="1"/>
        <pt x="174" y="135" on="0"/>
        <pt x="232" y="80" on="0"/>
        <pt x="281" y="80" on="1"/>
        <pt x="320" y="80" on="0"/>
        <pt x="407" y="105" on="0"/>
        <pt x="475" y="135" on="1"/>
        <pt x="509" y="48" on="1"/>
        <pt x="445" y="15" on="0"/>
        <pt x="330" y="-14" on="0"/>
        <pt x="256" y="-14" on="1"/>
        <pt x="226" y="-64" on="1"/>
        <pt x="293" y="-73" on="0"/>
        <pt x="353" y="-109" on="0"/>
        <pt x="353" y="-144" on="1"/>
        <pt x="353" y="-188" on="0"/>
        <pt x="299" y="-232" on="0"/>
        <pt x="235" y="-246" on="1"/>
        <pt x="203" y="-253" on="0"/>
        <pt x="117" y="-265" on="0"/>
        <pt x="62" y="-270" on="1"/>
        <pt x="61" y="-212" on="1"/>
        <pt x="97" y="-209" on="0"/>
        <pt x="154" y="-203" on="0"/>
        <pt x="175" y="-200" on="1"/>
        <pt x="228" y="-192" on="0"/>
        <pt x="270" y="-174" on="0"/>
        <pt x="270" y="-155" on="1"/>
        <pt x="270" y="-139" on="0"/>
        <pt x="214" y="-122" on="0"/>
        <pt x="146" y="-117" on="1"/>
        <pt x="143" y="-107" on="1"/>
        <pt x="204" y="-9" on="1"/>
        <pt x="130" y="5" on="0"/>
        <pt x="51" y="99" on="0"/>
        <pt x="51" y="172" on="1"/>
        <pt x="51" y="233" on="0"/>
        <pt x="99" y="348" on="0"/>
        <pt x="143" y="392" on="1"/>
        <pt x="188" y="437" on="0"/>
        <pt x="302" y="484" on="0"/>
        <pt x="366" y="484" on="1"/>
        <pt x="429" y="484" on="0"/>
        <pt x="531" y="455" on="0"/>
        <pt x="590" y="422" on="1"/>
        <pt x="543" y="333" on="1"/>
        <pt x="483" y="366" on="0"/>
        <pt x="412" y="390" on="0"/>
      </contour>
    </TTGlyph>
    <TTGlyph name="ccircumflex" xMin="51" yMin="-14" xMax="603" yMax="752">
      <component glyphName="c" x="0" y="0" flags="0x204"/>
      <component glyphName="uni0302" x="319" y="0" flags="0x4"/>
    </TTGlyph>
    <TTGlyph name="cdotaccent" xMin="51" yMin="-14" xMax="590" yMax="704">
      <component glyphName="c" x="0" y="0" flags="0x204"/>
      <component glyphName="uni0307" x="320" y="5" flags="0x4"/>
    </TTGlyph>
    <TTGlyph name="cedilla" xMin="66" yMin="-265" xMax="358" yMax="21">
      <component glyphName="uni0327" x="307" y="0" flags="0x4"/>
    </TTGlyph>
    <TTGlyph name="cent" xMin="54" yMin="-142" xMax="593" yMax="632">
      <contour>
        <pt x="243" y="-142" on="1"/>
        <pt x="165" y="-142" on="1"/>
        <pt x="216" y="4" on="1"/>
        <pt x="138" y="16" on="0"/>
        <pt x="54" y="108" on="0"/>
        <pt x="54" y="182" on="1"/>
        <pt x="54" y="242" on="0"/>
        <pt x="101" y="354" on="0"/>
        <pt x="145" y="398" on="1"/>
        <pt x="189" y="442" on="0"/>
        <pt x="305" y="490" on="0"/>
        <pt x="369" y="490" on="1"/>
        <pt x="374" y="490" on="0"/>
        <pt x="382" y="490" on="0"/>
        <pt x="387" y="490" on="1"/>
        <pt x="436" y="632" on="1"/>
        <pt x="514" y="632" on="1"/>
        <pt x="462" y="481" on="1"/>
        <pt x="493" y="474" on="0"/>
        <pt x="557" y="448" on="0"/>
        <pt x="593" y="428" on="1"/>
        <pt x="546" y="339" on="1"/>
        <pt x="488" y="371" on="0"/>
        <pt x="416" y="395" on="0"/>
        <pt x="379" y="395" on="1"/>
        <pt x="340" y="395" on="0"/>
        <pt x="267" y="365" on="0"/>
        <pt x="240" y="338" on="1"/>
        <pt x="211" y="309" on="0"/>
        <pt x="177" y="231" on="0"/>
        <pt x="177" y="193" on="1"/>
        <pt x="177" y="148" on="0"/>
        <pt x="236" y="95" on="0"/>
        <pt x="286" y="95" on="1"/>
        <pt x="327" y="95" on="0"/>
        <pt x="416" y="120" on="0"/>
        <pt x="480" y="150" on="1"/>
        <pt x="515" y="62" on="1"/>
        <pt x="456" y="32" on="0"/>
        <pt x="350" y="2" on="0"/>
        <pt x="293" y="0" on="1"/>
      </contour>
    </TTGlyph>
    <TTGlyph name="circumflex" xMin="219" yMin="547" xMax="591" yMax="752">
      <component glyphName="uni0302" x="307" y="0" flags="0x4"/>
    </TTGlyph>
    <TTGlyph name="colon" xMin="153" yMin="-15" xMax="462" yMax="484">
      <contour>
        <pt x="462" y="419" on="1"/>
        <pt x="462" y="370" on="0"/>
        <pt x="393" y="308" on="0"/>
        <pt x="337" y="308" on="1"/>
        <pt x="292" y="308" on="0"/>
        <pt x="245" y="342" on="0"/>
        <pt x="245" y="374" on="1"/>
        <pt x="245" y="422" on="0"/>
        <pt x="314" y="484" on="0"/>
        <pt x="369" y="484" on="1"/>
        <pt x="415" y="484" on="0"/>
        <pt x="462" y="451" on="0"/>
      </contour>
      <contour>
        <pt x="370" y="96" on="1"/>
        <pt x="370" y="47" on="0"/>
        <pt x="301" y="-15" on="0"/>
        <pt x="245" y="-15" on="1"/>
        <pt x="200" y="-15" on="0"/>
        <pt x="153" y="18" on="0"/>
        <pt x="153" y="50" on="1"/>
        <pt x="153" y="98" on="0"/>
        <pt x="222" y="160" on="0"/>
        <pt x="277" y="160" on="1"/>
        <pt x="323" y="160" on="0"/>
        <pt x="370" y="127" on="0"/>
      </contour>
    </TTGlyph>
    <TTGlyph name="colon.fig" xMin="181" yMin="78" xMax="490" yMax="577">
      <component glyphName="colon" x="28" y="93" flags="0x4"/>
    </TTGlyph>
    <TTGlyph name="comma" xMin="4" yMin="-161" xMax="389" yMax="145">
      <contour>
        <pt x="116" y="-161" on="1"/>
        <pt x="4" y="-161" on="1"/>
        <pt x="4" y="-159" on="1"/>
        <pt x="117" y="-56" on="0"/>
        <pt x="184" y="41" on="0"/>
        <pt x="217" y="145" on="1"/>
        <pt x="389" y="145" on="1"/>
        <pt x="333" y="14" on="0"/>
        <pt x="237" y="-90" on="0"/>
      </contour>
    </TTGlyph>
    <TTGlyph name="copyright" xMin="46" yMin="-70" xMax="622" yMax="725">
      <contour>
        <pt x="622" y="545" on="1"/>
        <pt x="622" y="499" on="0"/>
        <pt x="602" y="382" on="0"/>
        <pt x="581" y="311" on="1"/>
        <pt x="524" y="115" on="0"/>
        <pt x="358" y="-70" on="0"/>
        <pt x="235" y="-70" on="1"/>
        <pt x="137" y="-70" on="0"/>
        <pt x="46" y="18" on="0"/>
        <pt x="46" y="111" on="1"/>
        <pt x="46" y="157" on="0"/>
        <pt x="67" y="274" on="0"/>
        <pt x="87" y="344" on="1"/>
        <pt x="143" y="540" on="0"/>
        <pt x="309" y="725" on="0"/>
        <pt x="433" y="725" on="1"/>
        <pt x="531" y="725" on="0"/>
        <pt x="622" y="638" on="0"/>
      </contour>
      <contour>
        <pt x="430" y="680" on="1"/>
        <pt x="325" y="680" on="0"/>
        <pt x="186" y="512" on="0"/>
        <pt x="133" y="327" on="1"/>
        <pt x="113" y="255" on="0"/>
        <pt x="94" y="150" on="0"/>
        <pt x="94" y="109" on="1"/>
        <pt x="94" y="40" on="0"/>
        <pt x="163" y="-25" on="0"/>
        <pt x="238" y="-25" on="1"/>
        <pt x="342" y="-25" on="0"/>
        <pt x="481" y="143" on="0"/>
        <pt x="534" y="328" on="1"/>
        <pt x="554" y="398" on="0"/>
        <pt x="573" y="505" on="0"/>
        <pt x="573" y="547" on="1"/>
        <pt x="573" y="615" on="0"/>
        <pt x="504" y="680" on="0"/>
      </contour>
      <contour>
        <pt x="284" y="97" on="1"/>
        <pt x="235" y="97" on="0"/>
        <pt x="185" y="159" on="0"/>
        <pt x="185" y="219" on="1"/>
        <pt x="185" y="270" on="0"/>
        <pt x="212" y="378" on="0"/>
        <pt x="236" y="426" on="1"/>
        <pt x="268" y="488" on="0"/>
        <pt x="351" y="558" on="0"/>
        <pt x="393" y="558" on="1"/>
        <pt x="437" y="558" on="0"/>
        <pt x="485" y="511" on="0"/>
        <pt x="503" y="456" on="1"/>
        <pt x="442" y="431" on="1"/>
        <pt x="429" y="467" on="0"/>
        <pt x="408" y="492" on="0"/>
        <pt x="388" y="492" on="1"/>
        <pt x="367" y="492" on="0"/>
        <pt x="323" y="444" on="0"/>
        <pt x="304" y="406" on="1"/>
        <pt x="284" y="366" on="0"/>
        <pt x="257" y="267" on="0"/>
        <pt x="257" y="223" on="1"/>
        <pt x="257" y="194" on="0"/>
        <pt x="276" y="163" on="0"/>
        <pt x="294" y="163" on="1"/>
        <pt x="313" y="163" on="0"/>
        <pt x="351" y="190" on="0"/>
        <pt x="380" y="221" on="1"/>
        <pt x="428" y="181" on="1"/>
        <pt x="387" y="136" on="0"/>
        <pt x="322" y="97" on="0"/>
      </contour>
    </TTGlyph>
    <TTGlyph name="d" xMin="41" yMin="-8" xMax="667" yMax="710">
      <contour>
        <pt x="463" y="0" on="1"/>
        <pt x="379" y="0" on="1"/>
        <pt x="379" y="68" on="1"/>
        <pt x="333" y="29" on="0"/>
        <pt x="249" y="-8" on="0"/>
        <pt x="202" y="-8" on="1"/>
        <pt x="132" y="-8" on="0"/>
        <pt x="41" y="92" on="0"/>
        <pt x="41" y="174" on="1"/>
        <pt x="41" y="307" on="0"/>
        <pt x="232" y="482" on="0"/>
        <pt x="382" y="482" on="1"/>
        <pt x="409" y="482" on="0"/>
        <pt x="460" y="476" on="0"/>
        <pt x="486" y="470" on="1"/>
        <pt x="555" y="710" on="1"/>
        <pt x="667" y="710" on="1"/>
      </contour>
      <contour>
        <pt x="380" y="389" on="1"/>
        <pt x="282" y="389" on="0"/>
        <pt x="158" y="272" on="0"/>
        <pt x="158" y="188" on="1"/>
        <pt x="158" y="140" on="0"/>
        <pt x="206" y="85" on="0"/>
        <pt x="248" y="85" on="1"/>
        <pt x="282" y="85" on="0"/>
        <pt x="350" y="119" on="0"/>
        <pt x="397" y="158" on="1"/>
        <pt x="459" y="374" on="1"/>
        <pt x="440" y="381" on="0"/>
        <pt x="400" y="389" on="0"/>
      </contour>
    </TTGlyph>
    <TTGlyph name="dagger" xMin="128" yMin="0" xMax="621" yMax="710">
      <contour>
        <pt x="621" y="527" on="1"/>
        <pt x="592" y="425" on="1"/>
        <pt x="572" y="425" on="0"/>
        <pt x="526" y="432" on="0"/>
        <pt x="482" y="443" on="1"/>
        <pt x="446" y="451" on="0"/>
        <pt x="411" y="458" on="0"/>
        <pt x="395" y="459" on="1"/>
        <pt x="384" y="420" on="0"/>
        <pt x="364" y="327" on="0"/>
        <pt x="346" y="234" on="1"/>
        <pt x="327" y="137" on="0"/>
        <pt x="306" y="41" on="0"/>
        <pt x="294" y="0" on="1"/>
        <pt x="182" y="0" on="1"/>
        <pt x="194" y="41" on="0"/>
        <pt x="228" y="138" on="0"/>
        <pt x="266" y="235" on="1"/>
        <pt x="302" y="327" on="0"/>
        <pt x="334" y="420" on="0"/>
        <pt x="346" y="459" on="1"/>
        <pt x="329" y="458" on="0"/>
        <pt x="287" y="451" on="0"/>
        <pt x="245" y="442" on="1"/>
        <pt x="194" y="431" on="0"/>
        <pt x="147" y="425" on="0"/>
        <pt x="128" y="425" on="1"/>
        <pt x="157" y="527" on="1"/>
        <pt x="176" y="527" on="0"/>
        <pt x="220" y="521" on="0"/>
        <pt x="265" y="511" on="1"/>
        <pt x="302" y="503" on="0"/>
        <pt x="340" y="497" on="0"/>
        <pt x="356" y="496" on="1"/>
        <pt x="360" y="513" on="0"/>
        <pt x="365" y="554" on="0"/>
        <pt x="369" y="594" on="1"/>
        <pt x="373" y="642" on="0"/>
        <pt x="380" y="690" on="0"/>
        <pt x="386" y="710" on="1"/>
        <pt x="498" y="710" on="1"/>
        <pt x="492" y="690" on="0"/>
        <pt x="472" y="643" on="0"/>
        <pt x="449" y="595" on="1"/>
        <pt x="430" y="554" on="0"/>
        <pt x="412" y="513" on="0"/>
        <pt x="406" y="496" on="1"/>
        <pt x="422" y="497" on="0"/>
        <pt x="460" y="503" on="0"/>
        <pt x="499" y="511" on="1"/>
        <pt x="551" y="521" on="0"/>
        <pt x="601" y="527" on="0"/>
      </contour>
    </TTGlyph>
    <TTGlyph name="daggerdbl" xMin="75" yMin="0" xMax="621" yMax="710">
      <contour>
        <pt x="537" y="287" on="1"/>
        <pt x="508" y="185" on="1"/>
        <pt x="489" y="185" on="0"/>
        <pt x="445" y="192" on="0"/>
        <pt x="403" y="203" on="1"/>
        <pt x="372" y="211" on="0"/>
        <pt x="340" y="217" on="0"/>
        <pt x="326" y="219" on="1"/>
        <pt x="322" y="201" on="0"/>
        <pt x="315" y="159" on="0"/>
        <pt x="311" y="118" on="1"/>
        <pt x="305" y="69" on="0"/>
        <pt x="297" y="21" on="0"/>
        <pt x="291" y="0" on="1"/>
        <pt x="185" y="0" on="1"/>
        <pt x="191" y="21" on="0"/>
        <pt x="210" y="69" on="0"/>
        <pt x="234" y="118" on="1"/>
        <pt x="254" y="160" on="0"/>
        <pt x="271" y="201" on="0"/>
        <pt x="277" y="219" on="1"/>
        <pt x="262" y="218" on="0"/>
        <pt x="226" y="211" on="0"/>
        <pt x="190" y="203" on="1"/>
        <pt x="142" y="192" on="0"/>
        <pt x="95" y="185" on="0"/>
        <pt x="75" y="185" on="1"/>
        <pt x="104" y="287" on="1"/>
        <pt x="124" y="287" on="0"/>
        <pt x="168" y="281" on="0"/>
        <pt x="211" y="271" on="1"/>
        <pt x="242" y="263" on="0"/>
        <pt x="274" y="257" on="0"/>
        <pt x="288" y="256" on="1"/>
        <pt x="346" y="459" on="1"/>
        <pt x="330" y="458" on="0"/>
        <pt x="290" y="451" on="0"/>
        <pt x="250" y="443" on="1"/>
        <pt x="198" y="432" on="0"/>
        <pt x="148" y="425" on="0"/>
        <pt x="128" y="425" on="1"/>
        <pt x="157" y="527" on="1"/>
        <pt x="178" y="527" on="0"/>
        <pt x="224" y="521" on="0"/>
        <pt x="269" y="511" on="1"/>
        <pt x="305" y="503" on="0"/>
        <pt x="340" y="497" on="0"/>
        <pt x="356" y="496" on="1"/>
        <pt x="360" y="513" on="0"/>
        <pt x="365" y="553" on="0"/>
        <pt x="368" y="593" on="1"/>
        <pt x="372" y="641" on="0"/>
        <pt x="380" y="689" on="0"/>
        <pt x="386" y="710" on="1"/>
        <pt x="498" y="710" on="1"/>
        <pt x="492" y="690" on="0"/>
        <pt x="472" y="642" on="0"/>
        <pt x="449" y="593" on="1"/>
        <pt x="429" y="553" on="0"/>
        <pt x="412" y="513" on="0"/>
        <pt x="406" y="496" on="1"/>
        <pt x="422" y="497" on="0"/>
        <pt x="461" y="503" on="0"/>
        <pt x="500" y="511" on="1"/>
        <pt x="551" y="521" on="0"/>
        <pt x="601" y="527" on="0"/>
        <pt x="621" y="527" on="1"/>
        <pt x="592" y="425" on="1"/>
        <pt x="573" y="425" on="0"/>
        <pt x="529" y="432" on="0"/>
        <pt x="484" y="442" on="1"/>
        <pt x="447" y="451" on="0"/>
        <pt x="410" y="458" on="0"/>
        <pt x="394" y="459" on="1"/>
        <pt x="336" y="256" on="1"/>
        <pt x="351" y="257" on="0"/>
        <pt x="387" y="263" on="0"/>
        <pt x="424" y="271" on="1"/>
        <pt x="471" y="281" on="0"/>
        <pt x="518" y="287" on="0"/>
      </contour>
    </TTGlyph>
    <TTGlyph name="dcaron" xMin="41" yMin="-8" xMax="904" yMax="788">
      <component glyphName="d" x="0" y="0" flags="0x204"/>
      <component glyphName="uni0315" x="667" y="78" flags="0x4"/>
    </TTGlyph>
    <TTGlyph name="dcroat" xMin="41" yMin="-8" xMax="695" yMax="710">
      <contour>
        <pt x="446" y="0" on="1"/>
        <pt x="362" y="0" on="1"/>
        <pt x="361" y="60" on="1"/>
        <pt x="319" y="25" on="0"/>
        <pt x="238" y="-8" on="0"/>
        <pt x="194" y="-8" on="1"/>
        <pt x="126" y="-8" on="0"/>
        <pt x="41" y="84" on="0"/>
        <pt x="41" y="160" on="1"/>
        <pt x="41" y="276" on="0"/>
        <pt x="213" y="427" on="0"/>
        <pt x="349" y="427" on="1"/>
        <pt x="377" y="427" on="0"/>
        <pt x="427" y="419" on="0"/>
        <pt x="452" y="410" on="1"/>
        <pt x="484" y="523" on="1"/>
        <pt x="328" y="523" on="1"/>
        <pt x="347" y="589" on="1"/>
        <pt x="503" y="589" on="1"/>
        <pt x="538" y="710" on="1"/>
        <pt x="650" y="710" on="1"/>
        <pt x="615" y="589" on="1"/>
        <pt x="695" y="589" on="1"/>
        <pt x="676" y="523" on="1"/>
        <pt x="596" y="523" on="1"/>
      </contour>
      <contour>
        <pt x="349" y="341" on="1"/>
        <pt x="264" y="341" on="0"/>
        <pt x="158" y="244" on="0"/>
        <pt x="158" y="174" on="1"/>
        <pt x="158" y="132" on="0"/>
        <pt x="202" y="85" on="0"/>
        <pt x="240" y="85" on="1"/>
        <pt x="272" y="85" on="0"/>
        <pt x="334" y="114" on="0"/>
        <pt x="376" y="147" on="1"/>
        <pt x="426" y="323" on="1"/>
        <pt x="408" y="332" on="0"/>
        <pt x="370" y="341" on="0"/>
      </contour>
    </TTGlyph>
    <TTGlyph name="degree" xMin="163" yMin="287" xMax="598" yMax="692">
      <contour>
        <pt x="598" y="527" on="1"/>
        <pt x="598" y="428" on="0"/>
        <pt x="457" y="287" on="0"/>
        <pt x="355" y="287" on="1"/>
        <pt x="267" y="287" on="0"/>
        <pt x="163" y="377" on="0"/>
        <pt x="163" y="452" on="1"/>
        <pt x="163" y="551" on="0"/>
        <pt x="304" y="692" on="0"/>
        <pt x="405" y="692" on="1"/>
        <pt x="494" y="692" on="0"/>
        <pt x="598" y="602" on="0"/>
      </contour>
      <contour>
        <pt x="505" y="522" on="1"/>
        <pt x="505" y="563" on="0"/>
        <pt x="451" y="613" on="0"/>
        <pt x="406" y="613" on="1"/>
        <pt x="345" y="613" on="0"/>
        <pt x="255" y="520" on="0"/>
        <pt x="255" y="457" on="1"/>
        <pt x="255" y="416" on="0"/>
        <pt x="310" y="366" on="0"/>
        <pt x="355" y="366" on="1"/>
        <pt x="416" y="366" on="0"/>
        <pt x="505" y="460" on="0"/>
      </contour>
    </TTGlyph>
    <TTGlyph name="dieresis" xMin="235" yMin="567" xMax="606" yMax="692">
      <component glyphName="uni0308" x="307" y="0" flags="0x4"/>
    </TTGlyph>
    <TTGlyph name="divide" xMin="80" yMin="45" xMax="587" yMax="614">
      <contour>
        <pt x="486" y="563" on="1"/>
        <pt x="486" y="524" on="0"/>
        <pt x="432" y="477" on="0"/>
        <pt x="386" y="477" on="1"/>
        <pt x="348" y="477" on="0"/>
        <pt x="310" y="502" on="0"/>
        <pt x="310" y="527" on="1"/>
        <pt x="310" y="566" on="0"/>
        <pt x="363" y="614" on="0"/>
        <pt x="409" y="614" on="1"/>
        <pt x="447" y="614" on="0"/>
        <pt x="486" y="588" on="0"/>
      </contour>
      <contour>
        <pt x="561" y="283" on="1"/>
        <pt x="80" y="283" on="1"/>
        <pt x="106" y="374" on="1"/>
        <pt x="587" y="374" on="1"/>
      </contour>
      <contour>
        <pt x="361" y="130" on="1"/>
        <pt x="361" y="90" on="0"/>
        <pt x="308" y="45" on="0"/>
        <pt x="260" y="45" on="1"/>
        <pt x="223" y="45" on="0"/>
        <pt x="185" y="70" on="0"/>
        <pt x="185" y="94" on="1"/>
        <pt x="185" y="134" on="0"/>
        <pt x="238" y="181" on="0"/>
        <pt x="284" y="181" on="1"/>
        <pt x="322" y="181" on="0"/>
        <pt x="361" y="155" on="0"/>
      </contour>
    </TTGlyph>
    <TTGlyph name="dollar" xMin="23" yMin="-142" xMax="621" yMax="797">
      <contour>
        <pt x="251" y="1" on="1"/>
        <pt x="202" y="-142" on="1"/>
        <pt x="126" y="-142" on="1"/>
        <pt x="177" y="12" on="1"/>
        <pt x="144" y="18" on="0"/>
        <pt x="71" y="41" on="0"/>
        <pt x="23" y="61" on="1"/>
        <pt x="58" y="153" on="1"/>
        <pt x="134" y="121" on="0"/>
        <pt x="251" y="92" on="0"/>
        <pt x="300" y="92" on="1"/>
        <pt x="361" y="92" on="0"/>
        <pt x="424" y="136" on="0"/>
        <pt x="424" y="178" on="1"/>
        <pt x="424" y="208" on="0"/>
        <pt x="386" y="250" on="0"/>
        <pt x="340" y="275" on="1"/>
        <pt x="274" y="310" on="1"/>
        <pt x="210" y="346" on="0"/>
        <pt x="155" y="421" on="0"/>
        <pt x="155" y="475" on="1"/>
        <pt x="155" y="555" on="0"/>
        <pt x="285" y="655" on="0"/>
        <pt x="394" y="655" on="1"/>
        <pt x="409" y="655" on="0"/>
        <pt x="424" y="655" on="0"/>
        <pt x="430" y="654" on="1"/>
        <pt x="478" y="797" on="1"/>
        <pt x="555" y="797" on="1"/>
        <pt x="503" y="645" on="1"/>
        <pt x="531" y="640" on="0"/>
        <pt x="589" y="625" on="0"/>
        <pt x="621" y="614" on="1"/>
        <pt x="592" y="522" on="1"/>
        <pt x="532" y="543" on="0"/>
        <pt x="436" y="563" on="0"/>
        <pt x="392" y="563" on="1"/>
        <pt x="332" y="563" on="0"/>
        <pt x="269" y="521" on="0"/>
        <pt x="269" y="482" on="1"/>
        <pt x="269" y="456" on="0"/>
        <pt x="301" y="417" on="0"/>
        <pt x="339" y="397" on="1"/>
        <pt x="404" y="362" on="1"/>
        <pt x="482" y="320" on="0"/>
        <pt x="539" y="248" on="0"/>
        <pt x="539" y="188" on="1"/>
        <pt x="539" y="100" on="0"/>
        <pt x="413" y="-1" on="0"/>
        <pt x="302" y="-1" on="1"/>
        <pt x="292" y="-1" on="0"/>
        <pt x="270" y="0" on="0"/>
      </contour>
    </TTGlyph>
    <TTGlyph name="dong" xMin="-42" yMin="-169" xMax="690" yMax="655">
      <contour>
        <pt x="447" y="-1" on="1"/>
        <pt x="364" y="-1" on="1"/>
        <pt x="365" y="67" on="1"/>
        <pt x="321" y="28" on="0"/>
        <pt x="240" y="-8" on="0"/>
        <pt x="196" y="-8" on="1"/>
        <pt x="125" y="-8" on="0"/>
        <pt x="37" y="77" on="0"/>
        <pt x="37" y="149" on="1"/>
        <pt x="37" y="264" on="0"/>
        <pt x="208" y="415" on="0"/>
        <pt x="341" y="415" on="1"/>
        <pt x="367" y="415" on="0"/>
        <pt x="421" y="409" on="0"/>
        <pt x="450" y="402" on="1"/>
        <pt x="478" y="498" on="1"/>
        <pt x="323" y="498" on="1"/>
        <pt x="342" y="563" on="1"/>
        <pt x="497" y="563" on="1"/>
        <pt x="523" y="655" on="1"/>
        <pt x="635" y="655" on="1"/>
        <pt x="609" y="563" on="1"/>
        <pt x="690" y="563" on="1"/>
        <pt x="671" y="498" on="1"/>
        <pt x="590" y="498" on="1"/>
      </contour>
      <contour>
        <pt x="349" y="333" on="1"/>
        <pt x="263" y="333" on="0"/>
        <pt x="156" y="236" on="0"/>
        <pt x="156" y="165" on="1"/>
        <pt x="156" y="128" on="0"/>
        <pt x="202" y="83" on="0"/>
        <pt x="240" y="83" on="1"/>
        <pt x="272" y="83" on="0"/>
        <pt x="334" y="114" on="0"/>
        <pt x="378" y="150" on="1"/>
        <pt x="426" y="319" on="1"/>
        <pt x="409" y="326" on="0"/>
        <pt x="370" y="333" on="0"/>
      </contour>
      <contour>
        <pt x="391" y="-169" on="1"/>
        <pt x="-42" y="-169" on="1"/>
        <pt x="-21" y="-96" on="1"/>
        <pt x="412" y="-96" on="1"/>
      </contour>
    </TTGlyph>
    <TTGlyph name="dotaccent" xMin="349" yMin="567" xMax="495" yMax="699">
      <component glyphName="uni0307" x="307" y="0" flags="0x4"/>
    </TTGlyph>
    <TTGlyph name="dotlessi" xMin="37" yMin="0" xMax="500" yMax="471">
      <contour>
        <pt x="37" y="0" on="1"/>
        <pt x="64" y="95" on="1"/>
        <pt x="217" y="95" on="1"/>
        <pt x="315" y="376" on="1"/>
        <pt x="165" y="376" on="1"/>
        <pt x="192" y="471" on="1"/>
        <pt x="460" y="471" on="1"/>
        <pt x="329" y="95" on="1"/>
        <pt x="500" y="95" on="1"/>
        <pt x="473" y="0" on="1"/>
      </contour>
    </TTGlyph>
    <TTGlyph name="e" xMin="57" yMin="-10" xMax="576" yMax="486">
      <contour>
        <pt x="423" y="81" on="1"/>
        <pt x="396" y="-10" on="1"/>
        <pt x="322" y="-10" on="0"/>
        <pt x="215" y="0" on="0"/>
        <pt x="177" y="10" on="1"/>
        <pt x="113" y="27" on="0"/>
        <pt x="57" y="99" on="0"/>
        <pt x="57" y="169" on="1"/>
        <pt x="57" y="229" on="0"/>
        <pt x="113" y="348" on="0"/>
        <pt x="163" y="394" on="1"/>
        <pt x="212" y="438" on="0"/>
        <pt x="332" y="486" on="0"/>
        <pt x="397" y="486" on="1"/>
        <pt x="481" y="486" on="0"/>
        <pt x="576" y="414" on="0"/>
        <pt x="576" y="352" on="1"/>
        <pt x="576" y="278" on="0"/>
        <pt x="458" y="202" on="0"/>
        <pt x="331" y="190" on="1"/>
        <pt x="170" y="177" on="1"/>
        <pt x="170" y="175" on="0"/>
        <pt x="170" y="174" on="0"/>
        <pt x="170" y="172" on="1"/>
        <pt x="170" y="117" on="0"/>
        <pt x="272" y="81" on="0"/>
      </contour>
      <contour>
        <pt x="465" y="343" on="1"/>
        <pt x="465" y="368" on="0"/>
        <pt x="422" y="397" on="0"/>
        <pt x="386" y="397" on="1"/>
        <pt x="319" y="397" on="0"/>
        <pt x="204" y="313" on="0"/>
        <pt x="181" y="249" on="1"/>
        <pt x="330" y="265" on="1"/>
        <pt x="399" y="272" on="0"/>
        <pt x="465" y="310" on="0"/>
      </contour>
    </TTGlyph>
    <TTGlyph name="eacute" xMin="57" yMin="-10" xMax="617" yMax="755">
      <component glyphName="e" x="0" y="0" flags="0x204"/>
      <component glyphName="uni0301" x="319" y="5" flags="0x4"/>
    </TTGlyph>
    <TTGlyph name="ebreve" xMin="57" yMin="-10" xMax="649" yMax="750">
      <component glyphName="e" x="0" y="0" flags="0x204"/>
      <component glyphName="uni0306" x="319" y="5" flags="0x4"/>
    </TTGlyph>
    <TTGlyph name="ecaron" xMin="57" yMin="-10" xMax="636" yMax="757">
      <component glyphName="e" x="0" y="0" flags="0x204"/>
      <component glyphName="uni030C" x="319" y="5" flags="0x4"/>
    </TTGlyph>
    <TTGlyph name="ecircumflex" xMin="57" yMin="-10" xMax="602" yMax="751">
      <component glyphName="e" x="0" y="0" flags="0x204"/>
      <component glyphName="uni0302" x="318" y="-1" flags="0x4"/>
    </TTGlyph>
    <TTGlyph name="edieresis" xMin="57" yMin="-10" xMax="618" yMax="697">
      <component glyphName="e" x="0" y="0" flags="0x204"/>
      <component glyphName="uni0308" x="319" y="5" flags="0x4"/>
    </TTGlyph>
    <TTGlyph name="edotaccent" xMin="57" yMin="-10" xMax="576" yMax="704">
      <component glyphName="e" x="0" y="0" flags="0x204"/>
      <component glyphName="uni0307" x="319" y="5" flags="0x4"/>
    </TTGlyph>
    <TTGlyph name="egrave" xMin="57" yMin="-10" xMax="576" yMax="751">
      <component glyphName="e" x="0" y="0" flags="0x204"/>
      <component glyphName="uni0300" x="319" y="5" flags="0x4"/>
    </TTGlyph>
    <TTGlyph name="eight" xMin="47" yMin="-15" xMax="603" yMax="670">
      <contour>
        <pt x="531" y="189" on="1"/>
        <pt x="531" y="101" on="0"/>
        <pt x="383" y="-15" on="0"/>
        <pt x="273" y="-15" on="1"/>
        <pt x="170" y="-15" on="0"/>
        <pt x="47" y="76" on="0"/>
        <pt x="47" y="153" on="1"/>
        <pt x="47" y="226" on="0"/>
        <pt x="155" y="331" on="0"/>
        <pt x="246" y="345" on="1"/>
        <pt x="246" y="350" on="1"/>
        <pt x="204" y="369" on="0"/>
        <pt x="159" y="434" on="0"/>
        <pt x="159" y="475" on="1"/>
        <pt x="159" y="555" on="0"/>
        <pt x="292" y="670" on="0"/>
        <pt x="392" y="670" on="1"/>
        <pt x="489" y="670" on="0"/>
        <pt x="603" y="583" on="0"/>
        <pt x="603" y="510" on="1"/>
        <pt x="603" y="441" on="0"/>
        <pt x="511" y="344" on="0"/>
        <pt x="432" y="330" on="1"/>
        <pt x="432" y="325" on="1"/>
        <pt x="479" y="304" on="0"/>
        <pt x="531" y="233" on="0"/>
      </contour>
      <contour>
        <pt x="394" y="582" on="1"/>
        <pt x="339" y="582" on="0"/>
        <pt x="262" y="508" on="0"/>
        <pt x="262" y="455" on="1"/>
        <pt x="262" y="417" on="0"/>
        <pt x="314" y="373" on="0"/>
        <pt x="357" y="373" on="1"/>
        <pt x="412" y="373" on="0"/>
        <pt x="493" y="449" on="0"/>
        <pt x="493" y="500" on="1"/>
        <pt x="493" y="538" on="0"/>
        <pt x="440" y="582" on="0"/>
      </contour>
      <contour>
        <pt x="311" y="298" on="1"/>
        <pt x="246" y="298" on="0"/>
        <pt x="159" y="220" on="0"/>
        <pt x="159" y="163" on="1"/>
        <pt x="159" y="121" on="0"/>
        <pt x="220" y="72" on="0"/>
        <pt x="272" y="72" on="1"/>
        <pt x="337" y="72" on="0"/>
        <pt x="425" y="151" on="0"/>
        <pt x="425" y="209" on="1"/>
        <pt x="425" y="249" on="0"/>
        <pt x="363" y="298" on="0"/>
      </contour>
    </TTGlyph>
    <TTGlyph name="eight.den" xMin="127" yMin="-15" xMax="477" yMax="395">
      <contour>
        <pt x="434" y="107" on="1"/>
        <pt x="434" y="55" on="0"/>
        <pt x="342" y="-15" on="0"/>
        <pt x="273" y="-15" on="1"/>
        <pt x="207" y="-15" on="0"/>
        <pt x="127" y="40" on="0"/>
        <pt x="127" y="87" on="1"/>
        <pt x="127" y="129" on="0"/>
        <pt x="193" y="191" on="0"/>
        <pt x="247" y="201" on="1"/>
        <pt x="247" y="203" on="1"/>
        <pt x="221" y="215" on="0"/>
        <pt x="193" y="254" on="0"/>
        <pt x="193" y="278" on="1"/>
        <pt x="193" y="325" on="0"/>
        <pt x="277" y="395" on="0"/>
        <pt x="340" y="395" on="1"/>
        <pt x="403" y="395" on="0"/>
        <pt x="477" y="341" on="0"/>
        <pt x="477" y="297" on="1"/>
        <pt x="477" y="256" on="0"/>
        <pt x="420" y="199" on="0"/>
        <pt x="370" y="191" on="1"/>
        <pt x="370" y="189" on="1"/>
        <pt x="400" y="176" on="0"/>
        <pt x="434" y="133" on="0"/>
      </contour>
      <contour>
        <pt x="342" y="335" on="1"/>
        <pt x="309" y="335" on="0"/>
        <pt x="264" y="296" on="0"/>
        <pt x="264" y="267" on="1"/>
        <pt x="264" y="246" on="0"/>
        <pt x="295" y="220" on="0"/>
        <pt x="321" y="220" on="1"/>
        <pt x="354" y="220" on="0"/>
        <pt x="401" y="261" on="0"/>
        <pt x="401" y="289" on="1"/>
        <pt x="401" y="311" on="0"/>
        <pt x="370" y="335" on="0"/>
      </contour>
      <contour>
        <pt x="293" y="169" on="1"/>
        <pt x="255" y="169" on="0"/>
        <pt x="204" y="126" on="0"/>
        <pt x="204" y="96" on="1"/>
        <pt x="204" y="72" on="0"/>
        <pt x="240" y="45" on="0"/>
        <pt x="272" y="45" on="1"/>
        <pt x="310" y="45" on="0"/>
        <pt x="362" y="87" on="0"/>
        <pt x="362" y="118" on="1"/>
        <pt x="362" y="141" on="0"/>
        <pt x="324" y="169" on="0"/>
      </contour>
    </TTGlyph>
    <TTGlyph name="eight.inf" xMin="62" yMin="-245" xMax="412" yMax="165">
      <component glyphName="eight.den" x="-65" y="-230" flags="0x4"/>
    </TTGlyph>
    <TTGlyph name="eight.num" xMin="205" yMin="260" xMax="555" yMax="670">
      <component glyphName="eight.den" x="78" y="275" flags="0x4"/>
    </TTGlyph>
    <TTGlyph name="eight.sup" xMin="221" yMin="315" xMax="571" yMax="725">
      <component glyphName="eight.den" x="94" y="330" flags="0x4"/>
    </TTGlyph>
    <TTGlyph name="ellipsis" xMin="-15" yMin="-15" xMax="534" yMax="147">
      <contour>
        <pt x="69" y="147" on="1"/>
        <pt x="97" y="147" on="0"/>
        <pt x="124" y="123" on="0"/>
        <pt x="124" y="99" on="1"/>
        <pt x="124" y="52" on="0"/>
        <pt x="77" y="-15" on="0"/>
        <pt x="41" y="-15" on="1"/>
        <pt x="12" y="-15" on="0"/>
        <pt x="-15" y="9" on="0"/>
        <pt x="-15" y="34" on="1"/>
        <pt x="-15" y="80" on="0"/>
        <pt x="33" y="147" on="0"/>
      </contour>
      <contour>
        <pt x="274" y="147" on="1"/>
        <pt x="302" y="147" on="0"/>
        <pt x="329" y="123" on="0"/>
        <pt x="329" y="99" on="1"/>
        <pt x="329" y="52" on="0"/>
        <pt x="282" y="-15" on="0"/>
        <pt x="246" y="-15" on="1"/>
        <pt x="217" y="-15" on="0"/>
        <pt x="190" y="9" on="0"/>
        <pt x="190" y="34" on="1"/>
        <pt x="190" y="80" on="0"/>
        <pt x="238" y="147" on="0"/>
      </contour>
      <contour>
        <pt x="479" y="147" on="1"/>
        <pt x="507" y="147" on="0"/>
        <pt x="534" y="123" on="0"/>
        <pt x="534" y="99" on="1"/>
        <pt x="534" y="52" on="0"/>
        <pt x="487" y="-15" on="0"/>
        <pt x="451" y="-15" on="1"/>
        <pt x="422" y="-15" on="0"/>
        <pt x="395" y="9" on="0"/>
        <pt x="395" y="34" on="1"/>
        <pt x="395" y="80" on="0"/>
        <pt x="443" y="147" on="0"/>
      </contour>
    </TTGlyph>
    <TTGlyph name="emacron" xMin="57" yMin="-10" xMax="611" yMax="671">
      <component glyphName="e" x="0" y="0" flags="0x204"/>
      <component glyphName="uni0304" x="319" y="5" flags="0x4"/>
    </TTGlyph>
    <TTGlyph name="emdash" xMin="61" yMin="274" xMax="607" yMax="384">
      <contour>
        <pt x="61" y="274" on="1"/>
        <pt x="93" y="384" on="1"/>
        <pt x="607" y="384" on="1"/>
        <pt x="575" y="274" on="1"/>
      </contour>
    </TTGlyph>
    <TTGlyph name="endash" xMin="91" yMin="274" xMax="577" yMax="384">
      <contour>
        <pt x="91" y="274" on="1"/>
        <pt x="123" y="384" on="1"/>
        <pt x="577" y="384" on="1"/>
        <pt x="545" y="274" on="1"/>
      </contour>
    </TTGlyph>
    <TTGlyph name="eng" xMin="20" yMin="-237" xMax="565" yMax="479">
      <contour>
        <pt x="553" y="311" on="1"/>
        <pt x="471" y="26" on="1"/>
        <pt x="448" y="-54" on="0"/>
        <pt x="403" y="-144" on="0"/>
        <pt x="373" y="-171" on="1"/>
        <pt x="342" y="-199" on="0"/>
        <pt x="246" y="-228" on="0"/>
        <pt x="166" y="-233" on="1"/>
        <pt x="93" y="-237" on="1"/>
        <pt x="93" y="-141" on="1"/>
        <pt x="168" y="-136" on="1"/>
        <pt x="212" y="-133" on="0"/>
        <pt x="274" y="-117" on="0"/>
        <pt x="295" y="-98" on="1"/>
        <pt x="317" y="-79" on="0"/>
        <pt x="348" y="-14" on="0"/>
        <pt x="362" y="38" on="1"/>
        <pt x="436" y="297" on="1"/>
        <pt x="440" y="311" on="0"/>
        <pt x="444" y="331" on="0"/>
        <pt x="444" y="338" on="1"/>
        <pt x="444" y="356" on="0"/>
        <pt x="422" y="375" on="0"/>
        <pt x="403" y="375" on="1"/>
        <pt x="372" y="375" on="0"/>
        <pt x="289" y="316" on="0"/>
        <pt x="201" y="237" on="1"/>
        <pt x="133" y="0" on="1"/>
        <pt x="20" y="0" on="1"/>
        <pt x="155" y="471" on="1"/>
        <pt x="256" y="471" on="1"/>
        <pt x="228" y="354" on="1"/>
        <pt x="311" y="426" on="0"/>
        <pt x="405" y="479" on="0"/>
        <pt x="458" y="479" on="1"/>
        <pt x="508" y="479" on="0"/>
        <pt x="565" y="428" on="0"/>
        <pt x="565" y="383" on="1"/>
        <pt x="565" y="368" on="0"/>
        <pt x="559" y="333" on="0"/>
      </contour>
    </TTGlyph>
    <TTGlyph name="eogonek" xMin="57" yMin="-234" xMax="576" yMax="486">
      <contour>
        <pt x="423" y="81" on="1"/>
        <pt x="272" y="81" on="0"/>
        <pt x="170" y="117" on="0"/>
        <pt x="170" y="172" on="1"/>
        <pt x="170" y="173" on="0"/>
        <pt x="170" y="176" on="0"/>
        <pt x="170" y="177" on="1"/>
        <pt x="331" y="190" on="1"/>
        <pt x="458" y="202" on="0"/>
        <pt x="576" y="278" on="0"/>
        <pt x="576" y="352" on="1"/>
        <pt x="576" y="414" on="0"/>
        <pt x="481" y="486" on="0"/>
        <pt x="397" y="486" on="1"/>
        <pt x="332" y="486" on="0"/>
        <pt x="212" y="438" on="0"/>
        <pt x="163" y="394" on="1"/>
        <pt x="113" y="348" on="0"/>
        <pt x="57" y="229" on="0"/>
        <pt x="57" y="169" on="1"/>
        <pt x="57" y="99" on="0"/>
        <pt x="113" y="27" on="0"/>
        <pt x="177" y="10" on="1"/>
        <pt x="215" y="0" on="0"/>
        <pt x="299" y="-8" on="0"/>
        <pt x="337" y="-9" on="1"/>
        <pt x="251" y="-81" on="0"/>
        <pt x="206" y="-138" on="0"/>
        <pt x="206" y="-168" on="1"/>
        <pt x="206" y="-200" on="0"/>
        <pt x="252" y="-229" on="0"/>
        <pt x="304" y="-231" on="1"/>
        <pt x="377" y="-234" on="1"/>
        <pt x="406" y="-160" on="1"/>
        <pt x="348" y="-156" on="1"/>
        <pt x="324" y="-155" on="0"/>
        <pt x="305" y="-145" on="0"/>
        <pt x="305" y="-133" on="1"/>
        <pt x="305" y="-115" on="0"/>
        <pt x="346" y="-62" on="0"/>
        <pt x="396" y="-10" on="1"/>
      </contour>
      <contour>
        <pt x="181" y="249" on="1"/>
        <pt x="204" y="313" on="0"/>
        <pt x="319" y="397" on="0"/>
        <pt x="386" y="397" on="1"/>
        <pt x="422" y="397" on="0"/>
        <pt x="465" y="368" on="0"/>
        <pt x="465" y="343" on="1"/>
        <pt x="465" y="310" on="0"/>
        <pt x="399" y="272" on="0"/>
        <pt x="330" y="265" on="1"/>
      </contour>
    </TTGlyph>
    <TTGlyph name="equal" xMin="68" yMin="179" xMax="599" yMax="478">
      <contour>
        <pt x="573" y="387" on="1"/>
        <pt x="127" y="387" on="1"/>
        <pt x="153" y="478" on="1"/>
        <pt x="599" y="478" on="1"/>
      </contour>
      <contour>
        <pt x="514" y="179" on="1"/>
        <pt x="68" y="179" on="1"/>
        <pt x="94" y="270" on="1"/>
        <pt x="540" y="270" on="1"/>
      </contour>
    </TTGlyph>
    <TTGlyph name="eth" xMin="38" yMin="-15" xMax="596" yMax="756">
      <contour>
        <pt x="452" y="677" on="1"/>
        <pt x="548" y="756" on="1"/>
        <pt x="587" y="713" on="1"/>
        <pt x="498" y="644" on="1"/>
        <pt x="546" y="603" on="0"/>
        <pt x="596" y="487" on="0"/>
        <pt x="596" y="418" on="1"/>
        <pt x="596" y="317" on="0"/>
        <pt x="532" y="140" on="0"/>
        <pt x="473" y="81" on="1"/>
        <pt x="426" y="34" on="0"/>
        <pt x="309" y="-15" on="0"/>
        <pt x="244" y="-15" on="1"/>
        <pt x="149" y="-15" on="0"/>
        <pt x="38" y="79" on="0"/>
        <pt x="38" y="160" on="1"/>
        <pt x="38" y="273" on="0"/>
        <pt x="190" y="423" on="0"/>
        <pt x="312" y="423" on="1"/>
        <pt x="361" y="423" on="0"/>
        <pt x="440" y="402" on="0"/>
        <pt x="483" y="379" on="1"/>
        <pt x="485" y="392" on="0"/>
        <pt x="487" y="418" on="0"/>
        <pt x="487" y="432" on="1"/>
        <pt x="487" y="478" on="0"/>
        <pt x="456" y="549" on="0"/>
        <pt x="424" y="576" on="1"/>
        <pt x="296" y="470" on="1"/>
        <pt x="258" y="513" on="1"/>
        <pt x="377" y="607" on="1"/>
        <pt x="354" y="618" on="0"/>
        <pt x="301" y="637" on="0"/>
        <pt x="271" y="644" on="1"/>
        <pt x="320" y="725" on="1"/>
        <pt x="359" y="718" on="0"/>
        <pt x="425" y="694" on="0"/>
      </contour>
      <contour>
        <pt x="334" y="339" on="1"/>
        <pt x="258" y="339" on="0"/>
        <pt x="158" y="241" on="0"/>
        <pt x="158" y="168" on="1"/>
        <pt x="158" y="126" on="0"/>
        <pt x="208" y="78" on="0"/>
        <pt x="252" y="78" on="1"/>
        <pt x="285" y="78" on="0"/>
        <pt x="348" y="107" on="0"/>
        <pt x="376" y="135" on="1"/>
        <pt x="404" y="163" on="0"/>
        <pt x="450" y="249" on="0"/>
        <pt x="464" y="302" on="1"/>
        <pt x="430" y="322" on="0"/>
        <pt x="370" y="339" on="0"/>
      </contour>
    </TTGlyph>
    <TTGlyph name="exclam" xMin="150" yMin="-15" xMax="549" yMax="710">
      <contour>
        <pt x="351" y="258" on="1"/>
        <pt x="277" y="258" on="1"/>
        <pt x="339" y="710" on="1"/>
        <pt x="549" y="710" on="1"/>
      </contour>
      <contour>
        <pt x="150" y="40" on="1"/>
        <pt x="150" y="85" on="0"/>
        <pt x="211" y="135" on="0"/>
        <pt x="268" y="135" on="1"/>
        <pt x="312" y="135" on="0"/>
        <pt x="356" y="107" on="0"/>
        <pt x="356" y="80" on="1"/>
        <pt x="356" y="35" on="0"/>
        <pt x="295" y="-15" on="0"/>
        <pt x="238" y="-15" on="1"/>
        <pt x="194" y="-15" on="0"/>
        <pt x="150" y="12" on="0"/>
      </contour>
    </TTGlyph>
    <TTGlyph name="exclamdown" xMin="135" yMin="0" xMax="534" yMax="725">
      <contour>
        <pt x="534" y="670" on="1"/>
        <pt x="534" y="625" on="0"/>
        <pt x="473" y="575" on="0"/>
        <pt x="416" y="575" on="1"/>
        <pt x="372" y="575" on="0"/>
        <pt x="328" y="603" on="0"/>
        <pt x="328" y="630" on="1"/>
        <pt x="328" y="675" on="0"/>
        <pt x="389" y="725" on="0"/>
        <pt x="446" y="725" on="1"/>
        <pt x="490" y="725" on="0"/>
        <pt x="534" y="698" on="0"/>
      </contour>
      <contour>
        <pt x="334" y="452" on="1"/>
        <pt x="408" y="452" on="1"/>
        <pt x="345" y="0" on="1"/>
        <pt x="135" y="0" on="1"/>
      </contour>
    </TTGlyph>
    <TTGlyph name="f" xMin="105" yMin="0" xMax="665" yMax="720">
      <contour>
        <pt x="257" y="365" on="1"/>
        <pt x="105" y="365" on="1"/>
        <pt x="132" y="460" on="1"/>
        <pt x="285" y="460" on="1"/>
        <pt x="297" y="503" on="1"/>
        <pt x="330" y="618" on="0"/>
        <pt x="437" y="702" on="0"/>
        <pt x="562" y="712" on="1"/>
        <pt x="665" y="720" on="1"/>
        <pt x="665" y="624" on="1"/>
        <pt x="545" y="616" on="1"/>
        <pt x="481" y="612" on="0"/>
        <pt x="424" y="568" on="0"/>
        <pt x="408" y="510" on="1"/>
        <pt x="394" y="460" on="1"/>
        <pt x="577" y="460" on="1"/>
        <pt x="550" y="365" on="1"/>
        <pt x="369" y="365" on="1"/>
        <pt x="264" y="0" on="1"/>
        <pt x="152" y="0" on="1"/>
      </contour>
    </TTGlyph>
    <TTGlyph name="five" xMin="17" yMin="-10" xMax="618" yMax="655">
      <contour>
        <pt x="382" y="422" on="1"/>
        <pt x="458" y="422" on="0"/>
        <pt x="545" y="346" on="0"/>
        <pt x="545" y="278" on="1"/>
        <pt x="545" y="155" on="0"/>
        <pt x="346" y="18" on="0"/>
        <pt x="146" y="1" on="1"/>
        <pt x="17" y="-10" on="1"/>
        <pt x="34" y="88" on="1"/>
        <pt x="156" y="99" on="1"/>
        <pt x="288" y="111" on="0"/>
        <pt x="428" y="197" on="0"/>
        <pt x="428" y="263" on="1"/>
        <pt x="428" y="297" on="0"/>
        <pt x="382" y="335" on="0"/>
        <pt x="339" y="335" on="1"/>
        <pt x="310" y="335" on="0"/>
        <pt x="237" y="312" on="0"/>
        <pt x="191" y="288" on="1"/>
        <pt x="116" y="302" on="1"/>
        <pt x="115" y="307" on="1"/>
        <pt x="238" y="655" on="1"/>
        <pt x="618" y="655" on="1"/>
        <pt x="590" y="561" on="1"/>
        <pt x="305" y="561" on="1"/>
        <pt x="242" y="389" on="1"/>
        <pt x="277" y="406" on="0"/>
        <pt x="345" y="422" on="0"/>
      </contour>
    </TTGlyph>
    <TTGlyph name="five.den" xMin="104" yMin="-10" xMax="473" yMax="380">
      <contour>
        <pt x="162" y="175" on="1"/>
        <pt x="234" y="380" on="1"/>
        <pt x="473" y="380" on="1"/>
        <pt x="456" y="318" on="1"/>
        <pt x="280" y="318" on="1"/>
        <pt x="246" y="226" on="1"/>
        <pt x="267" y="235" on="0"/>
        <pt x="308" y="244" on="0"/>
        <pt x="332" y="244" on="1"/>
        <pt x="379" y="244" on="0"/>
        <pt x="434" y="199" on="0"/>
        <pt x="434" y="160" on="1"/>
        <pt x="434" y="86" on="0"/>
        <pt x="312" y="5" on="0"/>
        <pt x="189" y="-4" on="1"/>
        <pt x="104" y="-10" on="1"/>
        <pt x="116" y="55" on="1"/>
        <pt x="198" y="62" on="1"/>
        <pt x="276" y="69" on="0"/>
        <pt x="356" y="112" on="0"/>
        <pt x="356" y="146" on="1"/>
        <pt x="356" y="165" on="0"/>
        <pt x="329" y="186" on="0"/>
        <pt x="304" y="186" on="1"/>
        <pt x="283" y="186" on="0"/>
        <pt x="236" y="173" on="0"/>
        <pt x="210" y="160" on="1"/>
        <pt x="163" y="172" on="1"/>
      </contour>
    </TTGlyph>
    <TTGlyph name="five.inf" xMin="39" yMin="-240" xMax="408" yMax="150">
      <component glyphName="five.den" x="-65" y="-230" flags="0x4"/>
    </TTGlyph>
    <TTGlyph name="five.num" xMin="182" yMin="265" xMax="551" yMax="655">
      <component glyphName="five.den" x="78" y="275" flags="0x4"/>
    </TTGlyph>
    <TTGlyph name="five.sup" xMin="198" yMin="320" xMax="567" yMax="710">
      <component glyphName="five.den" x="94" y="330" flags="0x4"/>
    </TTGlyph>
    <TTGlyph name="fiveeighths" xMin="0" yMin="-245" xMax="614" yMax="655">
      <component glyphName="eight.den" x="133" y="-230" flags="0x4"/>
      <component glyphName="fracbar" x="0" y="0" flags="0x204"/>
      <component glyphName="five.den" x="-62" y="275" flags="0x4"/>
    </TTGlyph>
    <TTGlyph name="fivesixths" xMin="0" yMin="-245" xMax="614" yMax="655">
      <component glyphName="five.den" x="-62" y="275" flags="0x4"/>
      <component glyphName="six.den" x="106" y="-230" flags="0x4"/>
      <component glyphName="fracbar" x="0" y="0" flags="0x204"/>
    </TTGlyph>
    <TTGlyph name="four" xMin="24" yMin="0" xMax="598" yMax="655">
      <contour>
        <pt x="324" y="164" on="1"/>
        <pt x="24" y="164" on="1"/>
        <pt x="46" y="242" on="1"/>
        <pt x="451" y="655" on="1"/>
        <pt x="598" y="655" on="1"/>
        <pt x="463" y="254" on="1"/>
        <pt x="593" y="254" on="1"/>
        <pt x="567" y="164" on="1"/>
        <pt x="432" y="164" on="1"/>
        <pt x="377" y="0" on="1"/>
        <pt x="270" y="0" on="1"/>
      </contour>
      <contour>
        <pt x="359" y="244" on="1"/>
        <pt x="473" y="576" on="1"/>
        <pt x="153" y="247" on="1"/>
        <pt x="153" y="244" on="1"/>
      </contour>
    </TTGlyph>
    <TTGlyph name="four.den" xMin="115" yMin="0" xMax="469" yMax="380">
      <contour>
        <pt x="296" y="93" on="1"/>
        <pt x="115" y="93" on="1"/>
        <pt x="130" y="146" on="1"/>
        <pt x="370" y="380" on="1"/>
        <pt x="468" y="380" on="1"/>
        <pt x="391" y="154" on="1"/>
        <pt x="469" y="154" on="1"/>
        <pt x="451" y="93" on="1"/>
        <pt x="371" y="93" on="1"/>
        <pt x="339" y="0" on="1"/>
        <pt x="266" y="0" on="1"/>
      </contour>
      <contour>
        <pt x="319" y="147" on="1"/>
        <pt x="384" y="332" on="1"/>
        <pt x="197" y="149" on="1"/>
        <pt x="197" y="147" on="1"/>
      </contour>
    </TTGlyph>
    <TTGlyph name="four.inf" xMin="50" yMin="-230" xMax="404" yMax="150">
      <component glyphName="four.den" x="-65" y="-230" flags="0x4"/>
    </TTGlyph>
    <TTGlyph name="four.num" xMin="193" yMin="275" xMax="547" yMax="655">
      <component glyphName="four.den" x="78" y="275" flags="0x4"/>
    </TTGlyph>
    <TTGlyph name="four.sup" xMin="209" yMin="330" xMax="563" yMax="710">
      <component glyphName="four.den" x="94" y="330" flags="0x4"/>
    </TTGlyph>
    <TTGlyph name="fourfifths" xMin="0" yMin="-240" xMax="616" yMax="655">
      <component glyphName="four.den" x="-66" y="275" flags="0x4"/>
      <component glyphName="five.den" x="143" y="-230" flags="0x4"/>
      <component glyphName="fracbar" x="0" y="0" flags="0x204"/>
    </TTGlyph>
    <TTGlyph name="fracbar" xMin="0" yMin="-86" xMax="614" yMax="480">
      <contour>
        <pt x="614" y="411" on="1"/>
        <pt x="317" y="186" on="1"/>
        <pt x="60" y="-86" on="1"/>
        <pt x="0" y="-17" on="1"/>
        <pt x="299" y="208" on="1"/>
        <pt x="554" y="480" on="1"/>
      </contour>
    </TTGlyph>
    <TTGlyph name="fraction" xMin="0" yMin="-2" xMax="614" yMax="657">
      <contour>
        <pt x="273" y="338" on="1"/>
        <pt x="514" y="657" on="1"/>
        <pt x="614" y="657" on="1"/>
        <pt x="337" y="315" on="1"/>
        <pt x="100" y="-2" on="1"/>
        <pt x="0" y="-2" on="1"/>
      </contour>
    </TTGlyph>
    <TTGlyph name="g" xMin="3" yMin="-239" xMax="588" yMax="482">
      <contour>
        <pt x="365" y="42" on="1"/>
        <pt x="378" y="87" on="1"/>
        <pt x="334" y="50" on="0"/>
        <pt x="252" y="16" on="0"/>
        <pt x="207" y="16" on="1"/>
        <pt x="135" y="16" on="0"/>
        <pt x="42" y="112" on="0"/>
        <pt x="42" y="191" on="1"/>
        <pt x="42" y="317" on="0"/>
        <pt x="233" y="482" on="0"/>
        <pt x="383" y="482" on="1"/>
        <pt x="436" y="482" on="0"/>
        <pt x="538" y="458" on="0"/>
        <pt x="588" y="433" on="1"/>
        <pt x="473" y="31" on="1"/>
        <pt x="449" y="-54" on="0"/>
        <pt x="396" y="-149" on="0"/>
        <pt x="357" y="-176" on="1"/>
        <pt x="321" y="-201" on="0"/>
        <pt x="212" y="-228" on="0"/>
        <pt x="124" y="-233" on="1"/>
        <pt x="3" y="-239" on="1"/>
        <pt x="3" y="-144" on="1"/>
        <pt x="125" y="-138" on="1"/>
        <pt x="241" y="-132" on="0"/>
        <pt x="335" y="-62" on="0"/>
      </contour>
      <contour>
        <pt x="380" y="389" on="1"/>
        <pt x="282" y="389" on="0"/>
        <pt x="160" y="283" on="0"/>
        <pt x="160" y="206" on="1"/>
        <pt x="160" y="161" on="0"/>
        <pt x="210" y="109" on="0"/>
        <pt x="253" y="109" on="1"/>
        <pt x="288" y="109" on="0"/>
        <pt x="357" y="144" on="0"/>
        <pt x="406" y="185" on="1"/>
        <pt x="459" y="374" on="1"/>
        <pt x="441" y="381" on="0"/>
        <pt x="401" y="389" on="0"/>
      </contour>
    </TTGlyph>
    <TTGlyph name="gbreve" xMin="3" yMin="-239" xMax="647" yMax="748">
      <component glyphName="g" x="0" y="0" flags="0x204"/>
      <component glyphName="uni0306" x="317" y="3" flags="0x4"/>
    </TTGlyph>
    <TTGlyph name="gcaron" xMin="3" yMin="-239" xMax="634" yMax="755">
      <component glyphName="g" x="0" y="0" flags="0x204"/>
      <component glyphName="uni030C" x="317" y="3" flags="0x4"/>
    </TTGlyph>
    <TTGlyph name="gcircumflex" xMin="3" yMin="-239" xMax="600" yMax="750">
      <component glyphName="g" x="0" y="0" flags="0x204"/>
      <component glyphName="uni0302" x="316" y="-2" flags="0x4"/>
    </TTGlyph>
    <TTGlyph name="gdotaccent" xMin="3" yMin="-239" xMax="588" yMax="702">
      <component glyphName="g" x="0" y="0" flags="0x204"/>
      <component glyphName="uni0307" x="317" y="3" flags="0x4"/>
    </TTGlyph>
    <TTGlyph name="germandbls" xMin="18" yMin="-4" xMax="626" yMax="725">
      <contour>
        <pt x="270" y="91" on="1"/>
        <pt x="345" y="97" on="1"/>
        <pt x="386" y="101" on="0"/>
        <pt x="428" y="141" on="0"/>
        <pt x="428" y="177" on="1"/>
        <pt x="428" y="203" on="0"/>
        <pt x="385" y="276" on="0"/>
        <pt x="337" y="334" on="1"/>
        <pt x="350" y="382" on="1"/>
        <pt x="383" y="410" on="0"/>
        <pt x="432" y="454" on="0"/>
        <pt x="450" y="472" on="1"/>
        <pt x="483" y="505" on="0"/>
        <pt x="509" y="550" on="0"/>
        <pt x="509" y="574" on="1"/>
        <pt x="509" y="601" on="0"/>
        <pt x="469" y="631" on="0"/>
        <pt x="432" y="631" on="1"/>
        <pt x="373" y="631" on="0"/>
        <pt x="289" y="557" on="0"/>
        <pt x="270" y="488" on="1"/>
        <pt x="130" y="0" on="1"/>
        <pt x="18" y="0" on="1"/>
        <pt x="163" y="507" on="1"/>
        <pt x="195" y="618" on="0"/>
        <pt x="333" y="725" on="0"/>
        <pt x="443" y="725" on="1"/>
        <pt x="528" y="725" on="0"/>
        <pt x="626" y="651" on="0"/>
        <pt x="626" y="588" on="1"/>
        <pt x="626" y="543" on="0"/>
        <pt x="581" y="465" on="0"/>
        <pt x="528" y="416" on="1"/>
        <pt x="512" y="401" on="0"/>
        <pt x="473" y="367" on="0"/>
        <pt x="450" y="348" on="1"/>
        <pt x="500" y="290" on="0"/>
        <pt x="545" y="207" on="0"/>
        <pt x="545" y="171" on="1"/>
        <pt x="545" y="90" on="0"/>
        <pt x="443" y="6" on="0"/>
        <pt x="339" y="0" on="1"/>
        <pt x="270" y="-4" on="1"/>
      </contour>
    </TTGlyph>
    <TTGlyph name="grave" xMin="260" yMin="385" xMax="489" yMax="710">
      <contour>
        <pt x="489" y="385" on="1"/>
        <pt x="385" y="385" on="1"/>
        <pt x="260" y="710" on="1"/>
        <pt x="425" y="710" on="1"/>
      </contour>
    </TTGlyph>
    <TTGlyph name="greater" xMin="25" yMin="67" xMax="589" yMax="575">
      <contour>
        <pt x="589" y="371" on="1"/>
        <pt x="560" y="269" on="1"/>
        <pt x="25" y="67" on="1"/>
        <pt x="57" y="178" on="1"/>
        <pt x="473" y="327" on="1"/>
        <pt x="142" y="477" on="1"/>
        <pt x="170" y="575" on="1"/>
      </contour>
    </TTGlyph>
    <TTGlyph name="greaterequal" xMin="24" yMin="0" xMax="600" yMax="669">
      <contour>
        <pt x="600" y="484" on="1"/>
        <pt x="571" y="382" on="1"/>
        <pt x="81" y="198" on="1"/>
        <pt x="112" y="308" on="1"/>
        <pt x="478" y="438" on="1"/>
        <pt x="187" y="570" on="1"/>
        <pt x="216" y="669" on="1"/>
      </contour>
      <contour>
        <pt x="487" y="91" on="1"/>
        <pt x="461" y="0" on="1"/>
        <pt x="24" y="0" on="1"/>
        <pt x="50" y="91" on="1"/>
      </contour>
    </TTGlyph>
    <TTGlyph name="guilsinglleft" xMin="132" yMin="-15" xMax="522" yMax="484">
      <contour>
        <pt x="276" y="226" on="1"/>
        <pt x="407" y="84" on="1"/>
        <pt x="378" y="-15" on="1"/>
        <pt x="132" y="189" on="1"/>
        <pt x="158" y="281" on="1"/>
        <pt x="522" y="484" on="1"/>
        <pt x="488" y="364" on="1"/>
      </contour>
    </TTGlyph>
    <TTGlyph name="guilsinglright" xMin="92" yMin="-15" xMax="482" yMax="484">
      <contour>
        <pt x="482" y="280" on="1"/>
        <pt x="456" y="188" on="1"/>
        <pt x="92" y="-15" on="1"/>
        <pt x="126" y="105" on="1"/>
        <pt x="338" y="243" on="1"/>
        <pt x="207" y="385" on="1"/>
        <pt x="236" y="484" on="1"/>
      </contour>
    </TTGlyph>
    <TTGlyph name="h" xMin="20" yMin="0" xMax="565" yMax="710">
      <contour>
        <pt x="224" y="710" on="1"/>
        <pt x="336" y="710" on="1"/>
        <pt x="236" y="361" on="1"/>
        <pt x="315" y="429" on="0"/>
        <pt x="407" y="479" on="0"/>
        <pt x="458" y="479" on="1"/>
        <pt x="509" y="479" on="0"/>
        <pt x="565" y="428" on="0"/>
        <pt x="565" y="383" on="1"/>
        <pt x="565" y="368" on="0"/>
        <pt x="559" y="333" on="0"/>
        <pt x="553" y="311" on="1"/>
        <pt x="463" y="0" on="1"/>
        <pt x="351" y="0" on="1"/>
        <pt x="436" y="297" on="1"/>
        <pt x="440" y="311" on="0"/>
        <pt x="444" y="330" on="0"/>
        <pt x="444" y="338" on="1"/>
        <pt x="444" y="356" on="0"/>
        <pt x="422" y="375" on="0"/>
        <pt x="403" y="375" on="1"/>
        <pt x="372" y="375" on="0"/>
        <pt x="289" y="317" on="0"/>
        <pt x="201" y="238" on="1"/>
        <pt x="133" y="0" on="1"/>
        <pt x="20" y="0" on="1"/>
      </contour>
    </TTGlyph>
    <TTGlyph name="hbar" xMin="34" yMin="0" xMax="550" yMax="710">
      <contour>
        <pt x="470" y="589" on="1"/>
        <pt x="451" y="523" on="1"/>
        <pt x="296" y="523" on="1"/>
        <pt x="235" y="311" on="1"/>
        <pt x="315" y="380" on="0"/>
        <pt x="401" y="428" on="0"/>
        <pt x="447" y="428" on="1"/>
        <pt x="496" y="428" on="0"/>
        <pt x="550" y="377" on="0"/>
        <pt x="550" y="331" on="1"/>
        <pt x="550" y="317" on="0"/>
        <pt x="544" y="281" on="0"/>
        <pt x="538" y="259" on="1"/>
        <pt x="463" y="0" on="1"/>
        <pt x="351" y="0" on="1"/>
        <pt x="421" y="246" on="1"/>
        <pt x="426" y="262" on="0"/>
        <pt x="429" y="279" on="0"/>
        <pt x="429" y="286" on="1"/>
        <pt x="429" y="304" on="0"/>
        <pt x="410" y="323" on="0"/>
        <pt x="393" y="323" on="1"/>
        <pt x="365" y="323" on="0"/>
        <pt x="293" y="271" on="0"/>
        <pt x="200" y="187" on="1"/>
        <pt x="146" y="0" on="1"/>
        <pt x="34" y="0" on="1"/>
        <pt x="184" y="523" on="1"/>
        <pt x="103" y="523" on="1"/>
        <pt x="122" y="589" on="1"/>
        <pt x="203" y="589" on="1"/>
        <pt x="238" y="710" on="1"/>
        <pt x="350" y="710" on="1"/>
        <pt x="315" y="589" on="1"/>
      </contour>
    </TTGlyph>
    <TTGlyph name="hcircumflex" xMin="20" yMin="0" xMax="565" yMax="959">
      <component glyphName="h" x="0" y="0" flags="0x204"/>
      <component glyphName="uni0302" x="202" y="207" flags="0x4"/>
    </TTGlyph>
    <TTGlyph name="hungarumlaut" xMin="218" yMin="547" xMax="674" yMax="749">
      <component glyphName="uni030B" x="307" y="0" flags="0x4"/>
    </TTGlyph>
    <TTGlyph name="hyphen" xMin="131" yMin="274" xMax="537" yMax="384">
      <contour>
        <pt x="131" y="274" on="1"/>
        <pt x="163" y="384" on="1"/>
        <pt x="537" y="384" on="1"/>
        <pt x="505" y="274" on="1"/>
      </contour>
    </TTGlyph>
    <TTGlyph name="i" xMin="37" yMin="0" xMax="514" yMax="740">
      <contour>
        <pt x="514" y="678" on="1"/>
        <pt x="514" y="639" on="0"/>
        <pt x="458" y="592" on="0"/>
        <pt x="410" y="592" on="1"/>
        <pt x="371" y="592" on="0"/>
        <pt x="329" y="624" on="0"/>
        <pt x="329" y="654" on="1"/>
        <pt x="329" y="692" on="0"/>
        <pt x="385" y="740" on="0"/>
        <pt x="433" y="740" on="1"/>
        <pt x="472" y="740" on="0"/>
        <pt x="514" y="708" on="0"/>
      </contour>
      <contour>
        <pt x="37" y="0" on="1"/>
        <pt x="64" y="95" on="1"/>
        <pt x="217" y="95" on="1"/>
        <pt x="315" y="376" on="1"/>
        <pt x="165" y="376" on="1"/>
        <pt x="192" y="471" on="1"/>
        <pt x="460" y="471" on="1"/>
        <pt x="329" y="95" on="1"/>
        <pt x="500" y="95" on="1"/>
        <pt x="473" y="0" on="1"/>
      </contour>
    </TTGlyph>
    <TTGlyph name="i.dot" xMin="37" yMin="0" xMax="502" yMax="699">
      <component glyphName="dotlessi" x="0" y="0" flags="0x204"/>
      <component glyphName="uni0307" x="314" y="0" flags="0x4"/>
    </TTGlyph>
    <TTGlyph name="iacute" xMin="37" yMin="0" xMax="612" yMax="750">
      <component glyphName="dotlessi" x="0" y="0" flags="0x204"/>
      <component glyphName="uni0301" x="314" y="0" flags="0x4"/>
    </TTGlyph>
    <TTGlyph name="ibreve" xMin="37" yMin="0" xMax="644" yMax="745">
      <component glyphName="dotlessi" x="0" y="0" flags="0x204"/>
      <component glyphName="uni0306" x="314" y="0" flags="0x4"/>
    </TTGlyph>
    <TTGlyph name="icircumflex" xMin="37" yMin="0" xMax="598" yMax="752">
      <component glyphName="dotlessi" x="0" y="0" flags="0x204"/>
      <component glyphName="uni0302" x="314" y="0" flags="0x4"/>
    </TTGlyph>
    <TTGlyph name="idieresis" xMin="37" yMin="0" xMax="613" yMax="692">
      <component glyphName="dotlessi" x="0" y="0" flags="0x204"/>
      <component glyphName="uni0308" x="314" y="0" flags="0x4"/>
    </TTGlyph>
    <TTGlyph name="igrave" xMin="37" yMin="0" xMax="504" yMax="746">
      <component glyphName="dotlessi" x="0" y="0" flags="0x204"/>
      <component glyphName="uni0300" x="314" y="0" flags="0x4"/>
    </TTGlyph>
    <TTGlyph name="imacron" xMin="37" yMin="0" xMax="606" yMax="666">
      <component glyphName="dotlessi" x="0" y="0" flags="0x204"/>
      <component glyphName="uni0304" x="314" y="0" flags="0x4"/>
    </TTGlyph>
    <TTGlyph name="iogonek" xMin="37" yMin="-234" xMax="514" yMax="740">
      <contour>
        <pt x="514" y="678" on="1"/>
        <pt x="514" y="639" on="0"/>
        <pt x="458" y="592" on="0"/>
        <pt x="410" y="592" on="1"/>
        <pt x="371" y="592" on="0"/>
        <pt x="329" y="624" on="0"/>
        <pt x="329" y="654" on="1"/>
        <pt x="329" y="692" on="0"/>
        <pt x="385" y="740" on="0"/>
        <pt x="433" y="740" on="1"/>
        <pt x="472" y="740" on="0"/>
        <pt x="514" y="708" on="0"/>
      </contour>
      <contour>
        <pt x="37" y="0" on="1"/>
        <pt x="64" y="95" on="1"/>
        <pt x="217" y="95" on="1"/>
        <pt x="315" y="376" on="1"/>
        <pt x="165" y="376" on="1"/>
        <pt x="192" y="471" on="1"/>
        <pt x="460" y="471" on="1"/>
        <pt x="329" y="95" on="1"/>
        <pt x="500" y="95" on="1"/>
        <pt x="473" y="0" on="1"/>
        <pt x="287" y="0" on="1"/>
        <pt x="235" y="-54" on="0"/>
        <pt x="190" y="-113" on="0"/>
        <pt x="190" y="-133" on="1"/>
        <pt x="190" y="-145" on="0"/>
        <pt x="209" y="-155" on="0"/>
        <pt x="233" y="-156" on="1"/>
        <pt x="291" y="-160" on="1"/>
        <pt x="262" y="-234" on="1"/>
        <pt x="189" y="-231" on="1"/>
        <pt x="137" y="-229" on="0"/>
        <pt x="91" y="-200" on="0"/>
        <pt x="91" y="-168" on="1"/>
        <pt x="91" y="-136" on="0"/>
        <pt x="151" y="-64" on="0"/>
        <pt x="228" y="0" on="1"/>
      </contour>
    </TTGlyph>
    <TTGlyph name="itilde" xMin="37" yMin="0" xMax="650" yMax="746">
      <component glyphName="dotlessi" x="0" y="0" flags="0x204"/>
      <component glyphName="uni0303" x="314" y="0" flags="0x4"/>
    </TTGlyph>
    <TTGlyph name="j" xMin="-30" yMin="-237" xMax="578" yMax="740">
      <contour>
        <pt x="578" y="678" on="1"/>
        <pt x="578" y="639" on="0"/>
        <pt x="522" y="592" on="0"/>
        <pt x="474" y="592" on="1"/>
        <pt x="435" y="592" on="0"/>
        <pt x="393" y="624" on="0"/>
        <pt x="393" y="654" on="1"/>
        <pt x="393" y="692" on="0"/>
        <pt x="449" y="740" on="0"/>
        <pt x="498" y="740" on="1"/>
        <pt x="537" y="740" on="0"/>
        <pt x="578" y="708" on="0"/>
      </contour>
      <contour>
        <pt x="512" y="471" on="1"/>
        <pt x="385" y="26" on="1"/>
        <pt x="362" y="-55" on="0"/>
        <pt x="311" y="-148" on="0"/>
        <pt x="277" y="-175" on="1"/>
        <pt x="243" y="-201" on="0"/>
        <pt x="140" y="-228" on="0"/>
        <pt x="55" y="-233" on="1"/>
        <pt x="-30" y="-237" on="1"/>
        <pt x="-30" y="-141" on="1"/>
        <pt x="58" y="-136" on="1"/>
        <pt x="113" y="-133" on="0"/>
        <pt x="187" y="-114" on="0"/>
        <pt x="211" y="-91" on="1"/>
        <pt x="233" y="-72" on="0"/>
        <pt x="263" y="-9" on="0"/>
        <pt x="276" y="38" on="1"/>
        <pt x="373" y="376" on="1"/>
        <pt x="158" y="376" on="1"/>
        <pt x="185" y="471" on="1"/>
      </contour>
    </TTGlyph>
    <TTGlyph name="jcircumflex" xMin="-30" yMin="-237" xMax="671" yMax="752">
      <component glyphName="uni0237" x="0" y="0" flags="0x204"/>
      <component glyphName="uni0302" x="387" y="0" flags="0x4"/>
    </TTGlyph>
    <TTGlyph name="k" xMin="31" yMin="0" xMax="633" yMax="710">
      <contour>
        <pt x="234" y="710" on="1"/>
        <pt x="346" y="710" on="1"/>
        <pt x="216" y="256" on="1"/>
        <pt x="484" y="471" on="1"/>
        <pt x="633" y="471" on="1"/>
        <pt x="633" y="469" on="1"/>
        <pt x="328" y="237" on="1"/>
        <pt x="502" y="2" on="1"/>
        <pt x="502" y="0" on="1"/>
        <pt x="361" y="0" on="1"/>
        <pt x="207" y="225" on="1"/>
        <pt x="142" y="0" on="1"/>
        <pt x="31" y="0" on="1"/>
      </contour>
    </TTGlyph>
    <TTGlyph name="l" xMin="175" yMin="-8" xMax="499" yMax="710">
      <contour>
        <pt x="194" y="127" on="1"/>
        <pt x="194" y="154" on="0"/>
        <pt x="209" y="220" on="0"/>
        <pt x="225" y="264" on="1"/>
        <pt x="351" y="615" on="1"/>
        <pt x="175" y="615" on="1"/>
        <pt x="202" y="710" on="1"/>
        <pt x="497" y="710" on="1"/>
        <pt x="333" y="249" on="1"/>
        <pt x="320" y="214" on="0"/>
        <pt x="310" y="173" on="0"/>
        <pt x="310" y="152" on="1"/>
        <pt x="310" y="121" on="0"/>
        <pt x="345" y="94" on="0"/>
        <pt x="387" y="92" on="1"/>
        <pt x="499" y="88" on="1"/>
        <pt x="471" y="-8" on="1"/>
        <pt x="359" y="-5" on="1"/>
        <pt x="270" y="-1" on="0"/>
        <pt x="194" y="60" on="0"/>
      </contour>
    </TTGlyph>
    <TTGlyph name="lacute" xMin="175" yMin="-8" xMax="655" yMax="1000">
      <component glyphName="l" x="0" y="0" flags="0x204"/>
      <component glyphName="uni0301" x="357" y="250" flags="0x4"/>
    </TTGlyph>
    <TTGlyph name="lcaron" xMin="175" yMin="-8" xMax="740" yMax="788">
      <component glyphName="l" x="0" y="0" flags="0x204"/>
      <component glyphName="uni0315" x="503" y="78" flags="0x4"/>
    </TTGlyph>
    <TTGlyph name="ldot" xMin="175" yMin="-8" xMax="713" yMax="710">
      <component glyphName="l" x="0" y="0" flags="0x204"/>
      <component glyphName="middotcat" x="290" y="-2" flags="0x4"/>
    </TTGlyph>
    <TTGlyph name="less" xMin="74" yMin="67" xMax="639" yMax="575">
      <contour>
        <pt x="74" y="270" on="1"/>
        <pt x="103" y="373" on="1"/>
        <pt x="639" y="575" on="1"/>
        <pt x="606" y="464" on="1"/>
        <pt x="192" y="315" on="1"/>
        <pt x="521" y="165" on="1"/>
        <pt x="493" y="67" on="1"/>
      </contour>
    </TTGlyph>
    <TTGlyph name="lessequal" xMin="16" yMin="0" xMax="645" yMax="669">
      <contour>
        <pt x="126" y="384" on="1"/>
        <pt x="155" y="486" on="1"/>
        <pt x="645" y="669" on="1"/>
        <pt x="614" y="560" on="1"/>
        <pt x="249" y="429" on="1"/>
        <pt x="539" y="298" on="1"/>
        <pt x="510" y="198" on="1"/>
      </contour>
      <contour>
        <pt x="454" y="0" on="1"/>
        <pt x="16" y="0" on="1"/>
        <pt x="42" y="91" on="1"/>
        <pt x="480" y="91" on="1"/>
      </contour>
    </TTGlyph>
    <TTGlyph name="lslash" xMin="77" yMin="-8" xMax="590" yMax="710">
      <contour>
        <pt x="237" y="297" on="1"/>
        <pt x="77" y="217" on="1"/>
        <pt x="102" y="302" on="1"/>
        <pt x="269" y="386" on="1"/>
        <pt x="351" y="615" on="1"/>
        <pt x="175" y="615" on="1"/>
        <pt x="202" y="710" on="1"/>
        <pt x="497" y="710" on="1"/>
        <pt x="401" y="439" on="1"/>
        <pt x="590" y="535" on="1"/>
        <pt x="566" y="451" on="1"/>
        <pt x="369" y="351" on="1"/>
        <pt x="333" y="249" on="1"/>
        <pt x="320" y="214" on="0"/>
        <pt x="310" y="173" on="0"/>
        <pt x="310" y="152" on="1"/>
        <pt x="310" y="121" on="0"/>
        <pt x="345" y="94" on="0"/>
        <pt x="387" y="92" on="1"/>
        <pt x="499" y="88" on="1"/>
        <pt x="471" y="-8" on="1"/>
        <pt x="359" y="-5" on="1"/>
        <pt x="270" y="-1" on="0"/>
        <pt x="194" y="60" on="0"/>
        <pt x="194" y="127" on="1"/>
        <pt x="194" y="154" on="0"/>
        <pt x="209" y="220" on="0"/>
        <pt x="225" y="264" on="1"/>
      </contour>
    </TTGlyph>
    <TTGlyph name="m" xMin="-20" yMin="0" xMax="619" yMax="482">
      <contour>
        <pt x="115" y="471" on="1"/>
        <pt x="195" y="471" on="1"/>
        <pt x="172" y="352" on="1"/>
        <pt x="179" y="352" on="1"/>
        <pt x="239" y="423" on="0"/>
        <pt x="314" y="482" on="0"/>
        <pt x="347" y="482" on="1"/>
        <pt x="375" y="482" on="0"/>
        <pt x="404" y="455" on="0"/>
        <pt x="404" y="429" on="1"/>
        <pt x="404" y="421" on="0"/>
        <pt x="400" y="399" on="0"/>
        <pt x="396" y="384" on="1"/>
        <pt x="387" y="352" on="1"/>
        <pt x="396" y="352" on="1"/>
        <pt x="454" y="424" on="0"/>
        <pt x="525" y="482" on="0"/>
        <pt x="559" y="482" on="1"/>
        <pt x="588" y="482" on="0"/>
        <pt x="619" y="454" on="0"/>
        <pt x="619" y="428" on="1"/>
        <pt x="619" y="420" on="0"/>
        <pt x="616" y="402" on="0"/>
        <pt x="610" y="376" on="1"/>
        <pt x="502" y="0" on="1"/>
        <pt x="404" y="0" on="1"/>
        <pt x="492" y="309" on="1"/>
        <pt x="495" y="320" on="0"/>
        <pt x="498" y="333" on="0"/>
        <pt x="498" y="339" on="1"/>
        <pt x="498" y="351" on="0"/>
        <pt x="485" y="363" on="0"/>
        <pt x="472" y="363" on="1"/>
        <pt x="454" y="363" on="0"/>
        <pt x="407" y="329" on="0"/>
        <pt x="371" y="291" on="1"/>
        <pt x="288" y="0" on="1"/>
        <pt x="195" y="0" on="1"/>
        <pt x="284" y="309" on="1"/>
        <pt x="287" y="317" on="0"/>
        <pt x="289" y="332" on="0"/>
        <pt x="289" y="340" on="1"/>
        <pt x="289" y="352" on="0"/>
        <pt x="277" y="363" on="0"/>
        <pt x="265" y="363" on="1"/>
        <pt x="246" y="363" on="0"/>
        <pt x="199" y="328" on="0"/>
        <pt x="161" y="288" on="1"/>
        <pt x="78" y="0" on="1"/>
        <pt x="-20" y="0" on="1"/>
      </contour>
    </TTGlyph>
    <TTGlyph name="macron" xMin="240" yMin="587" xMax="599" yMax="666">
      <component glyphName="uni0304" x="307" y="0" flags="0x4"/>
    </TTGlyph>
    <TTGlyph name="middotcat" xMin="252" yMin="268" xMax="423" yMax="454">
      <contour>
        <pt x="423" y="397" on="1"/>
        <pt x="423" y="344" on="0"/>
        <pt x="361" y="268" on="0"/>
        <pt x="317" y="268" on="1"/>
        <pt x="286" y="268" on="0"/>
        <pt x="252" y="298" on="0"/>
        <pt x="252" y="325" on="1"/>
        <pt x="252" y="377" on="0"/>
        <pt x="314" y="454" on="0"/>
        <pt x="357" y="454" on="1"/>
        <pt x="389" y="454" on="0"/>
        <pt x="423" y="425" on="0"/>
      </contour>
    </TTGlyph>
    <TTGlyph name="middotcat.cap" xMin="196" yMin="282" xMax="367" yMax="468">
      <contour>
        <pt x="367" y="411" on="1"/>
        <pt x="367" y="358" on="0"/>
        <pt x="305" y="282" on="0"/>
        <pt x="261" y="282" on="1"/>
        <pt x="230" y="282" on="0"/>
        <pt x="196" y="312" on="0"/>
        <pt x="196" y="339" on="1"/>
        <pt x="196" y="391" on="0"/>
        <pt x="258" y="468" on="0"/>
        <pt x="301" y="468" on="1"/>
        <pt x="333" y="468" on="0"/>
        <pt x="367" y="439" on="0"/>
      </contour>
    </TTGlyph>
    <TTGlyph name="minus" xMin="80" yMin="283" xMax="587" yMax="374">
      <contour>
        <pt x="561" y="283" on="1"/>
        <pt x="80" y="283" on="1"/>
        <pt x="106" y="374" on="1"/>
        <pt x="587" y="374" on="1"/>
      </contour>
    </TTGlyph>
    <TTGlyph name="mu" xMin="-50" yMin="-230" xMax="594" yMax="471">
      <contour>
        <pt x="178" y="-9" on="1"/>
        <pt x="158" y="-9" on="0"/>
        <pt x="126" y="7" on="0"/>
        <pt x="115" y="22" on="1"/>
        <pt x="73" y="-213" on="1"/>
        <pt x="68" y="-230" on="1"/>
        <pt x="-50" y="-230" on="1"/>
        <pt x="152" y="471" on="1"/>
        <pt x="264" y="471" on="1"/>
        <pt x="176" y="166" on="1"/>
        <pt x="173" y="158" on="0"/>
        <pt x="171" y="143" on="0"/>
        <pt x="171" y="134" on="1"/>
        <pt x="171" y="115" on="0"/>
        <pt x="193" y="96" on="0"/>
        <pt x="216" y="96" on="1"/>
        <pt x="245" y="96" on="0"/>
        <pt x="324" y="151" on="0"/>
        <pt x="414" y="232" on="1"/>
        <pt x="482" y="471" on="1"/>
        <pt x="594" y="471" on="1"/>
        <pt x="459" y="0" on="1"/>
        <pt x="359" y="0" on="1"/>
        <pt x="386" y="116" on="1"/>
        <pt x="304" y="43" on="0"/>
        <pt x="220" y="-9" on="0"/>
      </contour>
    </TTGlyph>
    <TTGlyph name="multiply" xMin="48" yMin="89" xMax="619" yMax="567">
      <contour>
        <pt x="322" y="264" on="1"/>
        <pt x="104" y="92" on="1"/>
        <pt x="48" y="167" on="1"/>
        <pt x="270" y="337" on="1"/>
        <pt x="143" y="505" on="1"/>
        <pt x="227" y="567" on="1"/>
        <pt x="346" y="396" on="1"/>
        <pt x="562" y="567" on="1"/>
        <pt x="619" y="493" on="1"/>
        <pt x="398" y="323" on="1"/>
        <pt x="527" y="152" on="1"/>
        <pt x="444" y="89" on="1"/>
      </contour>
    </TTGlyph>
    <TTGlyph name="n" xMin="20" yMin="0" xMax="565" yMax="479">
      <contour>
        <pt x="155" y="471" on="1"/>
        <pt x="256" y="471" on="1"/>
        <pt x="229" y="354" on="1"/>
        <pt x="311" y="426" on="0"/>
        <pt x="406" y="479" on="0"/>
        <pt x="458" y="479" on="1"/>
        <pt x="508" y="479" on="0"/>
        <pt x="565" y="428" on="0"/>
        <pt x="565" y="383" on="1"/>
        <pt x="565" y="368" on="0"/>
        <pt x="559" y="333" on="0"/>
        <pt x="553" y="311" on="1"/>
        <pt x="463" y="0" on="1"/>
        <pt x="351" y="0" on="1"/>
        <pt x="436" y="297" on="1"/>
        <pt x="440" y="311" on="0"/>
        <pt x="444" y="331" on="0"/>
        <pt x="444" y="338" on="1"/>
        <pt x="444" y="356" on="0"/>
        <pt x="422" y="375" on="0"/>
        <pt x="403" y="375" on="1"/>
        <pt x="372" y="375" on="0"/>
        <pt x="289" y="316" on="0"/>
        <pt x="201" y="237" on="1"/>
        <pt x="133" y="0" on="1"/>
        <pt x="20" y="0" on="1"/>
      </contour>
    </TTGlyph>
    <TTGlyph name="nacute" xMin="20" yMin="0" xMax="605" yMax="750">
      <component glyphName="n" x="0" y="0" flags="0x204"/>
      <component glyphName="uni0301" x="307" y="0" flags="0x4"/>
    </TTGlyph>
    <TTGlyph name="ncaron" xMin="20" yMin="0" xMax="624" yMax="752">
      <component glyphName="n" x="0" y="0" flags="0x204"/>
      <component glyphName="uni030C" x="307" y="0" flags="0x4"/>
    </TTGlyph>
    <TTGlyph name="nine" xMin="80" yMin="0" xMax="612" yMax="670">
      <contour>
        <pt x="80" y="2" on="1"/>
        <pt x="244" y="128" on="1"/>
        <pt x="273" y="151" on="0"/>
        <pt x="325" y="195" on="0"/>
        <pt x="348" y="216" on="1"/>
        <pt x="228" y="238" on="0"/>
        <pt x="122" y="327" on="0"/>
        <pt x="122" y="407" on="1"/>
        <pt x="122" y="512" on="0"/>
        <pt x="288" y="670" on="0"/>
        <pt x="407" y="670" on="1"/>
        <pt x="503" y="670" on="0"/>
        <pt x="612" y="571" on="0"/>
        <pt x="612" y="483" on="1"/>
        <pt x="612" y="386" on="0"/>
        <pt x="489" y="207" on="0"/>
        <pt x="352" y="98" on="1"/>
        <pt x="227" y="0" on="1"/>
        <pt x="80" y="0" on="1"/>
      </contour>
      <contour>
        <pt x="399" y="578" on="1"/>
        <pt x="333" y="578" on="0"/>
        <pt x="237" y="478" on="0"/>
        <pt x="237" y="414" on="1"/>
        <pt x="237" y="357" on="0"/>
        <pt x="316" y="298" on="0"/>
        <pt x="412" y="281" on="1"/>
        <pt x="456" y="333" on="0"/>
        <pt x="498" y="425" on="0"/>
        <pt x="498" y="472" on="1"/>
        <pt x="498" y="523" on="0"/>
        <pt x="446" y="578" on="0"/>
      </contour>
    </TTGlyph>
    <TTGlyph name="nine.den" xMin="143" yMin="0" xMax="470" yMax="395">
      <contour>
        <pt x="143" y="1" on="1"/>
        <pt x="239" y="77" on="1"/>
        <pt x="256" y="90" on="0"/>
        <pt x="286" y="116" on="0"/>
        <pt x="299" y="128" on="1"/>
        <pt x="227" y="143" on="0"/>
        <pt x="164" y="194" on="0"/>
        <pt x="164" y="240" on="1"/>
        <pt x="164" y="303" on="0"/>
        <pt x="266" y="395" on="0"/>
        <pt x="340" y="395" on="1"/>
        <pt x="401" y="395" on="0"/>
        <pt x="470" y="336" on="0"/>
        <pt x="470" y="285" on="1"/>
        <pt x="470" y="230" on="0"/>
        <pt x="399" y="128" on="0"/>
        <pt x="314" y="59" on="1"/>
        <pt x="242" y="0" on="1"/>
        <pt x="143" y="0" on="1"/>
      </contour>
      <contour>
        <pt x="334" y="331" on="1"/>
        <pt x="297" y="331" on="0"/>
        <pt x="244" y="279" on="0"/>
        <pt x="244" y="245" on="1"/>
        <pt x="244" y="213" on="0"/>
        <pt x="287" y="179" on="0"/>
        <pt x="339" y="169" on="1"/>
        <pt x="366" y="199" on="0"/>
        <pt x="392" y="251" on="0"/>
        <pt x="392" y="277" on="1"/>
        <pt x="392" y="303" on="0"/>
        <pt x="362" y="331" on="0"/>
      </contour>
    </TTGlyph>
    <TTGlyph name="nine.inf" xMin="78" yMin="-230" xMax="405" yMax="165">
      <component glyphName="nine.den" x="-65" y="-230" flags="0x4"/>
    </TTGlyph>
    <TTGlyph name="nine.num" xMin="221" yMin="275" xMax="548" yMax="670">
      <component glyphName="nine.den" x="78" y="275" flags="0x4"/>
    </TTGlyph>
    <TTGlyph name="nine.sup" xMin="237" yMin="330" xMax="564" yMax="725">
      <component glyphName="nine.den" x="94" y="330" flags="0x4"/>
    </TTGlyph>
    <TTGlyph name="notequal" xMin="54" yMin="28" xMax="616" yMax="633">
      <contour>
        <pt x="175" y="179" on="1"/>
        <pt x="68" y="179" on="1"/>
        <pt x="94" y="270" on="1"/>
        <pt x="244" y="266" on="1"/>
        <pt x="299" y="334" on="1"/>
        <pt x="343" y="392" on="1"/>
        <pt x="127" y="387" on="1"/>
        <pt x="153" y="478" on="1"/>
        <pt x="407" y="478" on="1"/>
        <pt x="523" y="633" on="1"/>
        <pt x="616" y="633" on="1"/>
        <pt x="491" y="478" on="1"/>
        <pt x="599" y="478" on="1"/>
        <pt x="573" y="387" on="1"/>
        <pt x="421" y="391" on="1"/>
        <pt x="374" y="333" on="1"/>
        <pt x="323" y="265" on="1"/>
        <pt x="540" y="270" on="1"/>
        <pt x="514" y="179" on="1"/>
        <pt x="259" y="179" on="1"/>
        <pt x="147" y="28" on="1"/>
        <pt x="54" y="28" on="1"/>
      </contour>
    </TTGlyph>
    <TTGlyph name="ntilde" xMin="20" yMin="0" xMax="643" yMax="746">
      <component glyphName="n" x="0" y="0" flags="0x204"/>
      <component glyphName="uni0303" x="307" y="0" flags="0x4"/>
    </TTGlyph>
    <TTGlyph name="numbersign" xMin="43" yMin="-12" xMax="627" yMax="666">
      <contour>
        <pt x="139" y="158" on="1"/>
        <pt x="43" y="158" on="1"/>
        <pt x="43" y="263" on="1"/>
        <pt x="180" y="263" on="1"/>
        <pt x="232" y="398" on="1"/>
        <pt x="119" y="398" on="1"/>
        <pt x="119" y="503" on="1"/>
        <pt x="273" y="503" on="1"/>
        <pt x="336" y="666" on="1"/>
        <pt x="412" y="666" on="1"/>
        <pt x="347" y="502" on="1"/>
        <pt x="457" y="502" on="1"/>
        <pt x="522" y="666" on="1"/>
        <pt x="597" y="666" on="1"/>
        <pt x="533" y="503" on="1"/>
        <pt x="627" y="503" on="1"/>
        <pt x="627" y="398" on="1"/>
        <pt x="492" y="398" on="1"/>
        <pt x="439" y="263" on="1"/>
        <pt x="551" y="263" on="1"/>
        <pt x="551" y="158" on="1"/>
        <pt x="398" y="158" on="1"/>
        <pt x="332" y="-12" on="1"/>
        <pt x="257" y="-12" on="1"/>
        <pt x="324" y="159" on="1"/>
        <pt x="213" y="159" on="1"/>
        <pt x="147" y="-12" on="1"/>
        <pt x="73" y="-12" on="1"/>
      </contour>
      <contour>
        <pt x="227" y="225" on="1"/>
        <pt x="360" y="225" on="1"/>
        <pt x="442" y="434" on="1"/>
        <pt x="309" y="434" on="1"/>
      </contour>
    </TTGlyph>
    <TTGlyph name="o" xMin="46" yMin="-15" xMax="568" yMax="486">
      <contour>
        <pt x="46" y="189" on="1"/>
        <pt x="46" y="251" on="0"/>
        <pt x="94" y="359" on="0"/>
        <pt x="135" y="399" on="1"/>
        <pt x="177" y="439" on="0"/>
        <pt x="291" y="486" on="0"/>
        <pt x="356" y="486" on="1"/>
        <pt x="451" y="486" on="0"/>
        <pt x="568" y="372" on="0"/>
        <pt x="568" y="281" on="1"/>
        <pt x="568" y="219" on="0"/>
        <pt x="520" y="111" on="0"/>
        <pt x="478" y="71" on="1"/>
        <pt x="436" y="31" on="0"/>
        <pt x="323" y="-15" on="0"/>
        <pt x="258" y="-15" on="1"/>
        <pt x="163" y="-15" on="0"/>
        <pt x="46" y="98" on="0"/>
      </contour>
      <contour>
        <pt x="162" y="194" on="1"/>
        <pt x="162" y="142" on="0"/>
        <pt x="225" y="77" on="0"/>
        <pt x="276" y="77" on="1"/>
        <pt x="347" y="77" on="0"/>
        <pt x="452" y="197" on="0"/>
        <pt x="452" y="276" on="1"/>
        <pt x="452" y="328" on="0"/>
        <pt x="389" y="393" on="0"/>
        <pt x="338" y="393" on="1"/>
        <pt x="266" y="393" on="0"/>
        <pt x="162" y="273" on="0"/>
      </contour>
    </TTGlyph>
    <TTGlyph name="oacute" xMin="46" yMin="-15" xMax="594" yMax="755">
      <component glyphName="o" x="0" y="0" flags="0x204"/>
      <component glyphName="uni0301" x="296" y="5" flags="0x4"/>
    </TTGlyph>
    <TTGlyph name="obreve" xMin="46" yMin="-15" xMax="626" yMax="750">
      <component glyphName="o" x="0" y="0" flags="0x204"/>
      <component glyphName="uni0306" x="296" y="5" flags="0x4"/>
    </TTGlyph>
    <TTGlyph name="ocircumflex" xMin="46" yMin="-15" xMax="578" yMax="752">
      <component glyphName="o" x="0" y="0" flags="0x204"/>
      <component glyphName="uni0302" x="294" y="0" flags="0x4"/>
    </TTGlyph>
    <TTGlyph name="odieresis" xMin="46" yMin="-15" xMax="595" yMax="697">
      <component glyphName="o" x="0" y="0" flags="0x204"/>
      <component glyphName="uni0308" x="296" y="5" flags="0x4"/>
    </TTGlyph>
    <TTGlyph name="oe" xMin="4" yMin="-14" xMax="625" yMax="482">
      <contour>
        <pt x="266" y="68" on="1"/>
        <pt x="236" y="28" on="0"/>
        <pt x="165" y="-14" on="0"/>
        <pt x="127" y="-14" on="1"/>
        <pt x="64" y="-14" on="0"/>
        <pt x="4" y="61" on="0"/>
        <pt x="4" y="140" on="1"/>
        <pt x="4" y="222" on="0"/>
        <pt x="60" y="374" on="0"/>
        <pt x="108" y="423" on="1"/>
        <pt x="139" y="454" on="0"/>
        <pt x="200" y="482" on="0"/>
        <pt x="236" y="482" on="1"/>
        <pt x="282" y="482" on="0"/>
        <pt x="339" y="429" on="0"/>
        <pt x="347" y="378" on="1"/>
        <pt x="382" y="428" on="0"/>
        <pt x="470" y="482" on="0"/>
        <pt x="516" y="482" on="1"/>
        <pt x="568" y="482" on="0"/>
        <pt x="625" y="428" on="0"/>
        <pt x="625" y="379" on="1"/>
        <pt x="625" y="293" on="0"/>
        <pt x="496" y="215" on="0"/>
        <pt x="349" y="201" on="1"/>
        <pt x="346" y="178" on="0"/>
        <pt x="345" y="160" on="0"/>
        <pt x="345" y="152" on="1"/>
        <pt x="345" y="107" on="0"/>
        <pt x="408" y="74" on="0"/>
        <pt x="493" y="74" on="1"/>
        <pt x="467" y="-5" on="1"/>
        <pt x="377" y="-5" on="0"/>
        <pt x="283" y="29" on="0"/>
      </contour>
      <contour>
        <pt x="523" y="361" on="1"/>
        <pt x="523" y="381" on="0"/>
        <pt x="504" y="401" on="0"/>
        <pt x="484" y="401" on="1"/>
        <pt x="452" y="401" on="0"/>
        <pt x="387" y="325" on="0"/>
        <pt x="366" y="264" on="1"/>
        <pt x="446" y="273" on="0"/>
        <pt x="523" y="320" on="0"/>
      </contour>
      <contour>
        <pt x="193" y="374" on="1"/>
        <pt x="162" y="343" on="0"/>
        <pt x="113" y="196" on="0"/>
        <pt x="113" y="133" on="1"/>
        <pt x="113" y="102" on="0"/>
        <pt x="133" y="72" on="0"/>
        <pt x="153" y="72" on="1"/>
        <pt x="164" y="72" on="0"/>
        <pt x="186" y="83" on="0"/>
        <pt x="197" y="94" on="1"/>
        <pt x="229" y="125" on="0"/>
        <pt x="278" y="272" on="0"/>
        <pt x="278" y="337" on="1"/>
        <pt x="278" y="366" on="0"/>
        <pt x="257" y="397" on="0"/>
        <pt x="238" y="397" on="1"/>
        <pt x="226" y="397" on="0"/>
        <pt x="204" y="385" on="0"/>
      </contour>
    </TTGlyph>
    <TTGlyph name="ogonek" xMin="76" yMin="-234" xMax="281" yMax="28">
      <component glyphName="uni0328" x="307" y="0" flags="0x4"/>
    </TTGlyph>
    <TTGlyph name="ograve" xMin="46" yMin="-15" xMax="568" yMax="751">
      <component glyphName="o" x="0" y="0" flags="0x204"/>
      <component glyphName="uni0300" x="296" y="5" flags="0x4"/>
    </TTGlyph>
    <TTGlyph name="ohorn" xMin="46" yMin="-15" xMax="710" yMax="583">
      <contour>
        <pt x="46" y="182" on="1"/>
        <pt x="46" y="239" on="0"/>
        <pt x="90" y="342" on="0"/>
        <pt x="129" y="380" on="1"/>
        <pt x="171" y="422" on="0"/>
        <pt x="289" y="471" on="0"/>
        <pt x="357" y="471" on="1"/>
        <pt x="491" y="471" on="1"/>
        <pt x="544" y="471" on="0"/>
        <pt x="584" y="511" on="0"/>
        <pt x="606" y="583" on="1"/>
        <pt x="710" y="583" on="1"/>
        <pt x="678" y="477" on="0"/>
        <pt x="608" y="406" on="0"/>
        <pt x="537" y="406" on="1"/>
        <pt x="528" y="406" on="0"/>
        <pt x="507" y="408" on="0"/>
        <pt x="494" y="411" on="1"/>
        <pt x="490" y="405" on="1"/>
        <pt x="528" y="378" on="0"/>
        <pt x="568" y="308" on="0"/>
        <pt x="568" y="268" on="1"/>
        <pt x="568" y="207" on="0"/>
        <pt x="519" y="102" on="0"/>
        <pt x="476" y="64" on="1"/>
        <pt x="435" y="27" on="0"/>
        <pt x="323" y="-15" on="0"/>
        <pt x="258" y="-15" on="1"/>
        <pt x="163" y="-15" on="0"/>
        <pt x="46" y="94" on="0"/>
      </contour>
      <contour>
        <pt x="162" y="187" on="1"/>
        <pt x="162" y="138" on="0"/>
        <pt x="225" y="77" on="0"/>
        <pt x="276" y="77" on="1"/>
        <pt x="347" y="77" on="0"/>
        <pt x="452" y="193" on="0"/>
        <pt x="452" y="269" on="1"/>
        <pt x="452" y="318" on="0"/>
        <pt x="389" y="378" on="0"/>
        <pt x="339" y="378" on="1"/>
        <pt x="267" y="378" on="0"/>
        <pt x="162" y="264" on="0"/>
      </contour>
    </TTGlyph>
    <TTGlyph name="ohungarumlaut" xMin="46" yMin="-15" xMax="663" yMax="754">
      <component glyphName="o" x="0" y="0" flags="0x204"/>
      <component glyphName="uni030B" x="296" y="5" flags="0x4"/>
    </TTGlyph>
    <TTGlyph name="omacron" xMin="46" yMin="-15" xMax="588" yMax="671">
      <component glyphName="o" x="0" y="0" flags="0x204"/>
      <component glyphName="uni0304" x="296" y="5" flags="0x4"/>
    </TTGlyph>
    <TTGlyph name="one" xMin="38" yMin="0" xMax="534" yMax="665">
      <contour>
        <pt x="466" y="0" on="1"/>
        <pt x="38" y="0" on="1"/>
        <pt x="65" y="94" on="1"/>
        <pt x="217" y="94" on="1"/>
        <pt x="370" y="513" on="1"/>
        <pt x="191" y="432" on="1"/>
        <pt x="223" y="545" on="1"/>
        <pt x="491" y="665" on="1"/>
        <pt x="534" y="665" on="1"/>
        <pt x="329" y="94" on="1"/>
        <pt x="492" y="94" on="1"/>
      </contour>
    </TTGlyph>
    <TTGlyph name="one.den" xMin="116" yMin="0" xMax="416" yMax="380">
      <contour>
        <pt x="392" y="0" on="1"/>
        <pt x="116" y="0" on="1"/>
        <pt x="135" y="66" on="1"/>
        <pt x="227" y="66" on="1"/>
        <pt x="305" y="282" on="1"/>
        <pt x="190" y="234" on="1"/>
        <pt x="211" y="311" on="1"/>
        <pt x="382" y="380" on="1"/>
        <pt x="416" y="380" on="1"/>
        <pt x="304" y="66" on="1"/>
        <pt x="411" y="66" on="1"/>
      </contour>
    </TTGlyph>
    <TTGlyph name="one.inf" xMin="51" yMin="-230" xMax="351" yMax="150">
      <component glyphName="one.den" x="-65" y="-230" flags="0x4"/>
    </TTGlyph>
    <TTGlyph name="one.num" xMin="194" yMin="275" xMax="494" yMax="655">
      <component glyphName="one.den" x="78" y="275" flags="0x4"/>
    </TTGlyph>
    <TTGlyph name="one.sup" xMin="210" yMin="330" xMax="510" yMax="710">
      <component glyphName="one.den" x="94" y="330" flags="0x4"/>
    </TTGlyph>
    <TTGlyph name="oneeighth" xMin="0" yMin="-245" xMax="614" yMax="655">
      <component glyphName="eight.den" x="133" y="-230" flags="0x4"/>
      <component glyphName="fracbar" x="0" y="0" flags="0x204"/>
      <component glyphName="one.den" x="-89" y="275" flags="0x4"/>
    </TTGlyph>
    <TTGlyph name="onefifth" xMin="0" yMin="-240" xMax="616" yMax="655">
      <component glyphName="five.den" x="143" y="-230" flags="0x4"/>
      <component glyphName="fracbar" x="0" y="0" flags="0x204"/>
      <component glyphName="one.den" x="-89" y="275" flags="0x4"/>
    </TTGlyph>
    <TTGlyph name="onehalf" xMin="0" yMin="-230" xMax="614" yMax="655">
      <component glyphName="one.den" x="-89" y="275" flags="0x4"/>
      <component glyphName="two.den" x="126" y="-230" flags="0x4"/>
      <component glyphName="fracbar" x="0" y="0" flags="0x204"/>
    </TTGlyph>
    <TTGlyph name="onequarter" xMin="0" yMin="-230" xMax="614" yMax="655">
      <component glyphName="four.den" x="96" y="-230" flags="0x4"/>
      <component glyphName="fracbar" x="0" y="0" flags="0x204"/>
      <component glyphName="one.den" x="-89" y="275" flags="0x4"/>
    </TTGlyph>
    <TTGlyph name="onesixth" xMin="0" yMin="-245" xMax="614" yMax="655">
      <component glyphName="six.den" x="106" y="-230" flags="0x4"/>
      <component glyphName="fracbar" x="0" y="0" flags="0x204"/>
      <component glyphName="one.den" x="-89" y="275" flags="0x4"/>
    </TTGlyph>
    <TTGlyph name="onethird" xMin="0" yMin="-240" xMax="636" yMax="655">
      <component glyphName="three.den" x="146" y="-230" flags="0x4"/>
      <component glyphName="fracbar" x="0" y="0" flags="0x204"/>
      <component glyphName="one.den" x="-89" y="275" flags="0x4"/>
    </TTGlyph>
    <TTGlyph name="ordfeminine" xMin="103" yMin="171" xMax="565" yMax="692">
      <contour>
        <pt x="555" y="564" on="1"/>
        <pt x="514" y="443" on="1"/>
        <pt x="511" y="433" on="0"/>
        <pt x="508" y="419" on="0"/>
        <pt x="508" y="413" on="1"/>
        <pt x="508" y="405" on="0"/>
        <pt x="518" y="396" on="0"/>
        <pt x="532" y="394" on="1"/>
        <pt x="559" y="389" on="1"/>
        <pt x="540" y="325" on="1"/>
        <pt x="504" y="329" on="1"/>
        <pt x="471" y="332" on="0"/>
        <pt x="431" y="354" on="0"/>
        <pt x="423" y="373" on="1"/>
        <pt x="419" y="373" on="1"/>
        <pt x="376" y="347" on="0"/>
        <pt x="296" y="324" on="0"/>
        <pt x="249" y="324" on="1"/>
        <pt x="205" y="324" on="0"/>
        <pt x="158" y="364" on="0"/>
        <pt x="158" y="401" on="1"/>
        <pt x="158" y="429" on="0"/>
        <pt x="176" y="482" on="0"/>
        <pt x="192" y="498" on="1"/>
        <pt x="214" y="519" on="0"/>
        <pt x="287" y="539" on="0"/>
        <pt x="358" y="544" on="1"/>
        <pt x="466" y="551" on="1"/>
        <pt x="474" y="575" on="0"/>
        <pt x="476" y="585" on="0"/>
        <pt x="476" y="590" on="1"/>
        <pt x="476" y="606" on="0"/>
        <pt x="437" y="621" on="0"/>
        <pt x="393" y="621" on="1"/>
        <pt x="369" y="621" on="0"/>
        <pt x="291" y="614" on="0"/>
        <pt x="245" y="607" on="1"/>
        <pt x="264" y="680" on="1"/>
        <pt x="309" y="686" on="0"/>
        <pt x="384" y="692" on="0"/>
        <pt x="417" y="692" on="1"/>
        <pt x="492" y="692" on="0"/>
        <pt x="565" y="653" on="0"/>
        <pt x="565" y="613" on="1"/>
        <pt x="565" y="602" on="0"/>
        <pt x="560" y="577" on="0"/>
      </contour>
      <contour>
        <pt x="247" y="419" on="1"/>
        <pt x="247" y="405" on="0"/>
        <pt x="267" y="391" on="0"/>
        <pt x="287" y="391" on="1"/>
        <pt x="322" y="391" on="0"/>
        <pt x="397" y="415" on="0"/>
        <pt x="429" y="436" on="1"/>
        <pt x="448" y="494" on="1"/>
        <pt x="369" y="488" on="1"/>
        <pt x="320" y="484" on="0"/>
        <pt x="274" y="474" on="0"/>
        <pt x="265" y="465" on="1"/>
        <pt x="257" y="457" on="0"/>
        <pt x="247" y="432" on="0"/>
      </contour>
      <contour>
        <pt x="103" y="171" on="1"/>
        <pt x="122" y="238" on="1"/>
        <pt x="505" y="238" on="1"/>
        <pt x="486" y="171" on="1"/>
      </contour>
    </TTGlyph>
    <TTGlyph name="ordmasculine" xMin="107" yMin="171" xMax="584" yMax="692">
      <contour>
        <pt x="186" y="471" on="1"/>
        <pt x="186" y="566" on="0"/>
        <pt x="318" y="692" on="0"/>
        <pt x="420" y="692" on="1"/>
        <pt x="495" y="692" on="0"/>
        <pt x="584" y="612" on="0"/>
        <pt x="584" y="545" on="1"/>
        <pt x="584" y="450" on="0"/>
        <pt x="452" y="324" on="0"/>
        <pt x="350" y="324" on="1"/>
        <pt x="275" y="324" on="0"/>
        <pt x="186" y="404" on="0"/>
      </contour>
      <contour>
        <pt x="275" y="475" on="1"/>
        <pt x="275" y="440" on="0"/>
        <pt x="320" y="398" on="0"/>
        <pt x="359" y="398" on="1"/>
        <pt x="416" y="398" on="0"/>
        <pt x="494" y="481" on="0"/>
        <pt x="494" y="541" on="1"/>
        <pt x="494" y="577" on="0"/>
        <pt x="450" y="618" on="0"/>
        <pt x="411" y="618" on="1"/>
        <pt x="354" y="618" on="0"/>
        <pt x="275" y="535" on="0"/>
      </contour>
      <contour>
        <pt x="107" y="171" on="1"/>
        <pt x="126" y="238" on="1"/>
        <pt x="498" y="238" on="1"/>
        <pt x="478" y="171" on="1"/>
      </contour>
    </TTGlyph>
    <TTGlyph name="oslash" xMin="-58" yMin="-71" xMax="672" yMax="542">
      <contour>
        <pt x="46" y="189" on="1"/>
        <pt x="46" y="313" on="0"/>
        <pt x="226" y="486" on="0"/>
        <pt x="356" y="486" on="1"/>
        <pt x="388" y="486" on="0"/>
        <pt x="448" y="469" on="0"/>
        <pt x="474" y="452" on="1"/>
        <pt x="556" y="542" on="1"/>
        <pt x="672" y="542" on="1"/>
        <pt x="527" y="403" on="1"/>
        <pt x="547" y="377" on="0"/>
        <pt x="568" y="315" on="0"/>
        <pt x="568" y="281" on="1"/>
        <pt x="568" y="158" on="0"/>
        <pt x="388" y="-15" on="0"/>
        <pt x="258" y="-15" on="1"/>
        <pt x="226" y="-15" on="0"/>
        <pt x="166" y="2" on="0"/>
        <pt x="140" y="18" on="1"/>
        <pt x="58" y="-71" on="1"/>
        <pt x="-58" y="-71" on="1"/>
        <pt x="87" y="66" on="1"/>
        <pt x="67" y="92" on="0"/>
        <pt x="46" y="155" on="0"/>
      </contour>
      <contour>
        <pt x="162" y="194" on="1"/>
        <pt x="162" y="142" on="0"/>
        <pt x="225" y="77" on="0"/>
        <pt x="276" y="77" on="1"/>
        <pt x="347" y="77" on="0"/>
        <pt x="452" y="197" on="0"/>
        <pt x="452" y="276" on="1"/>
        <pt x="452" y="328" on="0"/>
        <pt x="389" y="393" on="0"/>
        <pt x="338" y="393" on="1"/>
        <pt x="266" y="393" on="0"/>
        <pt x="162" y="273" on="0"/>
      </contour>
    </TTGlyph>
    <TTGlyph name="otilde" xMin="46" yMin="-15" xMax="632" yMax="751">
      <component glyphName="o" x="0" y="0" flags="0x204"/>
      <component glyphName="uni0303" x="296" y="5" flags="0x4"/>
    </TTGlyph>
    <TTGlyph name="p" xMin="-50" yMin="-230" xMax="574" yMax="482">
      <contour>
        <pt x="62" y="-230" on="1"/>
        <pt x="-50" y="-230" on="1"/>
        <pt x="151" y="471" on="1"/>
        <pt x="237" y="471" on="1"/>
        <pt x="235" y="405" on="1"/>
        <pt x="281" y="445" on="0"/>
        <pt x="364" y="482" on="0"/>
        <pt x="410" y="482" on="1"/>
        <pt x="483" y="482" on="0"/>
        <pt x="574" y="383" on="0"/>
        <pt x="574" y="300" on="1"/>
        <pt x="574" y="166" on="0"/>
        <pt x="384" y="-8" on="0"/>
        <pt x="234" y="-8" on="1"/>
        <pt x="206" y="-8" on="0"/>
        <pt x="154" y="-2" on="0"/>
        <pt x="129" y="4" on="1"/>
      </contour>
      <contour>
        <pt x="457" y="286" on="1"/>
        <pt x="457" y="334" on="0"/>
        <pt x="407" y="389" on="0"/>
        <pt x="364" y="389" on="1"/>
        <pt x="332" y="389" on="0"/>
        <pt x="266" y="356" on="0"/>
        <pt x="219" y="316" on="1"/>
        <pt x="157" y="100" on="1"/>
        <pt x="175" y="92" on="0"/>
        <pt x="216" y="85" on="0"/>
        <pt x="238" y="85" on="1"/>
        <pt x="335" y="85" on="0"/>
        <pt x="457" y="202" on="0"/>
      </contour>
    </TTGlyph>
    <TTGlyph name="paragraph" xMin="127" yMin="0" xMax="657" yMax="686">
      <contour>
        <pt x="419" y="599" on="1"/>
        <pt x="326" y="273" on="1"/>
        <pt x="322" y="273" on="1"/>
        <pt x="227" y="273" on="0"/>
        <pt x="127" y="354" on="0"/>
        <pt x="127" y="431" on="1"/>
        <pt x="127" y="550" on="0"/>
        <pt x="293" y="686" on="0"/>
        <pt x="444" y="686" on="1"/>
        <pt x="657" y="686" on="1"/>
        <pt x="460" y="0" on="1"/>
        <pt x="348" y="0" on="1"/>
        <pt x="520" y="599" on="1"/>
      </contour>
    </TTGlyph>
    <TTGlyph name="parenleft" xMin="121" yMin="-149" xMax="681" yMax="807">
      <contour>
        <pt x="121" y="232" on="1"/>
        <pt x="121" y="399" on="0"/>
        <pt x="377" y="691" on="0"/>
        <pt x="626" y="807" on="1"/>
        <pt x="681" y="731" on="1"/>
        <pt x="453" y="619" on="0"/>
        <pt x="235" y="377" on="0"/>
        <pt x="235" y="232" on="1"/>
        <pt x="235" y="149" on="0"/>
        <pt x="344" y="-9" on="0"/>
        <pt x="449" y="-76" on="1"/>
        <pt x="380" y="-149" on="1"/>
        <pt x="250" y="-66" on="0"/>
        <pt x="121" y="125" on="0"/>
      </contour>
    </TTGlyph>
    <TTGlyph name="parenright" xMin="-12" yMin="-149" xMax="548" yMax="807">
      <contour>
        <pt x="548" y="426" on="1"/>
        <pt x="548" y="259" on="0"/>
        <pt x="291" y="-33" on="0"/>
        <pt x="42" y="-149" on="1"/>
        <pt x="-12" y="-73" on="1"/>
        <pt x="216" y="39" on="0"/>
        <pt x="434" y="281" on="0"/>
        <pt x="434" y="426" on="1"/>
        <pt x="434" y="509" on="0"/>
        <pt x="325" y="667" on="0"/>
        <pt x="220" y="734" on="1"/>
        <pt x="288" y="807" on="1"/>
        <pt x="418" y="723" on="0"/>
        <pt x="548" y="533" on="0"/>
      </contour>
    </TTGlyph>
    <TTGlyph name="percent" xMin="-51" yMin="-15" xMax="719" yMax="670">
      <contour>
        <pt x="419" y="557" on="1"/>
        <pt x="419" y="459" on="0"/>
        <pt x="311" y="318" on="0"/>
        <pt x="228" y="318" on="1"/>
        <pt x="169" y="318" on="0"/>
        <pt x="107" y="376" on="0"/>
        <pt x="107" y="431" on="1"/>
        <pt x="107" y="529" on="0"/>
        <pt x="215" y="670" on="0"/>
        <pt x="299" y="670" on="1"/>
        <pt x="358" y="670" on="0"/>
        <pt x="419" y="613" on="0"/>
      </contour>
      <contour>
        <pt x="718" y="654" on="1"/>
        <pt x="443" y="377" on="1"/>
        <pt x="398" y="377" on="1"/>
        <pt x="601" y="660" on="1"/>
        <pt x="719" y="660" on="1"/>
      </contour>
      <contour>
        <pt x="346" y="550" on="1"/>
        <pt x="346" y="578" on="0"/>
        <pt x="320" y="606" on="0"/>
        <pt x="293" y="606" on="1"/>
        <pt x="246" y="606" on="0"/>
        <pt x="180" y="501" on="0"/>
        <pt x="180" y="438" on="1"/>
        <pt x="180" y="410" on="0"/>
        <pt x="206" y="383" on="0"/>
        <pt x="233" y="383" on="1"/>
        <pt x="280" y="383" on="0"/>
        <pt x="346" y="487" on="0"/>
      </contour>
      <contour>
        <pt x="560" y="224" on="1"/>
        <pt x="560" y="126" on="0"/>
        <pt x="452" y="-15" on="0"/>
        <pt x="369" y="-15" on="1"/>
        <pt x="309" y="-15" on="0"/>
        <pt x="248" y="42" on="0"/>
        <pt x="248" y="98" on="1"/>
        <pt x="248" y="196" on="0"/>
        <pt x="356" y="337" on="0"/>
        <pt x="439" y="337" on="1"/>
        <pt x="499" y="337" on="0"/>
        <pt x="560" y="280" on="0"/>
      </contour>
      <contour>
        <pt x="-50" y="1" on="1"/>
        <pt x="224" y="278" on="1"/>
        <pt x="269" y="278" on="1"/>
        <pt x="66" y="-5" on="1"/>
        <pt x="-51" y="-5" on="1"/>
      </contour>
      <contour>
        <pt x="487" y="217" on="1"/>
        <pt x="487" y="245" on="0"/>
        <pt x="461" y="272" on="0"/>
        <pt x="434" y="272" on="1"/>
        <pt x="387" y="272" on="0"/>
        <pt x="321" y="168" on="0"/>
        <pt x="321" y="105" on="1"/>
        <pt x="321" y="77" on="0"/>
        <pt x="347" y="49" on="0"/>
        <pt x="374" y="49" on="1"/>
        <pt x="421" y="49" on="0"/>
        <pt x="487" y="154" on="0"/>
      </contour>
    </TTGlyph>
    <TTGlyph name="period" xMin="155" yMin="-15" xMax="373" yMax="172">
      <contour>
        <pt x="373" y="101" on="1"/>
        <pt x="373" y="48" on="0"/>
        <pt x="310" y="-15" on="0"/>
        <pt x="253" y="-15" on="1"/>
        <pt x="205" y="-15" on="0"/>
        <pt x="155" y="21" on="0"/>
        <pt x="155" y="57" on="1"/>
        <pt x="155" y="108" on="0"/>
        <pt x="219" y="172" on="0"/>
        <pt x="274" y="172" on="1"/>
        <pt x="323" y="172" on="0"/>
        <pt x="373" y="136" on="0"/>
      </contour>
    </TTGlyph>
    <TTGlyph name="periodcentered" xMin="232" yMin="239" xMax="450" yMax="426">
      <component glyphName="period" x="77" y="254" flags="0x4"/>
    </TTGlyph>
    <TTGlyph name="plus" xMin="80" yMin="83" xMax="587" yMax="573">
      <contour>
        <pt x="269" y="283" on="1"/>
        <pt x="80" y="283" on="1"/>
        <pt x="106" y="374" on="1"/>
        <pt x="295" y="374" on="1"/>
        <pt x="352" y="573" on="1"/>
        <pt x="456" y="573" on="1"/>
        <pt x="399" y="374" on="1"/>
        <pt x="587" y="374" on="1"/>
        <pt x="561" y="283" on="1"/>
        <pt x="373" y="283" on="1"/>
        <pt x="315" y="83" on="1"/>
        <pt x="211" y="83" on="1"/>
      </contour>
    </TTGlyph>
    <TTGlyph name="plusminus" xMin="-1" yMin="0" xMax="616" yMax="655">
      <contour>
        <pt x="298" y="385" on="1"/>
        <pt x="109" y="385" on="1"/>
        <pt x="135" y="476" on="1"/>
        <pt x="324" y="476" on="1"/>
        <pt x="375" y="655" on="1"/>
        <pt x="479" y="655" on="1"/>
        <pt x="428" y="476" on="1"/>
        <pt x="616" y="476" on="1"/>
        <pt x="590" y="385" on="1"/>
        <pt x="402" y="385" on="1"/>
        <pt x="350" y="205" on="1"/>
        <pt x="246" y="205" on="1"/>
      </contour>
      <contour>
        <pt x="506" y="91" on="1"/>
        <pt x="480" y="0" on="1"/>
        <pt x="-1" y="0" on="1"/>
        <pt x="25" y="91" on="1"/>
      </contour>
    </TTGlyph>
    <TTGlyph name="q" xMin="41" yMin="-230" xMax="588" yMax="482">
      <contour>
        <pt x="398" y="-230" on="1"/>
        <pt x="286" y="-230" on="1"/>
        <pt x="369" y="59" on="1"/>
        <pt x="326" y="24" on="0"/>
        <pt x="247" y="-8" on="0"/>
        <pt x="203" y="-8" on="1"/>
        <pt x="132" y="-8" on="0"/>
        <pt x="41" y="92" on="0"/>
        <pt x="41" y="174" on="1"/>
        <pt x="41" y="308" on="0"/>
        <pt x="232" y="482" on="0"/>
        <pt x="383" y="482" on="1"/>
        <pt x="436" y="482" on="0"/>
        <pt x="538" y="458" on="0"/>
        <pt x="588" y="433" on="1"/>
      </contour>
      <contour>
        <pt x="380" y="389" on="1"/>
        <pt x="282" y="389" on="0"/>
        <pt x="159" y="273" on="0"/>
        <pt x="159" y="188" on="1"/>
        <pt x="159" y="140" on="0"/>
        <pt x="207" y="85" on="0"/>
        <pt x="248" y="85" on="1"/>
        <pt x="282" y="85" on="0"/>
        <pt x="350" y="119" on="0"/>
        <pt x="397" y="158" on="1"/>
        <pt x="459" y="374" on="1"/>
        <pt x="440" y="381" on="0"/>
        <pt x="400" y="389" on="0"/>
      </contour>
    </TTGlyph>
    <TTGlyph name="question" xMin="95" yMin="-15" xMax="637" yMax="725">
      <contour>
        <pt x="292" y="258" on="1"/>
        <pt x="218" y="258" on="1"/>
        <pt x="221" y="301" on="0"/>
        <pt x="226" y="346" on="0"/>
        <pt x="230" y="359" on="1"/>
        <pt x="235" y="378" on="0"/>
        <pt x="267" y="404" on="0"/>
        <pt x="304" y="419" on="1"/>
        <pt x="402" y="458" on="1"/>
        <pt x="465" y="483" on="0"/>
        <pt x="518" y="530" on="0"/>
        <pt x="518" y="566" on="1"/>
        <pt x="518" y="597" on="0"/>
        <pt x="475" y="631" on="0"/>
        <pt x="436" y="631" on="1"/>
        <pt x="393" y="631" on="0"/>
        <pt x="288" y="599" on="0"/>
        <pt x="191" y="558" on="1"/>
        <pt x="161" y="646" on="1"/>
        <pt x="258" y="689" on="0"/>
        <pt x="392" y="725" on="0"/>
        <pt x="459" y="725" on="1"/>
        <pt x="543" y="725" on="0"/>
        <pt x="637" y="648" on="0"/>
        <pt x="637" y="580" on="1"/>
        <pt x="637" y="509" on="0"/>
        <pt x="554" y="420" on="0"/>
        <pt x="454" y="379" on="1"/>
        <pt x="358" y="340" on="1"/>
        <pt x="333" y="330" on="0"/>
        <pt x="310" y="302" on="0"/>
      </contour>
      <contour>
        <pt x="95" y="40" on="1"/>
        <pt x="95" y="85" on="0"/>
        <pt x="156" y="135" on="0"/>
        <pt x="212" y="135" on="1"/>
        <pt x="257" y="135" on="0"/>
        <pt x="301" y="108" on="0"/>
        <pt x="301" y="80" on="1"/>
        <pt x="301" y="36" on="0"/>
        <pt x="240" y="-15" on="0"/>
        <pt x="183" y="-15" on="1"/>
        <pt x="139" y="-15" on="0"/>
        <pt x="95" y="12" on="0"/>
      </contour>
    </TTGlyph>
</ttFont>
